SplineFontDB: 3.0
FontName: Lohit-Gurmukhi
FullName: Lohit Gurmukhi
FamilyName: Lohit Gurmukhi
Weight: Book
Copyright: Copyright 2014-15 Lohit Fonts Project contributors.\n<http://fedorahosted.org/lohit>\nOpen type tables written by:\nPravin Satpute <psatpute AT redhat DOT com>\nSneha Kore <skore At redhat DOT com>\n\n   Licensed under the SIL Open Font License 1.1 (see file OFL.txt)
Version: 2.91.2
ItalicAngle: 0
UnderlinePosition: -300
UnderlineWidth: 20
Ascent: 615
Descent: 154
LayerCount: 2
Layer: 0 1 "Back"  1
Layer: 1 1 "Fore"  0
XUID: [1021 648 100124046 5567902]
FSType: 0
OS2Version: 1
OS2_WeightWidthSlopeOnly: 0
OS2_UseTypoMetrics: 1
CreationTime: 1159495707
ModificationTime: 1393488898
PfmFamily: 33
TTFWeight: 400
TTFWidth: 5
LineGap: 200
VLineGap: 0
Panose: 2 11 6 0 0 0 0 0 0 0
OS2TypoAscent: 285
OS2TypoAOffset: 1
OS2TypoDescent: -346
OS2TypoDOffset: 1
OS2TypoLinegap: 200
OS2WinAscent: 42
OS2WinAOffset: 1
OS2WinDescent: 221
OS2WinDOffset: 1
HheadAscent: 42
HheadAOffset: 1
HheadDescent: -221
HheadDOffset: 1
OS2SubXSize: 700
OS2SubYSize: 650
OS2SubXOff: 0
OS2SubYOff: 200
OS2SupXSize: 700
OS2SupYSize: 650
OS2SupXOff: 0
OS2SupYOff: 500
OS2StrikeYSize: 50
OS2StrikeYPos: 250
OS2Vendor: 'ACE '
Lookup: 4 0 0 "'nukt' Nukta Forms lookup 0"  {"'nukt' Nukta Forms lookup 0-1"  } ['nukt' ('gur2' <'dflt' > 'guru' <'dflt' > ) ]
Lookup: 4 0 0 "'blwf' Below Base Forms lookup 1"  {"'blwf' Below Base Forms lookup 1-1"  } ['blwf' ('gur2' <'dflt' > 'guru' <'dflt' > ) ]
Lookup: 4 0 0 "'abvs' Above Base Substitutions lookup 2"  {"'abvs' Above Base Substitutions lookup 2-1"  } ['abvs' ('gur2' <'dflt' > 'guru' <'dflt' > ) ]
Lookup: 4 0 0 "'blws' Below Base Substitutions lookup 5"  {"'blws' Below Base Substitutions lookup 5-1"  } ['blws' ('gur2' <'dflt' > 'guru' <'dflt' > ) ]
Lookup: 4 0 0 "'pstf' Post Base Forms lookup 7"  {"'pstf' Post Base Forms lookup 7-1"  } ['pstf' ('gur2' <'dflt' > 'guru' <'dflt' > ) ]

StartChar: .notdef
Encoding: 65536 -1 0
Width: 800
GlyphClass: 2
Flags: W
LayerCount: 2
Fore
SplineSet
100 700 m 1,0,-1
 700 700 l 1,1,-1
 700 0 l 1,2,-1
 100 0 l 1,3,-1
 100 700 l 1,0,-1
650 50 m 1,4,-1
 650 650 l 1,5,-1
 150 650 l 1,6,-1
 150 50 l 1,7,-1
 650 50 l 1,4,-1
EndSplineSet
Validated: 1
EndChar

StartChar: exclam
Encoding: 33 33 3
Width: 260
GlyphClass: 2
Flags: W
LayerCount: 2
Fore
SplineSet
90 20 m 1,0,-1
 170 20 l 1,1,-1
 170 -60 l 1,2,-1
 90 -60 l 1,3,-1
 90 20 l 1,0,-1
105 550 m 1,4,-1
 155 550 l 1,5,-1
 155 100 l 1,6,-1
 105 100 l 1,7,-1
 105 550 l 1,4,-1
EndSplineSet
Validated: 1
EndChar

StartChar: quotedbl
Encoding: 34 34 4
Width: 344
GlyphClass: 2
Flags: W
LayerCount: 2
Fore
SplineSet
101 459 m 1,0,-1
 72 617 l 1,1,-1
 132 617 l 1,2,-1
 138 459 l 1,3,-1
 101 459 l 1,0,-1
231 459 m 1,4,-1
 202 617 l 1,5,-1
 262 617 l 1,6,-1
 268 459 l 1,7,-1
 231 459 l 1,4,-1
EndSplineSet
Validated: 1
EndChar

StartChar: numbersign
Encoding: 35 35 5
Width: 732
GlyphClass: 2
Flags: W
LayerCount: 2
Fore
SplineSet
140 384 m 1,0,-1
 285 384 l 1,1,-1
 322 502 l 1,2,-1
 368 502 l 1,3,-1
 331 384 l 1,4,-1
 485 384 l 1,5,-1
 522 502 l 1,6,-1
 569 502 l 1,7,-1
 532 384 l 1,8,-1
 642 384 l 1,9,-1
 642 338 l 1,10,-1
 516 338 l 1,11,-1
 466 184 l 1,12,-1
 592 184 l 1,13,-1
 592 136 l 1,14,-1
 451 136 l 1,15,-1
 408 -1 l 1,16,-1
 361 -1 l 1,17,-1
 405 136 l 1,18,-1
 251 136 l 1,19,-1
 207 -1 l 1,20,-1
 161 -1 l 1,21,-1
 205 136 l 1,22,-1
 90 136 l 1,23,-1
 90 184 l 1,24,-1
 219 184 l 1,25,-1
 269 338 l 1,26,-1
 140 338 l 1,27,-1
 140 384 l 1,0,-1
316 338 m 1,28,-1
 265 184 l 1,29,-1
 420 184 l 1,30,-1
 470 338 l 1,31,-1
 316 338 l 1,28,-1
EndSplineSet
Validated: 1
EndChar

StartChar: dollar
Encoding: 36 36 6
Width: 565
GlyphClass: 2
Flags: W
LayerCount: 2
Fore
SplineSet
136 149 m 1,0,1
 136 104 136 104 169.5 67 c 128,-1,2
 203 30 203 30 255 17 c 1,3,-1
 255 236 l 1,4,5
 190 243 190 243 146 285 c 128,-1,6
 102 327 102 327 102 382 c 0,7,8
 102 435 102 435 145.5 475.5 c 128,-1,9
 189 516 189 516 255 524 c 1,10,-1
 255 610 l 1,11,-1
 304 610 l 1,12,-1
 304 524 l 1,13,14
 371 516 371 516 415.5 472 c 128,-1,15
 460 428 460 428 460 370 c 1,16,-1
 412 370 l 1,17,18
 412 411 412 411 381 442 c 128,-1,19
 350 473 350 473 304 480 c 1,20,-1
 304 272 l 1,21,22
 378 262 378 262 426.5 220 c 128,-1,23
 475 178 475 178 475 126 c 0,24,25
 475 68 475 68 426 24.5 c 128,-1,26
 377 -19 377 -19 304 -27 c 1,27,-1
 304 -96 l 1,28,-1
 255 -96 l 1,29,-1
 255 -27 l 1,30,31
 184 -17 184 -17 137 33 c 128,-1,32
 90 83 90 83 90 149 c 1,33,-1
 136 149 l 1,0,1
394.5 54 m 128,-1,35
 431 85 431 85 431 126 c 0,36,37
 431 166 431 166 394.5 195.5 c 128,-1,38
 358 225 358 225 304 229 c 1,39,-1
 304 17 l 1,40,34
 358 23 358 23 394.5 54 c 128,-1,35
179 443.5 m 128,-1,42
 149 416 149 416 149 382 c 0,43,44
 149 345 149 345 179 315.5 c 128,-1,45
 209 286 209 286 255 279 c 1,46,-1
 255 480 l 1,47,41
 209 471 209 471 179 443.5 c 128,-1,42
EndSplineSet
Validated: 1
EndChar

StartChar: percent
Encoding: 37 37 7
Width: 650
GlyphClass: 2
Flags: W
LayerCount: 2
Fore
SplineSet
125 472 m 128,-1,1
 160 510 160 510 210 510 c 256,2,3
 260 510 260 510 295 472 c 128,-1,4
 330 434 330 434 330 380 c 256,5,6
 330 326 330 326 295 288 c 128,-1,7
 260 250 260 250 210 250 c 256,8,9
 160 250 160 250 125 288 c 128,-1,10
 90 326 90 326 90 380 c 256,11,0
 90 434 90 434 125 472 c 128,-1,1
153.5 316.5 m 128,-1,13
 177 290 177 290 210 290 c 256,14,15
 243 290 243 290 266.5 316.5 c 128,-1,16
 290 343 290 343 290 380 c 256,17,18
 290 417 290 417 266.5 443.5 c 128,-1,19
 243 470 243 470 210 470 c 256,20,21
 177 470 177 470 153.5 443.5 c 128,-1,22
 130 417 130 417 130 380 c 256,23,12
 130 343 130 343 153.5 316.5 c 128,-1,13
487 500 m 1,24,-1
 532 500 l 1,25,-1
 170 0 l 1,26,-1
 125 0 l 1,27,-1
 487 500 l 1,24,-1
355 212 m 128,-1,29
 390 250 390 250 440 250 c 256,30,31
 490 250 490 250 525 212 c 128,-1,32
 560 174 560 174 560 120 c 256,33,34
 560 66 560 66 525 28 c 128,-1,35
 490 -10 490 -10 440 -10 c 256,36,37
 390 -10 390 -10 355 28 c 128,-1,38
 320 66 320 66 320 120 c 256,39,28
 320 174 320 174 355 212 c 128,-1,29
383.5 56.5 m 128,-1,41
 407 30 407 30 440 30 c 256,42,43
 473 30 473 30 496.5 56.5 c 128,-1,44
 520 83 520 83 520 120 c 256,45,46
 520 157 520 157 496.5 183.5 c 128,-1,47
 473 210 473 210 440 210 c 256,48,49
 407 210 407 210 383.5 183.5 c 128,-1,50
 360 157 360 157 360 120 c 256,51,40
 360 83 360 83 383.5 56.5 c 128,-1,41
EndSplineSet
Validated: 1
EndChar

StartChar: ampersand
Encoding: 38 38 8
Width: 602
GlyphClass: 2
Flags: W
LayerCount: 2
Fore
SplineSet
124.5 204 m 128,-1,1
 159 249 159 249 219 284 c 1,2,3
 184 328 184 328 166 366.5 c 128,-1,4
 148 405 148 405 148 434 c 0,5,6
 148 477 148 477 183.5 508 c 128,-1,7
 219 539 219 539 269 539 c 0,8,9
 317 539 317 539 351.5 504 c 128,-1,10
 386 469 386 469 386 419 c 0,11,12
 386 380 386 380 359 342 c 128,-1,13
 332 304 332 304 285 277 c 1,14,-1
 394 135 l 1,15,16
 400 159 400 159 403.5 180.5 c 128,-1,17
 407 202 407 202 407 221 c 1,18,-1
 450 221 l 1,19,20
 450 182 450 182 443.5 150.5 c 128,-1,21
 437 119 437 119 424 97 c 1,22,-1
 512 -19 l 1,23,-1
 452 -19 l 1,24,-1
 392 52 l 1,25,26
 367 16 367 16 327.5 -4.5 c 128,-1,27
 288 -25 288 -25 244 -25 c 0,28,29
 180 -25 180 -25 135 16.5 c 128,-1,30
 90 58 90 58 90 116 c 0,31,0
 90 159 90 159 124.5 204 c 128,-1,1
173 49.5 m 128,-1,33
 206 19 206 19 252 19 c 0,34,35
 285 19 285 19 316.5 38 c 128,-1,36
 348 57 348 57 371 90 c 1,37,-1
 243 249 l 1,38,39
 195 221 195 221 167.5 187.5 c 128,-1,40
 140 154 140 154 140 123 c 0,41,32
 140 80 140 80 173 49.5 c 128,-1,33
213 377.5 m 128,-1,43
 228 348 228 348 257 311 c 1,44,45
 293 332 293 332 314 361 c 128,-1,46
 335 390 335 390 335 419 c 0,47,48
 335 451 335 451 317 474 c 128,-1,49
 299 497 299 497 274 497 c 0,50,51
 243 497 243 497 220.5 476 c 128,-1,52
 198 455 198 455 198 426 c 0,53,42
 198 407 198 407 213 377.5 c 128,-1,43
EndSplineSet
Validated: 1
EndChar

StartChar: quotesingle
Encoding: 39 39 9
Width: 214
GlyphClass: 2
Flags: W
LayerCount: 2
Fore
SplineSet
101 460 m 5,0,-1
 72 618 l 5,1,-1
 132 618 l 5,2,-1
 138 460 l 5,3,-1
 101 460 l 5,0,-1
EndSplineSet
Validated: 1
EndChar

StartChar: parenleft
Encoding: 40 40 10
Width: 410
GlyphClass: 2
Flags: W
LayerCount: 2
Fore
SplineSet
143.5 489 m 128,-1,1
 197 596 197 596 290 650 c 1,2,-1
 320 610 l 1,3,4
 236 562 236 562 188 465.5 c 128,-1,5
 140 369 140 369 140 250 c 256,6,7
 140 131 140 131 188 34.5 c 128,-1,8
 236 -62 236 -62 320 -110 c 1,9,-1
 290 -150 l 1,10,11
 197 -96 197 -96 143.5 11 c 128,-1,12
 90 118 90 118 90 250 c 256,13,0
 90 382 90 382 143.5 489 c 128,-1,1
EndSplineSet
Validated: 1
EndChar

StartChar: parenright
Encoding: 41 41 11
Width: 410
GlyphClass: 2
Flags: W
LayerCount: 2
Fore
SplineSet
266.5 11 m 128,-1,1
 213 -96 213 -96 120 -150 c 1,2,-1
 90 -110 l 1,3,4
 174 -62 174 -62 222 34.5 c 128,-1,5
 270 131 270 131 270 250 c 256,6,7
 270 369 270 369 222 465.5 c 128,-1,8
 174 562 174 562 90 610 c 1,9,-1
 120 650 l 1,10,11
 213 596 213 596 266.5 489 c 128,-1,12
 320 382 320 382 320 250 c 256,13,0
 320 118 320 118 266.5 11 c 128,-1,1
EndSplineSet
Validated: 1
EndChar

StartChar: asterisk
Encoding: 42 42 12
Width: 430
GlyphClass: 2
Flags: W
LayerCount: 2
Fore
SplineSet
169.2 369.6 m 1,0,-1
 129.6 395.4 l 1,1,-1
 195.6 472.8 l 1,2,-1
 94.4004 455.6 l 1,3,-1
 90 507.2 l 1,4,-1
 191.2 498.6 l 1,5,-1
 134 567.4 l 1,6,-1
 182.4 588.9 l 1,7,-1
 213.2 515.8 l 1,8,-1
 248.4 588.9 l 1,9,-1
 292.4 567.4 l 1,10,-1
 239.6 498.6 l 1,11,-1
 340.8 511.5 l 1,12,-1
 340.8 464.2 l 1,13,-1
 239.6 472.8 l 1,14,-1
 314.4 395.4 l 1,15,-1
 266 369.6 l 1,16,-1
 222 464.2 l 1,17,-1
 169.2 369.6 l 1,18,-1
 169.2 369.6 l 1,0,-1
EndSplineSet
Validated: 5
EndChar

StartChar: plus
Encoding: 43 43 13
Width: 530
GlyphClass: 2
Flags: W
LayerCount: 2
Fore
SplineSet
90 300 m 1,0,-1
 240 300 l 1,1,-1
 240 450 l 5,2,-1
 290 450 l 1,3,-1
 290 300 l 1,4,-1
 440 300 l 1,5,-1
 440 250 l 1,6,-1
 290 250 l 1,7,-1
 290 100 l 1,8,-1
 240 100 l 1,9,-1
 240 250 l 1,10,-1
 90 250 l 1,11,-1
 90 300 l 1,0,-1
EndSplineSet
Validated: 1
EndChar

StartChar: comma
Encoding: 44 44 14
Width: 280
GlyphClass: 2
Flags: W
LayerCount: 2
Fore
SplineSet
90 90 m 1,0,-1
 190 90 l 1,1,-1
 190 0 l 2,2,3
 190 -29 190 -29 182.5 -56.5 c 128,-1,4
 175 -84 175 -84 160 -110 c 1,5,-1
 100 -100 l 1,6,7
 114 -88 114 -88 122 -62 c 128,-1,8
 130 -36 130 -36 130 0 c 1,9,-1
 90 0 l 1,10,-1
 90 90 l 1,0,-1
EndSplineSet
Validated: 1
EndChar

StartChar: hyphen
Encoding: 45 45 15
Width: 530
GlyphClass: 2
Flags: W
LayerCount: 2
Fore
SplineSet
90 300 m 1,0,-1
 440 300 l 1,1,-1
 440 250 l 1,2,-1
 90 250 l 1,3,-1
 90 300 l 1,0,-1
EndSplineSet
Validated: 1
EndChar

StartChar: period
Encoding: 46 46 16
Width: 270
GlyphClass: 2
Flags: W
LayerCount: 2
Fore
SplineSet
90 90 m 1,0,-1
 180 90 l 1,1,-1
 180 0 l 1,2,-1
 90 0 l 1,3,-1
 90 90 l 1,0,-1
EndSplineSet
Validated: 1
EndChar

StartChar: slash
Encoding: 47 47 17
Width: 420
GlyphClass: 2
Flags: W
LayerCount: 2
Fore
SplineSet
290 650 m 1,0,-1
 330 650 l 1,1,-1
 130 -150 l 1,2,-1
 90 -150 l 1,3,-1
 290 650 l 1,0,-1
EndSplineSet
Validated: 1
EndChar

StartChar: zero
Encoding: 48 48 18
Width: 430
GlyphClass: 2
Flags: W
LayerCount: 2
Fore
SplineSet
88 63.5 m 128,-1,1
 40 134 40 134 40 252 c 256,2,3
 40 370 40 370 88 440.5 c 128,-1,4
 136 511 136 511 215 511 c 256,5,6
 294 511 294 511 342 440.5 c 128,-1,7
 390 370 390 370 390 252 c 256,8,9
 390 134 390 134 342 63.5 c 128,-1,10
 294 -7 294 -7 215 -7 c 256,11,0
 136 -7 136 -7 88 63.5 c 128,-1,1
291.5 83.5 m 128,-1,13
 320 147 320 147 320 252 c 0,14,15
 320 355 320 355 291.5 417.5 c 128,-1,16
 263 480 263 480 215 480 c 256,17,18
 167 480 167 480 138.5 417.5 c 128,-1,19
 110 355 110 355 110 252 c 0,20,21
 110 147 110 147 138.5 83.5 c 128,-1,22
 167 20 167 20 215 20 c 256,23,12
 263 20 263 20 291.5 83.5 c 128,-1,13
EndSplineSet
Validated: 1
EndChar

StartChar: one
Encoding: 49 49 19
Width: 430
GlyphClass: 2
Flags: W
LayerCount: 2
Fore
SplineSet
110 24 m 1,0,-1
 138 24 l 2,1,2
 158 24 158 24 172.5 33.5 c 128,-1,3
 187 43 187 43 187 56 c 2,4,-1
 187 420 l 2,5,6
 187 426 187 426 181 430 c 128,-1,7
 175 434 175 434 166 434 c 0,8,9
 158 434 158 434 146 429.5 c 128,-1,10
 134 425 134 425 120 417 c 1,11,-1
 110 441 l 1,12,-1
 250 511 l 1,13,-1
 250 60 l 2,14,15
 250 45 250 45 262.5 34.5 c 128,-1,16
 275 24 275 24 292 24 c 2,17,-1
 320 24 l 1,18,-1
 320 0 l 1,19,-1
 110 0 l 1,20,-1
 110 24 l 1,0,-1
EndSplineSet
Validated: 1
EndChar

StartChar: two
Encoding: 50 50 20
Width: 429
GlyphClass: 2
Flags: W
LayerCount: 2
Fore
SplineSet
173 152 m 128,-1,1
 283 282 283 282 283 343 c 0,2,3
 283 389 283 389 254.5 422 c 128,-1,4
 226 455 226 455 185 455 c 0,5,6
 143 455 143 455 111 428 c 128,-1,7
 79 401 79 401 72 360 c 1,8,-1
 48 364 l 1,9,10
 59 428 59 428 106 469.5 c 128,-1,11
 153 511 153 511 213 511 c 0,12,13
 268 511 268 511 307 474 c 128,-1,14
 346 437 346 437 346 385 c 0,15,16
 346 339 346 339 296.5 266 c 128,-1,17
 247 193 247 193 132 56 c 1,18,-1
 318 56 l 2,19,20
 332 56 332 56 344 66.5 c 128,-1,21
 356 77 356 77 362 94 c 1,22,-1
 384 91 l 1,23,-1
 346 0 l 1,24,-1
 45 0 l 1,25,0
 63 22 63 22 173 152 c 128,-1,1
EndSplineSet
Validated: 1
EndChar

StartChar: three
Encoding: 51 51 21
Width: 430
GlyphClass: 2
Flags: W
LayerCount: 2
Fore
SplineSet
94.5 -4.5 m 128,-1,1
 68 8 68 8 68 25 c 0,2,3
 68 35 68 35 76 42 c 128,-1,4
 84 49 84 49 96 49 c 0,5,6
 115 49 115 49 149.5 35 c 128,-1,7
 184 21 184 21 203 21 c 0,8,9
 243 21 243 21 271 53 c 128,-1,10
 299 85 299 85 299 130 c 0,11,12
 299 176 299 176 268 209 c 128,-1,13
 237 242 237 242 194 242 c 2,14,-1
 159 242 l 1,15,-1
 159 262 l 1,16,17
 211 271 211 271 244.5 305 c 128,-1,18
 278 339 278 339 278 382 c 0,19,20
 278 414 278 414 253.5 436.5 c 128,-1,21
 229 459 229 459 194 459 c 0,22,23
 165 459 165 459 137 437 c 128,-1,24
 109 415 109 415 92 378 c 1,25,-1
 68 395 l 1,26,27
 85 443 85 443 125.5 472 c 128,-1,28
 166 501 166 501 215 501 c 0,29,30
 266 501 266 501 301.5 474.5 c 128,-1,31
 337 448 337 448 337 410 c 0,32,33
 337 369 337 369 318 335.5 c 128,-1,34
 299 302 299 302 267 287 c 1,35,36
 310 271 310 271 336 237.5 c 128,-1,37
 362 204 362 204 362 165 c 0,38,39
 362 90 362 90 302.5 36.5 c 128,-1,40
 243 -17 243 -17 159 -17 c 0,41,0
 121 -17 121 -17 94.5 -4.5 c 128,-1,1
EndSplineSet
Validated: 1
EndChar

StartChar: four
Encoding: 52 52 22
Width: 430
GlyphClass: 2
Flags: W
LayerCount: 2
Fore
SplineSet
257 126 m 1,0,-1
 40 126 l 1,1,-1
 40 175 l 1,2,-1
 278 504 l 1,3,-1
 313 504 l 1,4,-1
 313 175 l 1,5,-1
 390 175 l 1,6,-1
 390 126 l 1,7,-1
 313 126 l 1,8,-1
 313 0 l 1,9,-1
 257 0 l 1,10,-1
 257 126 l 1,0,-1
257 175 m 1,11,-1
 257 422 l 1,12,-1
 76 175 l 1,13,-1
 257 175 l 1,11,-1
EndSplineSet
Validated: 1
EndChar

StartChar: five
Encoding: 53 53 23
Width: 430
GlyphClass: 2
Flags: W
LayerCount: 2
Fore
SplineSet
87.5 5.5 m 128,-1,1
 61 18 61 18 61 35 c 0,2,3
 61 47 61 47 71.5 55 c 128,-1,4
 82 63 82 63 96 63 c 0,5,6
 104 63 104 63 119 56.5 c 128,-1,7
 134 50 134 50 159 35 c 0,8,9
 167 31 167 31 179.5 28.5 c 128,-1,10
 192 26 192 26 208 26 c 0,11,12
 251 26 251 26 282 63.5 c 128,-1,13
 313 101 313 101 313 154 c 0,14,15
 313 209 313 209 247.5 256.5 c 128,-1,16
 182 304 182 304 82 322 c 1,17,-1
 166 504 l 1,18,-1
 327 504 l 2,19,20
 335 504 335 504 342 507.5 c 128,-1,21
 349 511 349 511 355 518 c 1,22,-1
 369 518 l 1,23,-1
 341 448 l 1,24,-1
 176 448 l 1,25,-1
 141 378 l 1,26,27
 239 352 239 352 300.5 297.5 c 128,-1,28
 362 243 362 243 362 182 c 0,29,30
 362 92 362 92 307 42.5 c 128,-1,31
 252 -7 252 -7 152 -7 c 0,32,0
 114 -7 114 -7 87.5 5.5 c 128,-1,1
EndSplineSet
Validated: 1
EndChar

StartChar: six
Encoding: 54 54 24
Width: 430
GlyphClass: 2
Flags: W
LayerCount: 2
Fore
SplineSet
100.5 54.5 m 128,-1,1
 49 116 49 116 49 203 c 0,2,3
 49 333 49 333 139 425.5 c 128,-1,4
 229 518 229 518 357 518 c 1,5,-1
 357 494 l 1,6,7
 282 487 282 487 222 432 c 128,-1,8
 162 377 162 377 140 294 c 1,9,10
 151 307 151 307 177 314.5 c 128,-1,11
 203 322 203 322 238 322 c 0,12,13
 297 322 297 322 339 281 c 128,-1,14
 381 240 381 240 381 182 c 0,15,16
 381 104 381 104 335 48.5 c 128,-1,17
 289 -7 289 -7 224 -7 c 0,18,0
 152 -7 152 -7 100.5 54.5 c 128,-1,1
290.5 56.5 m 128,-1,20
 315 94 315 94 315 147 c 0,21,22
 315 208 315 208 282 251 c 128,-1,23
 249 294 249 294 203 294 c 0,24,25
 182 294 182 294 162.5 285 c 128,-1,26
 143 276 143 276 129 259 c 1,27,28
 124 228 124 228 121.5 212.5 c 128,-1,29
 119 197 119 197 119 189 c 0,30,31
 119 119 119 119 152 69 c 128,-1,32
 185 19 185 19 231 19 c 0,33,19
 266 19 266 19 290.5 56.5 c 128,-1,20
EndSplineSet
Validated: 1
EndChar

StartChar: seven
Encoding: 55 55 25
Width: 429
GlyphClass: 2
Flags: W
LayerCount: 2
Fore
SplineSet
318 448 m 1,0,-1
 129 448 l 2,1,2
 110 448 110 448 92 433 c 128,-1,3
 74 418 74 418 62 392 c 1,4,-1
 52 402 l 1,5,-1
 87 504 l 1,6,-1
 377 504 l 1,7,-1
 213 0 l 1,8,-1
 167 0 l 1,9,-1
 318 448 l 1,0,-1
EndSplineSet
Validated: 1
EndChar

StartChar: eight
Encoding: 56 56 26
Width: 430
GlyphClass: 2
Flags: W
LayerCount: 2
Fore
SplineSet
113 31 m 128,-1,1
 68 69 68 69 68 122 c 0,2,3
 68 154 68 154 96 189 c 128,-1,4
 124 224 124 224 173 252 c 1,5,6
 128 283 128 283 103 318.5 c 128,-1,7
 78 354 78 354 78 385 c 0,8,9
 78 437 78 437 116 474 c 128,-1,10
 154 511 154 511 208 511 c 0,11,12
 269 511 269 511 308.5 481 c 128,-1,13
 348 451 348 451 348 406 c 0,14,15
 348 374 348 374 321.5 340 c 128,-1,16
 295 306 295 306 250 280 c 1,17,18
 302 250 302 250 332 207 c 128,-1,19
 362 164 362 164 362 119 c 0,20,21
 362 67 362 67 321 30 c 128,-1,22
 280 -7 280 -7 222 -7 c 0,23,0
 158 -7 158 -7 113 31 c 128,-1,1
286.5 44 m 128,-1,25
 313 69 313 69 313 105 c 0,26,27
 313 133 313 133 279 168.5 c 128,-1,28
 245 204 245 204 187 238 c 1,29,30
 158 214 158 214 142.5 181 c 128,-1,31
 127 148 127 148 127 112 c 0,32,33
 127 73 127 73 155 46 c 128,-1,34
 183 19 183 19 222 19 c 0,35,24
 260 19 260 19 286.5 44 c 128,-1,25
279.5 347 m 128,-1,37
 299 380 299 380 299 413 c 0,38,39
 299 443 299 443 272.5 464 c 128,-1,40
 246 485 246 485 208 485 c 0,41,42
 176 485 176 485 153.5 466 c 128,-1,43
 131 447 131 447 131 420 c 0,44,45
 131 390 131 390 156 355.5 c 128,-1,46
 181 321 181 321 225 290 c 1,47,36
 260 314 260 314 279.5 347 c 128,-1,37
EndSplineSet
Validated: 1
EndChar

StartChar: nine
Encoding: 57 57 27
Width: 429
GlyphClass: 2
Flags: W
LayerCount: 2
Fore
SplineSet
78 3 m 1,0,1
 169 27 169 27 230.5 86 c 128,-1,2
 292 145 292 145 305 220 c 1,3,4
 281 200 281 200 251 189 c 128,-1,5
 221 178 221 178 190 178 c 0,6,7
 132 178 132 178 91 222 c 128,-1,8
 50 266 50 266 50 329 c 0,9,10
 50 404 50 404 95 457.5 c 128,-1,11
 140 511 140 511 204 511 c 0,12,13
 276 511 276 511 327.5 441.5 c 128,-1,14
 379 372 379 372 379 273 c 0,15,16
 379 168 379 168 296 84.5 c 128,-1,17
 213 1 213 1 85 -21 c 1,18,-1
 78 3 l 1,0,1
271.5 226.5 m 128,-1,20
 295 233 295 233 309 245 c 1,21,22
 309 366 309 366 280.5 428 c 128,-1,23
 252 490 252 490 197 490 c 0,24,25
 165 490 165 490 142.5 449 c 128,-1,26
 120 408 120 408 120 350 c 0,27,28
 120 296 120 296 148.5 258 c 128,-1,29
 177 220 177 220 218 220 c 0,30,19
 248 220 248 220 271.5 226.5 c 128,-1,20
EndSplineSet
Validated: 1
EndChar

StartChar: colon
Encoding: 58 58 28
Width: 280
GlyphClass: 2
Flags: W
LayerCount: 2
Fore
SplineSet
90 370 m 1,0,-1
 190 370 l 1,1,-1
 190 280 l 1,2,-1
 90 280 l 1,3,-1
 90 370 l 1,0,-1
90 90 m 1,4,-1
 190 90 l 1,5,-1
 190 0 l 1,6,-1
 90 0 l 1,7,-1
 90 90 l 1,4,-1
EndSplineSet
Validated: 1
EndChar

StartChar: semicolon
Encoding: 59 59 29
Width: 280
GlyphClass: 2
Flags: W
LayerCount: 2
Fore
SplineSet
90 90 m 1,0,-1
 190 90 l 1,1,-1
 190 0 l 2,2,3
 190 -29 190 -29 182.5 -56.5 c 128,-1,4
 175 -84 175 -84 160 -110 c 1,5,-1
 100 -100 l 1,6,7
 114 -88 114 -88 122 -62 c 128,-1,8
 130 -36 130 -36 130 0 c 1,9,-1
 90 0 l 1,10,-1
 90 90 l 1,0,-1
90 370 m 1,11,-1
 190 370 l 1,12,-1
 190 280 l 1,13,-1
 90 280 l 1,14,-1
 90 370 l 1,11,-1
EndSplineSet
Validated: 1
EndChar

StartChar: less
Encoding: 60 60 30
Width: 527
GlyphClass: 2
Flags: W
LayerCount: 2
Fore
SplineSet
90 277 m 1,0,-1
 437 484 l 1,1,-1
 437 430 l 1,2,-1
 139 250 l 1,3,-1
 437 70 l 1,4,-1
 437 14 l 1,5,-1
 90 218 l 1,6,-1
 90 277 l 1,0,-1
EndSplineSet
Validated: 1
EndChar

StartChar: equal
Encoding: 61 61 31
Width: 530
GlyphClass: 2
Flags: W
LayerCount: 2
Fore
SplineSet
90 340 m 1,0,-1
 440 340 l 1,1,-1
 440 290 l 1,2,-1
 90 290 l 1,3,-1
 90 340 l 1,0,-1
90 175 m 1,4,-1
 440 175 l 1,5,-1
 440 125 l 1,6,-1
 90 125 l 1,7,-1
 90 175 l 1,4,-1
EndSplineSet
Validated: 1
EndChar

StartChar: greater
Encoding: 62 62 32
Width: 527
GlyphClass: 2
Flags: W
LayerCount: 2
Fore
SplineSet
90 14 m 1,0,-1
 90 70 l 1,1,-1
 388 250 l 1,2,-1
 90 430 l 1,3,-1
 90 484 l 1,4,-1
 437 277 l 1,5,-1
 437 218 l 1,6,-1
 90 14 l 1,0,-1
EndSplineSet
Validated: 1
EndChar

StartChar: question
Encoding: 63 63 33
Width: 580
GlyphClass: 2
Flags: W
LayerCount: 2
Fore
SplineSet
245 25 m 1,0,-1
 330 25 l 1,1,-1
 330 -50 l 1,2,-1
 245 -50 l 1,3,-1
 245 25 l 1,0,-1
148.5 503 m 128,-1,5
 207 550 207 550 290 550 c 256,6,7
 373 550 373 550 431.5 503 c 128,-1,8
 490 456 490 456 490 390 c 0,9,10
 490 349 490 349 462 307 c 128,-1,11
 434 265 434 265 385 230 c 0,12,13
 354 204 354 204 337 167.5 c 128,-1,14
 320 131 320 131 320 90 c 1,15,-1
 260 90 l 1,16,17
 260 137 260 137 281 180 c 128,-1,18
 302 223 302 223 340 255 c 0,19,20
 388 295 388 295 414 331.5 c 128,-1,21
 440 368 440 368 440 395 c 0,22,23
 440 438 440 438 396 469 c 128,-1,24
 352 500 352 500 290 500 c 256,25,26
 228 500 228 500 184 468 c 128,-1,27
 140 436 140 436 140 390 c 2,28,-1
 140 350 l 1,29,-1
 90 350 l 1,30,-1
 90 390 l 2,31,4
 90 456 90 456 148.5 503 c 128,-1,5
EndSplineSet
Validated: 1
EndChar

StartChar: at
Encoding: 64 64 34
Width: 814
GlyphClass: 2
Flags: W
LayerCount: 2
Fore
SplineSet
293.5 341.5 m 128,-1,1
 334 384 334 384 392 384 c 0,2,3
 418 384 418 384 441.5 373.5 c 128,-1,4
 465 363 465 363 482 343 c 1,5,-1
 482 379 l 1,6,-1
 532 379 l 1,7,-1
 532 156 l 2,8,9
 532 141 532 141 545 130 c 128,-1,10
 558 119 558 119 577 119 c 0,11,12
 618 119 618 119 647 159.5 c 128,-1,13
 676 200 676 200 676 258 c 0,14,15
 676 357 676 357 600 427 c 128,-1,16
 524 497 524 497 417 497 c 0,17,18
 301 497 301 497 219 420.5 c 128,-1,19
 137 344 137 344 137 236 c 0,20,21
 137 138 137 138 219 69 c 128,-1,22
 301 0 301 0 417 0 c 0,23,24
 462 0 462 0 501.5 12 c 128,-1,25
 541 24 541 24 571 47 c 1,26,-1
 595 6 l 1,27,28
 557 -20 557 -20 511.5 -34 c 128,-1,29
 466 -48 466 -48 417 -48 c 0,30,31
 282 -48 282 -48 186 35 c 128,-1,32
 90 118 90 118 90 236 c 0,33,34
 90 363 90 363 186 453 c 128,-1,35
 282 543 282 543 417 543 c 0,36,37
 544 543 544 543 634 459.5 c 128,-1,38
 724 376 724 376 724 258 c 0,39,40
 724 181 724 181 681 126 c 128,-1,41
 638 71 638 71 577 71 c 0,42,43
 542 71 542 71 515.5 90.5 c 128,-1,44
 489 110 489 110 484 140 c 1,45,46
 470 116 470 116 445.5 102.5 c 128,-1,47
 421 89 421 89 392 89 c 0,48,49
 333 89 333 89 293 133.5 c 128,-1,50
 253 178 253 178 253 240 c 0,51,0
 253 299 253 299 293.5 341.5 c 128,-1,1
328 169 m 128,-1,53
 354 139 354 139 392 139 c 256,54,55
 430 139 430 139 456 169 c 128,-1,56
 482 199 482 199 482 240 c 256,57,58
 482 281 482 281 456 310.5 c 128,-1,59
 430 340 430 340 392 340 c 256,60,61
 354 340 354 340 328 310.5 c 128,-1,62
 302 281 302 281 302 240 c 256,63,52
 302 199 302 199 328 169 c 128,-1,53
EndSplineSet
Validated: 1
EndChar

StartChar: bracketleft
Encoding: 91 91 35
Width: 480
GlyphClass: 2
Flags: W
LayerCount: 2
Fore
SplineSet
90 700 m 1,0,-1
 390 700 l 1,1,-1
 390 650 l 1,2,-1
 140 650 l 1,3,-1
 140 -150 l 1,4,-1
 390 -150 l 1,5,-1
 390 -200 l 1,6,-1
 90 -200 l 1,7,-1
 90 700 l 1,0,-1
EndSplineSet
Validated: 1
EndChar

StartChar: backslash
Encoding: 92 92 36
Width: 485
GlyphClass: 2
Flags: W
LayerCount: 2
Fore
SplineSet
344 -97 m 1,0,-1
 90 610 l 1,1,-1
 141 610 l 1,2,-1
 395 -97 l 1,3,-1
 344 -97 l 1,0,-1
EndSplineSet
Validated: 1
EndChar

StartChar: bracketright
Encoding: 93 93 37
Width: 480
GlyphClass: 2
Flags: W
LayerCount: 2
Fore
SplineSet
390 -200 m 1,0,-1
 90 -200 l 1,1,-1
 90 -150 l 1,2,-1
 340 -150 l 1,3,-1
 340 650 l 1,4,-1
 90 650 l 1,5,-1
 90 700 l 1,6,-1
 390 700 l 1,7,-1
 390 -200 l 1,0,-1
EndSplineSet
Validated: 1
EndChar

StartChar: asciicircum
Encoding: 94 94 38
Width: 534
GlyphClass: 2
Flags: W
LayerCount: 2
Fore
SplineSet
298 361 m 1,0,-1
 444 104 l 1,1,-1
 385 104 l 1,2,-1
 267 318 l 1,3,-1
 149 104 l 1,4,-1
 90 104 l 1,5,-1
 233 361 l 1,6,-1
 298 361 l 1,0,-1
EndSplineSet
Validated: 1
EndChar

StartChar: underscore
Encoding: 95 95 39
Width: 715
GlyphClass: 2
Flags: W
LayerCount: 2
Fore
SplineSet
90 -197 m 1,0,-1
 625 -197 l 1,1,-1
 625 -248 l 1,2,-1
 90 -248 l 1,3,-1
 90 -197 l 1,0,-1
EndSplineSet
Validated: 1
EndChar

StartChar: grave
Encoding: 96 96 40
Width: 286
GlyphClass: 2
Flags: W
LayerCount: 2
Fore
SplineSet
159 499 m 1,0,-1
 90 657 l 1,1,-1
 155 657 l 1,2,-1
 196 499 l 1,3,-1
 159 499 l 1,0,-1
EndSplineSet
Validated: 1
EndChar

StartChar: braceleft
Encoding: 123 123 41
Width: 394
GlyphClass: 2
Flags: W
LayerCount: 2
Fore
SplineSet
143.5 258.5 m 128,-1,1
 166 284 166 284 166 320 c 2,2,-1
 166 419 l 2,3,4
 166 489 166 489 206.5 538.5 c 128,-1,5
 247 588 247 588 304 588 c 1,6,-1
 304 549 l 1,7,8
 267 549 267 549 240.5 511 c 128,-1,9
 214 473 214 473 214 419 c 2,10,-1
 214 320 l 2,11,12
 214 286 214 286 197 259 c 128,-1,13
 180 232 180 232 152 222 c 1,14,15
 180 212 180 212 197 184.5 c 128,-1,16
 214 157 214 157 214 122 c 2,17,-1
 214 24 l 2,18,19
 214 -30 214 -30 240.5 -68 c 128,-1,20
 267 -106 267 -106 304 -106 c 1,21,-1
 304 -146 l 1,22,23
 247 -146 247 -146 206.5 -96 c 128,-1,24
 166 -46 166 -46 166 24 c 2,25,-1
 166 122 l 2,26,27
 166 157 166 157 143.5 181.5 c 128,-1,28
 121 206 121 206 90 206 c 1,29,-1
 90 233 l 1,30,0
 121 233 121 233 143.5 258.5 c 128,-1,1
EndSplineSet
Validated: 1
EndChar

StartChar: bar
Encoding: 124 124 42
Width: 230
GlyphClass: 2
Flags: W
LayerCount: 2
Fore
SplineSet
90 750 m 1,0,-1
 140 750 l 1,1,-1
 140 -245 l 1,2,-1
 90 -245 l 1,3,-1
 90 750 l 1,0,-1
EndSplineSet
Validated: 1
EndChar

StartChar: braceright
Encoding: 125 125 43
Width: 395
GlyphClass: 2
Flags: W
LayerCount: 2
Fore
SplineSet
305 232 m 1,0,1
 274 232 274 232 251.5 207.5 c 128,-1,2
 229 183 229 183 229 148 c 2,3,-1
 229 50 l 2,4,5
 229 -20 229 -20 188.5 -70 c 128,-1,6
 148 -120 148 -120 90 -120 c 1,7,-1
 90 -80 l 1,8,9
 128 -80 128 -80 154.5 -42 c 128,-1,10
 181 -4 181 -4 181 50 c 2,11,-1
 181 148 l 2,12,13
 181 181 181 181 198.5 208 c 128,-1,14
 216 235 216 235 245 245 c 1,15,16
 216 255 216 255 198.5 283 c 128,-1,17
 181 311 181 311 181 346 c 2,18,-1
 181 445 l 2,19,20
 181 499 181 499 154.5 537 c 128,-1,21
 128 575 128 575 90 575 c 1,22,-1
 90 614 l 1,23,24
 148 614 148 614 188.5 564.5 c 128,-1,25
 229 515 229 515 229 445 c 2,26,-1
 229 346 l 2,27,28
 229 310 229 310 251.5 284.5 c 128,-1,29
 274 259 274 259 305 259 c 1,30,-1
 305 232 l 1,0,1
EndSplineSet
Validated: 1
EndChar

StartChar: asciitilde
Encoding: 126 126 44
Width: 572
GlyphClass: 2
Flags: W
LayerCount: 2
Fore
SplineSet
90 262 m 1,0,1
 115 283 115 283 142.5 294.5 c 128,-1,2
 170 306 170 306 196 306 c 256,3,4
 222 306 222 306 243.5 300 c 128,-1,5
 265 294 265 294 279 282 c 0,6,7
 302 263 302 263 323 252.5 c 128,-1,8
 344 242 344 242 360 242 c 0,9,10
 387 242 387 242 411.5 254 c 128,-1,11
 436 266 436 266 454 287 c 1,12,-1
 482 255 l 1,13,14
 460 229 460 229 428 214.5 c 128,-1,15
 396 200 396 200 360 200 c 0,16,17
 337 200 337 200 316 207 c 128,-1,18
 295 214 295 214 279 228 c 0,19,20
 262 243 262 243 240.5 250.5 c 128,-1,21
 219 258 219 258 197 258 c 0,22,23
 176 258 176 258 155 250.5 c 128,-1,24
 134 243 134 243 117 228 c 1,25,-1
 90 262 l 1,0,1
EndSplineSet
Validated: 1
EndChar

StartChar: multiply
Encoding: 215 215 45
Width: 562
GlyphClass: 2
Flags: W
LayerCount: 2
Fore
SplineSet
90 92 m 1,0,-1
 237 240 l 1,1,-1
 90 387 l 1,2,-1
 134 431 l 1,3,-1
 281 284 l 1,4,-1
 428 431 l 1,5,-1
 472 387 l 1,6,-1
 325 240 l 1,7,-1
 472 92 l 1,8,-1
 429 49 l 1,9,-1
 281 196 l 1,10,-1
 133 49 l 1,11,-1
 90 92 l 1,0,-1
EndSplineSet
Validated: 1
EndChar

StartChar: divide
Encoding: 247 247 46
Width: 599
GlyphClass: 2
Flags: W
LayerCount: 2
Fore
SplineSet
259 144 m 128,-1,1
 275 160 275 160 298 160 c 256,2,3
 321 160 321 160 337 145.5 c 128,-1,4
 353 131 353 131 353 110 c 0,5,6
 353 87 353 87 338.5 71 c 128,-1,7
 324 55 324 55 303 55 c 0,8,9
 278 55 278 55 260.5 69.5 c 128,-1,10
 243 84 243 84 243 105 c 0,11,0
 243 128 243 128 259 144 c 128,-1,1
90 281 m 1,12,-1
 509 281 l 1,13,-1
 509 219 l 1,14,-1
 90 219 l 1,15,-1
 90 281 l 1,12,-1
259 429 m 128,-1,17
 275 445 275 445 298 445 c 256,18,19
 321 445 321 445 337 430.5 c 128,-1,20
 353 416 353 416 353 395 c 0,21,22
 353 372 353 372 338.5 356 c 128,-1,23
 324 340 324 340 303 340 c 0,24,25
 278 340 278 340 260.5 354.5 c 128,-1,26
 243 369 243 369 243 390 c 0,27,16
 243 413 243 413 259 429 c 128,-1,17
EndSplineSet
Validated: 1
EndChar

StartChar: dandaguru
Encoding: 2404 2404 47
Width: 275
GlyphClass: 2
Flags: W
LayerCount: 2
Fore
SplineSet
150 0 m 1,0,-1
 150 500 l 1,1,-1
 200 500 l 1,2,-1
 200 0 l 1,3,-1
 150 0 l 1,4,-1
 150 0 l 1,0,-1
EndSplineSet
Validated: 5
EndChar

StartChar: dbldandaguru
Encoding: 2405 2405 48
Width: 435
GlyphClass: 2
Flags: W
LayerCount: 2
Fore
SplineSet
150 0 m 1,0,-1
 150 500 l 1,1,-1
 200 500 l 1,2,-1
 200 0 l 1,3,-1
 150 0 l 1,4,-1
 150 0 l 1,0,-1
310 0 m 1,5,-1
 310 500 l 1,6,-1
 360 500 l 1,7,-1
 360 0 l 1,8,-1
 310 0 l 1,9,-1
 310 0 l 1,5,-1
EndSplineSet
Validated: 5
EndChar

StartChar: adakbindiguru
Encoding: 2561 2561 49
Width: 0
GlyphClass: 4
Flags: W
AnchorPoint: "GRAnchor1" -360 506 mark 0
AnchorPoint: "GRAnchor0" -354 506 mark 0
LayerCount: 2
Fore
SplineSet
-397 712 m 128,-1,1
 -397 723 -397 723 -388 731.5 c 128,-1,2
 -379 740 -379 740 -365.5 740 c 128,-1,3
 -352 740 -352 740 -342.5 731.5 c 128,-1,4
 -333 723 -333 723 -333 712 c 128,-1,5
 -333 701 -333 701 -342.5 693.5 c 128,-1,6
 -352 686 -352 686 -365.5 686 c 128,-1,7
 -379 686 -379 686 -388 693.5 c 128,-1,0
 -397 701 -397 701 -397 712 c 128,-1,1
-357 563 m 128,-1,9
 -416 563 -416 563 -461 606 c 128,-1,10
 -506 649 -506 649 -517 714 c 1,11,-1
 -462 714 l 1,12,13
 -454 671 -454 671 -424.5 641.5 c 128,-1,14
 -395 612 -395 612 -357 612 c 256,15,16
 -319 612 -319 612 -289 641.5 c 128,-1,17
 -259 671 -259 671 -252 714 c 1,18,-1
 -197 714 l 1,19,20
 -208 649 -208 649 -253 606 c 128,-1,8
 -298 563 -298 563 -357 563 c 128,-1,9
EndSplineSet
Validated: 1
EndChar

StartChar: bindiguru
Encoding: 2562 2562 50
Width: 0
GlyphClass: 4
Flags: W
AnchorPoint: "GRAnchor1" -110 532 mark 0
AnchorPoint: "GRAnchor0" -116 526 mark 0
LayerCount: 2
Fore
SplineSet
-147 692 m 128,-1,1
 -134 705 -134 705 -115 705 c 256,2,3
 -96 705 -96 705 -83 692 c 128,-1,4
 -70 679 -70 679 -70 660 c 256,5,6
 -70 641 -70 641 -83 628 c 128,-1,7
 -96 615 -96 615 -115 615 c 256,8,9
 -134 615 -134 615 -147 628 c 128,-1,10
 -160 641 -160 641 -160 660 c 256,11,0
 -160 679 -160 679 -147 692 c 128,-1,1
EndSplineSet
Validated: 1
Substitution2: "Single Substitution lookup 8-1" bindiguru.alt
EndChar

StartChar: visargaguru
Encoding: 2563 2563 51
Width: 316
GlyphClass: 2
Flags: W
LayerCount: 2
Fore
SplineSet
107 122 m 128,-1,1
 107 91 107 91 129.5 69 c 128,-1,2
 152 47 152 47 184 47 c 128,-1,3
 216 47 216 47 239 69 c 128,-1,4
 262 91 262 91 262 122 c 128,-1,5
 262 153 262 153 239 175 c 128,-1,6
 216 197 216 197 184 197 c 128,-1,7
 152 197 152 197 129.5 175 c 128,-1,0
 107 153 107 153 107 122 c 128,-1,1
68 123.5 m 128,-1,9
 68 174 68 174 103 209.5 c 128,-1,10
 138 245 138 245 187 245 c 128,-1,11
 236 245 236 245 271.5 209.5 c 128,-1,12
 307 174 307 174 307 123.5 c 128,-1,13
 307 73 307 73 271.5 37 c 128,-1,14
 236 1 236 1 187 1 c 128,-1,15
 138 1 138 1 103 37 c 128,-1,8
 68 73 68 73 68 123.5 c 128,-1,9
107 470 m 128,-1,17
 107 439 107 439 129.5 416.5 c 128,-1,18
 152 394 152 394 184 394 c 128,-1,19
 216 394 216 394 239 416.5 c 128,-1,20
 262 439 262 439 262 470 c 128,-1,21
 262 501 262 501 239 523 c 128,-1,22
 216 545 216 545 184 545 c 128,-1,23
 152 545 152 545 129.5 523 c 128,-1,16
 107 501 107 501 107 470 c 128,-1,17
68 471.5 m 128,-1,25
 68 522 68 522 103 558 c 128,-1,26
 138 594 138 594 187 594 c 128,-1,27
 236 594 236 594 271.5 558 c 128,-1,28
 307 522 307 522 307 471.5 c 128,-1,29
 307 421 307 421 271.5 385 c 128,-1,30
 236 349 236 349 187 349 c 128,-1,31
 138 349 138 349 103 385 c 128,-1,24
 68 421 68 421 68 471.5 c 128,-1,25
EndSplineSet
Validated: 1
EndChar

StartChar: aguru
Encoding: 2565 2565 52
Width: 619
GlyphClass: 2
Flags: W
LayerCount: 2
Fore
SplineSet
39 500 m 2,0,1
 77 500 77 500 110.5 464 c 128,-1,2
 144 428 144 428 159 370 c 1,3,-1
 159 355 l 1,4,5
 196 389 196 389 234 413 c 128,-1,6
 272 437 272 437 309 450 c 1,7,8
 329 395 329 395 339 350 c 128,-1,9
 349 305 349 305 349 270 c 1,10,11
 368 283 368 283 400.5 298 c 128,-1,12
 433 313 433 313 479 330 c 1,13,-1
 479 500 l 1,14,-1
 629 500 l 1,15,-1
 629 450 l 1,16,-1
 529 450 l 1,17,-1
 529 0 l 1,18,-1
 479 0 l 1,19,-1
 479 280 l 1,20,21
 445 271 445 271 412 253.5 c 128,-1,22
 379 236 379 236 349 210 c 1,23,24
 349 150 349 150 327 107.5 c 128,-1,25
 305 65 305 65 274 65 c 0,26,27
 253 65 253 65 238.5 78 c 128,-1,28
 224 91 224 91 224 110 c 0,29,30
 224 142 224 142 244 173.5 c 128,-1,31
 264 205 264 205 299 230 c 1,32,33
 299 277 299 277 294 315 c 128,-1,34
 289 353 289 353 279 380 c 1,35,36
 242 360 242 360 212 339 c 128,-1,37
 182 318 182 318 159 295 c 1,38,39
 159 233 159 233 135.5 189 c 128,-1,40
 112 145 112 145 79 145 c 0,41,42
 60 145 60 145 47 159.5 c 128,-1,43
 34 174 34 174 34 195 c 0,44,45
 34 222 34 222 53.5 253.5 c 128,-1,46
 73 285 73 285 109 315 c 1,47,48
 109 371 109 371 88.5 410.5 c 128,-1,49
 68 450 68 450 39 450 c 2,50,-1
 -10 450 l 1,51,-1
 -10 500 l 1,52,-1
 39 500 l 2,0,1
EndSplineSet
Validated: 1
EndChar

StartChar: aaguru
Encoding: 2566 2566 53
Width: 854
GlyphClass: 2
Flags: W
AnchorPoint: "GRAnchor0" 738 486 basechar 0
LayerCount: 2
Fore
SplineSet
39 500 m 2,0,1
 77 500 77 500 110.5 464 c 128,-1,2
 144 428 144 428 159 370 c 1,3,-1
 159 355 l 1,4,5
 196 389 196 389 234 413 c 128,-1,6
 272 437 272 437 309 450 c 1,7,8
 329 395 329 395 339 350 c 128,-1,9
 349 305 349 305 349 270 c 1,10,11
 368 283 368 283 400.5 298 c 128,-1,12
 433 313 433 313 479 330 c 1,13,-1
 479 500 l 1,14,-1
 864 500 l 1,15,-1
 864 450 l 1,16,-1
 764 450 l 1,17,-1
 764 220 l 1,18,-1
 714 220 l 1,19,-1
 714 450 l 1,20,-1
 529 450 l 1,21,-1
 529 0 l 1,22,-1
 479 0 l 1,23,-1
 479 280 l 1,24,25
 445 271 445 271 412 253.5 c 128,-1,26
 379 236 379 236 349 210 c 1,27,28
 349 150 349 150 327 107.5 c 128,-1,29
 305 65 305 65 274 65 c 0,30,31
 253 65 253 65 238.5 78 c 128,-1,32
 224 91 224 91 224 110 c 0,33,34
 224 142 224 142 244 173.5 c 128,-1,35
 264 205 264 205 299 230 c 1,36,37
 299 277 299 277 294 315 c 128,-1,38
 289 353 289 353 279 380 c 1,39,40
 242 360 242 360 212 339 c 128,-1,41
 182 318 182 318 159 295 c 1,42,43
 159 233 159 233 135.5 189 c 128,-1,44
 112 145 112 145 79 145 c 0,45,46
 60 145 60 145 47 159.5 c 128,-1,47
 34 174 34 174 34 195 c 0,48,49
 34 222 34 222 53.5 253.5 c 128,-1,50
 73 285 73 285 109 315 c 1,51,52
 109 371 109 371 88.5 410.5 c 128,-1,53
 68 450 68 450 39 450 c 2,54,-1
 -10 450 l 1,55,-1
 -10 500 l 1,56,-1
 39 500 l 2,0,1
EndSplineSet
Validated: 1
EndChar

StartChar: iguru
Encoding: 2567 2567 54
Width: 685
GlyphClass: 2
Flags: W
AnchorPoint: "GRAnchor0" 434 480 basechar 0
LayerCount: 2
Fore
SplineSet
328 226 m 128,-1,1
 356 254 356 254 380 265 c 1,2,3
 334 286 334 286 307 336.5 c 128,-1,4
 280 387 280 387 280 450 c 1,5,-1
 140 450 l 1,6,-1
 140 0 l 1,7,-1
 90 0 l 1,8,-1
 90 450 l 1,9,-1
 -10 450 l 1,10,-1
 -10 500 l 1,11,-1
 90 500 l 1,12,-1
 90 570 l 2,13,14
 90 628 90 628 128 669 c 128,-1,15
 166 710 166 710 220 710 c 0,16,17
 276 710 276 710 315.5 669 c 128,-1,18
 355 628 355 628 355 570 c 1,19,-1
 310 570 l 1,20,21
 310 607 310 607 283.5 633.5 c 128,-1,22
 257 660 257 660 220 660 c 0,23,24
 187 660 187 660 163.5 633.5 c 128,-1,25
 140 607 140 607 140 570 c 2,26,-1
 140 500 l 1,27,-1
 695 500 l 1,28,-1
 695 450 l 1,29,-1
 620 450 l 1,30,-1
 620 240 l 1,31,-1
 460 240 l 2,32,33
 430 240 430 240 395.5 217.5 c 128,-1,34
 361 195 361 195 330 155 c 1,35,36
 365 106 365 106 407 78 c 128,-1,37
 449 50 449 50 490 50 c 0,38,39
 526 50 526 50 563 63 c 128,-1,40
 600 76 600 76 635 100 c 1,41,-1
 645 90 l 1,42,43
 609 47 609 47 566 23.5 c 128,-1,44
 523 0 523 0 480 0 c 0,45,46
 432 0 432 0 376.5 41 c 128,-1,47
 321 82 321 82 270 155 c 1,48,0
 300 198 300 198 328 226 c 128,-1,1
368 337 m 128,-1,50
 406 290 406 290 460 290 c 2,51,-1
 570 290 l 1,52,-1
 570 450 l 1,53,-1
 330 450 l 1,54,49
 330 384 330 384 368 337 c 128,-1,50
EndSplineSet
Validated: 1
EndChar

StartChar: iiguru
Encoding: 2568 2568 55
Width: 688
GlyphClass: 2
Flags: W
AnchorPoint: "GRAnchor0" 664 480 basechar 0
LayerCount: 2
Fore
SplineSet
548 500 m 1,0,-1
 548 570 l 2,1,2
 548 607 548 607 524.5 633.5 c 128,-1,3
 501 660 501 660 468 660 c 256,4,5
 435 660 435 660 411.5 633.5 c 128,-1,6
 388 607 388 607 388 570 c 1,7,-1
 348 570 l 1,8,9
 348 628 348 628 383 669 c 128,-1,10
 418 710 418 710 468 710 c 0,11,12
 522 710 522 710 560 669 c 128,-1,13
 598 628 598 628 598 570 c 2,14,-1
 598 500 l 1,15,-1
 698 500 l 1,16,-1
 698 450 l 1,17,-1
 598 450 l 1,18,-1
 598 0 l 1,19,-1
 548 0 l 1,20,-1
 548 450 l 1,21,-1
 393 450 l 1,22,-1
 393 240 l 1,23,-1
 233 240 l 2,24,25
 203 240 203 240 168.5 217.5 c 128,-1,26
 134 195 134 195 103 155 c 1,27,28
 138 106 138 106 180 78 c 128,-1,29
 222 50 222 50 263 50 c 0,30,31
 299 50 299 50 336 63 c 128,-1,32
 373 76 373 76 408 100 c 1,33,-1
 418 90 l 1,34,35
 382 47 382 47 339 23.5 c 128,-1,36
 296 0 296 0 253 0 c 0,37,38
 205 0 205 0 149.5 41 c 128,-1,39
 94 82 94 82 43 155 c 1,40,41
 73 198 73 198 101 226 c 128,-1,42
 129 254 129 254 153 265 c 1,43,44
 107 286 107 286 80 336.5 c 128,-1,45
 53 387 53 387 53 450 c 1,46,-1
 -10 450 l 1,47,-1
 -10 500 l 1,48,-1
 548 500 l 1,0,-1
141 337 m 128,-1,50
 179 290 179 290 233 290 c 2,51,-1
 343 290 l 1,52,-1
 343 450 l 1,53,-1
 103 450 l 1,54,49
 103 384 103 384 141 337 c 128,-1,50
EndSplineSet
Validated: 1
EndChar

StartChar: uguru
Encoding: 2569 2569 56
Width: 532
GlyphClass: 2
Flags: W
AnchorPoint: "GRAnchor0" 558 480 basechar 0
LayerCount: 2
Fore
SplineSet
147 -95 m 1
 179 -110 179 -110 217 -117.5 c 0
 255 -125 255 -125 297 -125 c 256
 339 -125 339 -125 377 -117.5 c 0
 415 -110 415 -110 447 -95 c 1
 447 -145 l 1
 415 -160 415 -160 377 -167.5 c 0
 339 -175 339 -175 297 -175 c 256
 255 -175 255 -175 217 -167.5 c 0
 179 -160 179 -160 147 -145 c 1
 147 -95 l 1
EndSplineSet
Refer: 124 2675 N 1 0 0 1 0 0 2
EndChar

StartChar: uuguru
Encoding: 2570 2570 57
Width: 532
GlyphClass: 2
Flags: W
AnchorPoint: "GRAnchor0" 528 480 basechar 0
LayerCount: 2
Fore
SplineSet
147 -140 m 1,0,1
 182 -156 182 -156 220 -164.5 c 0,2,3
 258 -173 258 -173 297 -173 c 256,4,5
 336 -173 336 -173 374 -164.5 c 0,6,7
 412 -156 412 -156 447 -140 c 1,8,-1
 447 -190 l 1,9,10
 376 -223 376 -223 297 -223 c 0,11,12
 218 -223 218 -223 147 -190 c 1,13,-1
 147 -140 l 1,0,1
147 -40 m 1,14,15
 218 -73 218 -73 297 -73 c 0,16,17
 376 -73 376 -73 447 -40 c 1,18,-1
 447 -90 l 1,19,20
 376 -123 376 -123 297 -123 c 0,21,22
 218 -123 218 -123 147 -90 c 1,23,-1
 147 -40 l 1,14,15
EndSplineSet
Refer: 124 2675 N 1 0 0 1 0 0 2
EndChar

StartChar: eeguru
Encoding: 2575 2575 58
Width: 458
GlyphClass: 2
Flags: W
AnchorPoint: "GRAnchor0" 400 480 basechar 0
LayerCount: 2
Fore
SplineSet
468 500 m 1,0,-1
 468 450 l 1,1,-1
 393 450 l 1,2,-1
 393 240 l 1,3,-1
 233 240 l 2,4,5
 203 240 203 240 168.5 217.5 c 128,-1,6
 134 195 134 195 103 155 c 1,7,8
 138 106 138 106 180 78 c 128,-1,9
 222 50 222 50 263 50 c 0,10,11
 299 50 299 50 336 63 c 128,-1,12
 373 76 373 76 408 100 c 1,13,-1
 418 90 l 1,14,15
 382 47 382 47 339 23.5 c 128,-1,16
 296 0 296 0 253 0 c 0,17,18
 205 0 205 0 149.5 41 c 128,-1,19
 94 82 94 82 43 155 c 1,20,21
 73 198 73 198 101 226 c 128,-1,22
 129 254 129 254 153 265 c 1,23,24
 107 286 107 286 80 336.5 c 128,-1,25
 53 387 53 387 53 450 c 1,26,-1
 -10 450 l 1,27,-1
 -10 500 l 1,28,-1
 468 500 l 1,0,-1
141 337 m 128,-1,30
 179 290 179 290 233 290 c 2,31,-1
 343 290 l 1,32,-1
 343 450 l 1,33,-1
 103 450 l 1,34,29
 103 384 103 384 141 337 c 128,-1,30
98.5 707 m 128,-1,36
 119 720 119 720 148 720 c 0,37,38
 219 720 219 720 282 665 c 128,-1,39
 345 610 345 610 378 520 c 1,40,-1
 358 520 l 1,41,42
 337 579 337 579 287.5 614.5 c 128,-1,43
 238 650 238 650 178 650 c 0,44,45
 169 650 169 650 153 645 c 128,-1,46
 137 640 137 640 128 640 c 0,47,48
 107 640 107 640 92.5 650.5 c 128,-1,49
 78 661 78 661 78 675 c 0,50,35
 78 694 78 694 98.5 707 c 128,-1,36
EndSplineSet
Validated: 1
EndChar

StartChar: aiguru
Encoding: 2576 2576 59
Width: 619
GlyphClass: 2
Flags: W
AnchorPoint: "GRAnchor0" 536 480 basechar 0
LayerCount: 2
Fore
SplineSet
479 500 m 21,0,-1
 479 330 l 1,1,2
 433 313 433 313 400.5 298 c 128,-1,3
 368 283 368 283 349 270 c 1,4,5
 349 305 349 305 339 350 c 128,-1,6
 329 395 329 395 309 450 c 1,7,8
 272 437 272 437 234 413 c 128,-1,9
 196 389 196 389 159 355 c 1,10,-1
 159 370 l 1,11,12
 144 428 144 428 110.5 464 c 128,-1,13
 77 500 77 500 39 500 c 2,14,-1
 -10 500 l 1,15,-1
 -10 450 l 1,16,-1
 39 450 l 2,17,18
 68 450 68 450 88.5 410.5 c 128,-1,19
 109 371 109 371 109 315 c 1,20,21
 73 285 73 285 53.5 253.5 c 128,-1,22
 34 222 34 222 34 195 c 0,23,24
 34 174 34 174 47 159.5 c 128,-1,25
 60 145 60 145 79 145 c 0,26,27
 112 145 112 145 135.5 189 c 128,-1,28
 159 233 159 233 159 295 c 1,29,30
 182 318 182 318 212 339 c 128,-1,31
 242 360 242 360 279 380 c 1,32,33
 289 353 289 353 294 315 c 128,-1,34
 299 277 299 277 299 230 c 1,35,36
 264 205 264 205 244 173.5 c 128,-1,37
 224 142 224 142 224 110 c 0,38,39
 224 91 224 91 238.5 78 c 128,-1,40
 253 65 253 65 274 65 c 0,41,42
 305 65 305 65 327 107.5 c 128,-1,43
 349 150 349 150 349 210 c 1,44,45
 379 236 379 236 412 253.5 c 128,-1,46
 445 271 445 271 479 280 c 1,47,-1
 479 0 l 1,48,-1
 529 0 l 1,49,-1
 529 450 l 1,50,-1
 629 450 l 1,51,-1
 629 500 l 1,52,-1
 535.798 500 l 5,53,54
 507.782 622.382 507.782 622.382 443.979 726.479 c 4,55,56
 388.275 815.478 388.275 815.478 318.059 824.091 c 4,57,58
 248 832 248 832 247.33 795.314 c 4,59,60
 246.298 783.227 246.298 783.227 255.478 773.552 c 4,61,62
 263.625 764.965 263.625 764.965 278.188 764.965 c 4,63,64
 280.961 764.965 280.961 764.965 287.895 765.658 c 132,-1,65
 294.829 766.352 294.829 766.352 302.63 767.045 c 132,-1,66
 310.431 767.738 310.431 767.738 317.712 767.932 c 132,-1,67
 324.993 768.125 324.993 768.125 328.46 768.125 c 4,68,69
 380.894 768.125 380.894 768.125 430.126 685.608 c 4,70,71
 449.541 653.364 449.541 653.364 464.521 626.682 c 132,-1,72
 479.5 600 479.5 600 498 550 c 5,73,74
 422.335 661.972 422.335 661.972 319.976 679.98 c 4,75,76
 254 691 254 691 253.061 646.043 c 4,77,78
 253.061 634.948 253.061 634.948 259.475 628.188 c 132,-1,79
 265.889 621.427 265.889 621.427 273.17 621.427 c 4,80,81
 275.597 621.427 275.597 621.427 283.051 622.641 c 132,-1,82
 290.505 623.854 290.505 623.854 299.866 625.414 c 132,-1,83
 309.228 626.975 309.228 626.975 318.762 628.361 c 132,-1,84
 328.296 629.748 328.296 629.748 334.884 629.748 c 4,85,86
 380.996 629.748 380.996 629.748 412.2 608.599 c 4,87,88
 428.985 597.604 428.985 597.604 448.35 574.906 c 4,89,90
 488 526 488 526 494.929 500 c 13,91,-1
 479 500 l 21,0,-1
EndSplineSet
EndChar

StartChar: ooguru
Encoding: 2579 2579 60
Width: 533
GlyphClass: 2
Flags: W
AnchorPoint: "GRAnchor0" 480 480 basechar 0
LayerCount: 2
Fore
SplineSet
47 500 m 1,0,1
 47 595 47 595 120 662.5 c 128,-1,2
 193 730 193 730 297 730 c 2,3,-1
 495 730 l 1,4,-1
 495 680 l 1,5,-1
 297 680 l 2,6,7
 214 680 214 680 155.5 627.5 c 128,-1,8
 97 575 97 575 97 500 c 1,9,-1
 543 500 l 1,10,-1
 543 450 l 1,11,-1
 497 450 l 1,12,-1
 497 430 l 2,13,14
 497 363 497 363 465.5 311 c 128,-1,15
 434 259 434 259 382 240 c 1,16,17
 408 222 408 222 422.5 194 c 128,-1,18
 437 166 437 166 437 135 c 0,19,20
 437 79 437 79 396 39.5 c 128,-1,21
 355 0 355 0 297 0 c 0,22,23
 193 0 193 0 120 132 c 128,-1,24
 47 264 47 264 47 450 c 1,25,-1
 -10 450 l 1,26,-1
 -10 500 l 1,27,-1
 47 500 l 1,0,1
101 365 m 128,-1,29
 105 322 105 322 112 280 c 1,30,-1
 297 280 l 2,31,32
 359 280 359 280 403 324 c 128,-1,33
 447 368 447 368 447 430 c 2,34,-1
 447 450 l 1,35,-1
 97 450 l 1,36,28
 97 408 97 408 101 365 c 128,-1,29
193.5 100 m 128,-1,38
 242 50 242 50 297 50 c 0,39,40
 334 50 334 50 360.5 75 c 128,-1,41
 387 100 387 100 387 135 c 0,42,43
 387 174 387 174 355 202 c 128,-1,44
 323 230 323 230 277 230 c 2,45,-1
 124 230 l 1,46,37
 145 150 145 150 193.5 100 c 128,-1,38
EndSplineSet
Validated: 1
EndChar

StartChar: auguru
Encoding: 2580 2580 61
Width: 619
GlyphClass: 2
Flags: W
AnchorPoint: "GRAnchor0" 640 480 basechar 0
LayerCount: 2
Fore
SplineSet
416.5 636 m 0,0,1
 419 646 419 646 424 655 c 1,2,-1
 374 655 l 2,3,4
 346 655 346 655 323.5 680.5 c 0,5,6
 301 706 301 706 294 745 c 1,7,-1
 308 750 l 1,8,9
 317 730 317 730 335 717.5 c 0,10,11
 353 705 353 705 374 705 c 2,12,-1
 504 705 l 2,13,14
 537 705 537 705 560.5 678.5 c 0,15,16
 584 652 584 652 584 615 c 0,17,18
 584 583 584 583 567 559 c 0,19,20
 550 535 550 535 524 530 c 1,21,-1
 524 550 l 1,22,23
 538 555 538 555 546 567.5 c 0,24,25
 554 580 554 580 554 595 c 0,26,27
 554 620 554 620 539.5 637.5 c 0,28,29
 525 655 525 655 504 655 c 256,30,31
 483 655 483 655 468.5 637.5 c 0,32,33
 454 620 454 620 454 595 c 0,34,35
 454 580 454 580 462 567.5 c 0,36,37
 470 555 470 555 484 550 c 1,38,-1
 484 530 l 1,39,40
 454 535 454 535 434 559 c 0,41,42
 414 583 414 583 414 615 c 0,43,44
 414 626 414 626 416.5 636 c 0,0,1
EndSplineSet
Refer: 52 2565 S 1 0 0 1 0 0 2
EndChar

StartChar: kaguru
Encoding: 2581 2581 62
Width: 487
GlyphClass: 2
Flags: W
LayerCount: 2
Fore
SplineSet
497 500 m 1,0,-1
 497 450 l 1,1,-1
 416 450 l 1,2,3
 416 378 416 378 400.5 314.5 c 128,-1,4
 385 251 385 251 356 200 c 1,5,6
 385 158 385 158 400.5 107 c 128,-1,7
 416 56 416 56 416 0 c 1,8,-1
 366 0 l 1,9,10
 366 42 366 42 356 81.5 c 128,-1,11
 346 121 346 121 326 155 c 1,12,13
 298 122 298 122 259.5 100 c 128,-1,14
 221 78 221 78 176 70 c 1,15,16
 118 70 118 70 77 108 c 128,-1,17
 36 146 36 146 36 200 c 256,18,19
 36 254 36 254 77 292 c 128,-1,20
 118 330 118 330 176 330 c 0,21,22
 215 330 215 330 254.5 309 c 128,-1,23
 294 288 294 288 326 250 c 1,24,25
 346 284 346 284 356 335 c 128,-1,26
 366 386 366 386 366 450 c 1,27,-1
 -10 450 l 1,28,-1
 -10 500 l 1,29,-1
 497 500 l 1,0,-1
112.5 143.5 m 128,-1,31
 139 120 139 120 176 120 c 0,32,33
 214 120 214 120 248.5 143 c 128,-1,34
 283 166 283 166 306 205 c 1,35,36
 286 240 286 240 251 260 c 128,-1,37
 216 280 216 280 176 280 c 0,38,39
 139 280 139 280 112.5 256.5 c 128,-1,40
 86 233 86 233 86 200 c 256,41,30
 86 167 86 167 112.5 143.5 c 128,-1,31
EndSplineSet
Validated: 1
EndChar

StartChar: khaguru
Encoding: 2582 2582 63
Width: 477
GlyphClass: 2
Flags: W
LayerCount: 2
Fore
SplineSet
102 500 m 1,0,1
 119 463 119 463 128 425 c 128,-1,2
 137 387 137 387 137 350 c 1,3,-1
 337 350 l 1,4,-1
 337 500 l 1,5,-1
 487 500 l 1,6,-1
 487 450 l 1,7,-1
 387 450 l 1,8,-1
 387 0 l 1,9,-1
 337 0 l 1,10,-1
 337 110 l 1,11,12
 311 95 311 95 286 87.5 c 128,-1,13
 261 80 261 80 237 80 c 0,14,15
 189 80 189 80 136 117 c 128,-1,16
 83 154 83 154 37 220 c 1,17,18
 61 255 61 255 74 285.5 c 128,-1,19
 87 316 87 316 87 340 c 0,20,21
 87 373 87 373 82 401 c 128,-1,22
 77 429 77 429 67 450 c 1,23,-1
 -10 450 l 1,24,-1
 -10 500 l 1,25,-1
 102 500 l 1,0,1
164 154 m 128,-1,27
 201 130 201 130 237 130 c 0,28,29
 260 130 260 130 285.5 138.5 c 128,-1,30
 311 147 311 147 337 163 c 1,31,-1
 337 300 l 1,32,-1
 132 300 l 1,33,34
 129 280 129 280 120 260 c 128,-1,35
 111 240 111 240 97 220 c 1,36,26
 127 178 127 178 164 154 c 128,-1,27
EndSplineSet
Validated: 1
EndChar

StartChar: gaguru
Encoding: 2583 2583 64
Width: 556
GlyphClass: 2
Flags: W
LayerCount: 2
Fore
SplineSet
566 500 m 1,0,-1
 566 450 l 1,1,-1
 466 450 l 1,2,-1
 466 0 l 1,3,-1
 416 0 l 1,4,-1
 416 450 l 1,5,-1
 316 450 l 1,6,-1
 316 120 l 2,7,8
 316 79 316 79 288 49.5 c 128,-1,9
 260 20 260 20 221 20 c 0,10,11
 175 20 175 20 105.5 95.5 c 128,-1,12
 36 171 36 171 36 220 c 0,13,14
 36 266 36 266 65.5 298 c 128,-1,15
 95 330 95 330 136 330 c 2,16,-1
 266 330 l 1,17,-1
 266 450 l 1,18,-1
 -10 450 l 1,19,-1
 -10 500 l 1,20,-1
 566 500 l 1,0,-1
137 126.5 m 128,-1,22
 188 70 188 70 221 70 c 0,23,24
 240 70 240 70 253 84.5 c 128,-1,25
 266 99 266 99 266 120 c 2,26,-1
 266 280 l 1,27,-1
 136 280 l 2,28,29
 115 280 115 280 100.5 262.5 c 128,-1,30
 86 245 86 245 86 220 c 0,31,21
 86 183 86 183 137 126.5 c 128,-1,22
EndSplineSet
Validated: 1
EndChar

StartChar: ghaguru
Encoding: 2584 2584 65
Width: 586
GlyphClass: 2
Flags: W
LayerCount: 2
Fore
SplineSet
106 500 m 1,0,1
 126 466 126 466 136 428 c 128,-1,2
 146 390 146 390 146 350 c 0,3,4
 146 317 146 317 134.5 280 c 128,-1,5
 123 243 123 243 101 205 c 1,6,7
 127 174 127 174 152 157 c 128,-1,8
 177 140 177 140 196 140 c 0,9,10
 211 140 211 140 230 161.5 c 128,-1,11
 249 183 249 183 266 220 c 1,12,13
 251 261 251 261 243.5 296 c 128,-1,14
 236 331 236 331 236 360 c 0,15,16
 236 418 236 418 253.5 459 c 128,-1,17
 271 500 271 500 296 500 c 0,18,19
 317 500 317 500 331.5 459 c 128,-1,20
 346 418 346 418 346 360 c 0,21,22
 346 331 346 331 338.5 296 c 128,-1,23
 331 261 331 261 316 220 c 1,24,25
 327 180 327 180 343.5 155 c 128,-1,26
 360 130 360 130 376 130 c 256,27,28
 392 130 392 130 411 146 c 128,-1,29
 430 162 430 162 446 190 c 1,30,-1
 446 500 l 1,31,-1
 596 500 l 1,32,-1
 596 450 l 1,33,-1
 496 450 l 1,34,-1
 496 0 l 1,35,-1
 446 0 l 1,36,-1
 446 115 l 1,37,38
 432 98 432 98 413.5 89 c 128,-1,39
 395 80 395 80 376 80 c 0,40,41
 350 80 350 80 325.5 99 c 128,-1,42
 301 118 301 118 286 150 c 1,43,44
 270 122 270 122 246 106 c 128,-1,45
 222 90 222 90 196 90 c 0,46,47
 153 90 153 90 110 121 c 128,-1,48
 67 152 67 152 36 205 c 1,49,50
 65 247 65 247 80.5 284 c 128,-1,51
 96 321 96 321 96 350 c 0,52,53
 96 366 96 366 89.5 391 c 128,-1,54
 83 416 83 416 71 450 c 1,55,-1
 -10 450 l 1,56,-1
 -10 500 l 1,57,-1
 106 500 l 1,0,1
EndSplineSet
Validated: 1
EndChar

StartChar: ngaguru
Encoding: 2585 2585 66
Width: 487
GlyphClass: 2
Flags: W
LayerCount: 2
Fore
SplineSet
497 500 m 1,0,-1
 497 450 l 1,1,-1
 122 450 l 1,2,-1
 122 370 l 1,3,-1
 312 370 l 2,4,5
 362 370 362 370 397 338 c 128,-1,6
 432 306 432 306 432 260 c 0,7,8
 432 222 432 222 415 186.5 c 128,-1,9
 398 151 398 151 367 125 c 1,10,11
 384 105 384 105 400.5 73.5 c 128,-1,12
 417 42 417 42 432 0 c 1,13,-1
 382 0 l 1,14,15
 374 29 374 29 361.5 54.5 c 128,-1,16
 349 80 349 80 332 100 c 1,17,18
 303 76 303 76 262 63 c 128,-1,19
 221 50 221 50 172 50 c 0,20,21
 122 50 122 50 87 82 c 128,-1,22
 52 114 52 114 52 160 c 256,23,24
 52 206 52 206 87 238 c 128,-1,25
 122 270 122 270 172 270 c 0,26,27
 224 270 224 270 269.5 243 c 128,-1,28
 315 216 315 216 342 170 c 1,29,30
 361 193 361 193 371.5 216 c 128,-1,31
 382 239 382 239 382 260 c 0,32,33
 382 285 382 285 361.5 302.5 c 128,-1,34
 341 320 341 320 312 320 c 2,35,-1
 72 320 l 1,36,-1
 72 450 l 1,37,-1
 -10 450 l 1,38,-1
 -10 500 l 1,39,-1
 497 500 l 1,0,-1
122.5 117.5 m 128,-1,41
 143 100 143 100 172 100 c 0,42,43
 217 100 217 100 253 110.5 c 128,-1,44
 289 121 289 121 312 140 c 1,45,46
 291 177 291 177 253.5 198.5 c 128,-1,47
 216 220 216 220 172 220 c 0,48,49
 143 220 143 220 122.5 202.5 c 128,-1,50
 102 185 102 185 102 160 c 256,51,40
 102 135 102 135 122.5 117.5 c 128,-1,41
EndSplineSet
Validated: 1
EndChar

StartChar: caguru
Encoding: 2586 2586 67
Width: 494
GlyphClass: 2
Flags: W
LayerCount: 2
Fore
SplineSet
504 500 m 1,0,-1
 504 450 l 1,1,-1
 410 450 l 1,2,-1
 410 120 l 2,3,4
 410 70 410 70 380.5 35 c 128,-1,5
 351 0 351 0 310 0 c 0,6,7
 242 0 242 0 166 79.5 c 128,-1,8
 90 159 90 159 90 230 c 1,9,-1
 55 230 l 2,10,11
 41 230 41 230 30.5 237.5 c 128,-1,12
 20 245 20 245 20 255 c 0,13,14
 20 279 20 279 54 314.5 c 128,-1,15
 88 350 88 350 110 350 c 0,16,17
 122 350 122 350 131 341 c 128,-1,18
 140 332 140 332 140 320 c 2,19,-1
 140 280 l 1,20,-1
 360 280 l 1,21,-1
 360 450 l 1,22,-1
 -10 450 l 1,23,-1
 -10 500 l 1,24,-1
 504 500 l 1,0,-1
360 230 m 1,25,-1
 140 230 l 1,26,27
 140 174 140 174 198.5 112 c 128,-1,28
 257 50 257 50 310 50 c 0,29,30
 331 50 331 50 345.5 70.5 c 128,-1,31
 360 91 360 91 360 120 c 2,32,-1
 360 230 l 1,25,-1
EndSplineSet
Validated: 1
EndChar

StartChar: chaguru
Encoding: 2587 2587 68
Width: 519
GlyphClass: 2
Flags: W
LayerCount: 2
Fore
SplineSet
529 500 m 1,0,-1
 529 450 l 1,1,-1
 457 450 l 1,2,-1
 457 300 l 1,3,-1
 167 300 l 2,4,5
 150 300 150 300 138.5 288.5 c 128,-1,6
 127 277 127 277 127 260 c 256,7,8
 127 243 127 243 138.5 231.5 c 128,-1,9
 150 220 150 220 167 220 c 2,10,-1
 347 220 l 2,11,12
 393 220 393 220 425 188 c 128,-1,13
 457 156 457 156 457 110 c 256,14,15
 457 64 457 64 425 32 c 128,-1,16
 393 0 393 0 347 0 c 2,17,-1
 157 0 l 2,18,19
 111 0 111 0 79 32 c 128,-1,20
 47 64 47 64 47 110 c 0,21,22
 47 138 47 138 63 163 c 128,-1,23
 79 188 79 188 107 204 c 1,24,25
 93 216 93 216 85 230.5 c 128,-1,26
 77 245 77 245 77 260 c 0,27,28
 77 297 77 297 103.5 323.5 c 128,-1,29
 130 350 130 350 167 350 c 2,30,-1
 407 350 l 1,31,-1
 407 450 l 1,32,-1
 -10 450 l 1,33,-1
 -10 500 l 1,34,-1
 529 500 l 1,0,-1
114.5 67.5 m 128,-1,36
 132 50 132 50 157 50 c 2,37,-1
 227 50 l 1,38,-1
 227 170 l 1,39,-1
 157 170 l 2,40,41
 132 170 132 170 114.5 152.5 c 128,-1,42
 97 135 97 135 97 110 c 256,43,35
 97 85 97 85 114.5 67.5 c 128,-1,36
389.5 152.5 m 128,-1,45
 372 170 372 170 347 170 c 2,46,-1
 277 170 l 1,47,-1
 277 50 l 1,48,-1
 347 50 l 2,49,50
 372 50 372 50 389.5 67.5 c 128,-1,51
 407 85 407 85 407 110 c 256,52,44
 407 135 407 135 389.5 152.5 c 128,-1,45
EndSplineSet
Validated: 1
EndChar

StartChar: jaguru
Encoding: 2588 2588 69
Width: 483
GlyphClass: 2
Flags: W
LayerCount: 2
Fore
SplineSet
493 500 m 1,0,-1
 493 450 l 1,1,-1
 393 450 l 1,2,-1
 393 0 l 1,3,-1
 343 0 l 1,4,-1
 343 190 l 1,5,-1
 153 190 l 1,6,-1
 153 0 l 1,7,-1
 103 0 l 1,8,-1
 103 190 l 1,9,-1
 48 190 l 2,10,11
 38 190 38 190 30.5 197.5 c 128,-1,12
 23 205 23 205 23 215 c 0,13,14
 23 241 23 241 60.5 280.5 c 128,-1,15
 98 320 98 320 123 320 c 0,16,17
 135 320 135 320 144 311 c 128,-1,18
 153 302 153 302 153 290 c 2,19,-1
 153 240 l 1,20,-1
 343 240 l 1,21,-1
 343 450 l 1,22,-1
 -10 450 l 1,23,-1
 -10 500 l 1,24,-1
 493 500 l 1,0,-1
EndSplineSet
Validated: 1
EndChar

StartChar: jhaguru
Encoding: 2589 2589 70
Width: 439
GlyphClass: 2
Flags: W
LayerCount: 2
Fore
SplineSet
449 500 m 1,0,-1
 449 450 l 1,1,-1
 382 450 l 1,2,3
 382 390 382 390 363 344.5 c 128,-1,4
 344 299 344 299 312 280 c 1,5,6
 344 269 344 269 363 245.5 c 128,-1,7
 382 222 382 222 382 195 c 0,8,9
 382 143 382 143 341.5 104 c 128,-1,10
 301 65 301 65 242 60 c 1,11,-1
 302 0 l 1,12,-1
 237 0 l 1,13,-1
 172 60 l 1,14,-1
 132 60 l 2,15,16
 99 60 99 60 75.5 76 c 128,-1,17
 52 92 52 92 52 115 c 0,18,19
 52 134 52 134 65 147 c 128,-1,20
 78 160 78 160 97 160 c 0,21,22
 119 160 119 160 143.5 147 c 128,-1,23
 168 134 168 134 192 110 c 1,24,25
 250 110 250 110 291 135 c 128,-1,26
 332 160 332 160 332 195 c 0,27,28
 332 219 332 219 295.5 236 c 128,-1,29
 259 253 259 253 207 253 c 0,30,31
 168 253 168 253 133.5 249 c 128,-1,32
 99 245 99 245 69 237 c 1,33,-1
 42 280 l 1,34,35
 74 289 74 289 98 294 c 128,-1,36
 122 299 122 299 137 300 c 1,37,38
 105 320 105 320 80.5 359 c 128,-1,39
 56 398 56 398 42 450 c 1,40,-1
 -10 450 l 1,41,-1
 -10 500 l 1,42,-1
 449 500 l 1,0,-1
145.5 342.5 m 128,-1,44
 188 300 188 300 242 300 c 0,45,46
 279 300 279 300 305.5 344 c 128,-1,47
 332 388 332 388 332 450 c 1,48,-1
 92 450 l 1,49,43
 103 385 103 385 145.5 342.5 c 128,-1,44
EndSplineSet
Validated: 1
EndChar

StartChar: nyaguru
Encoding: 2590 2590 71
Width: 483
GlyphClass: 2
Flags: W
LayerCount: 2
Fore
SplineSet
493 500 m 1,0,-1
 493 450 l 1,1,-1
 433 450 l 1,2,-1
 433 300 l 1,3,-1
 143 300 l 2,4,5
 122 300 122 300 107.5 285.5 c 128,-1,6
 93 271 93 271 93 250 c 256,7,8
 93 229 93 229 107.5 214.5 c 128,-1,9
 122 200 122 200 143 200 c 2,10,-1
 433 200 l 1,11,-1
 433 150 l 1,12,-1
 223 150 l 1,13,14
 223 109 223 109 252.5 79.5 c 128,-1,15
 282 50 282 50 323 50 c 2,16,-1
 433 50 l 1,17,-1
 433 0 l 1,18,-1
 323 0 l 2,19,20
 261 0 261 0 217 44 c 128,-1,21
 173 88 173 88 173 150 c 1,22,-1
 143 150 l 2,23,24
 102 150 102 150 72.5 179.5 c 128,-1,25
 43 209 43 209 43 250 c 0,26,27
 43 287 43 287 65.5 315.5 c 128,-1,28
 88 344 88 344 123 350 c 1,29,30
 95 366 95 366 77 392 c 128,-1,31
 59 418 59 418 53 450 c 1,32,-1
 -10 450 l 1,33,-1
 -10 500 l 1,34,-1
 493 500 l 1,0,-1
103 450 m 1,35,36
 112 415 112 415 141.5 388 c 128,-1,37
 171 361 171 361 213 350 c 1,38,-1
 383 350 l 1,39,-1
 383 450 l 1,40,-1
 103 450 l 1,35,36
EndSplineSet
Validated: 1
EndChar

StartChar: ttaguru
Encoding: 2591 2591 72
Width: 438
GlyphClass: 2
Flags: W
AnchorPoint: "GRAnchor2" 213 -2 basechar 0
LayerCount: 2
Fore
SplineSet
448 500 m 1,0,-1
 448 450 l 1,1,-1
 379 450 l 1,2,-1
 379 290 l 1,3,4
 276 290 276 290 196.5 256.5 c 128,-1,5
 117 223 117 223 84 165 c 1,6,7
 115 112 115 112 159 81 c 128,-1,8
 203 50 203 50 249 50 c 0,9,10
 287 50 287 50 323.5 65.5 c 128,-1,11
 360 81 360 81 389 110 c 1,12,-1
 404 95 l 1,13,14
 366 50 366 50 325.5 25 c 128,-1,15
 285 0 285 0 249 0 c 0,16,17
 192 0 192 0 132 44 c 128,-1,18
 72 88 72 88 24 165 c 1,19,20
 70 244 70 244 151.5 289.5 c 128,-1,21
 233 335 233 335 329 335 c 1,22,-1
 329 450 l 1,23,-1
 -10 450 l 1,24,-1
 -10 500 l 1,25,-1
 448 500 l 1,0,-1
EndSplineSet
Validated: 1
EndChar

StartChar: tthaguru
Encoding: 2592 2592 73
Width: 480
GlyphClass: 2
Flags: W
AnchorPoint: "GRAnchor2" 254 -2 basechar 0
AnchorPoint: "GRAnchor1" 238 474 basechar 0
LayerCount: 2
Fore
SplineSet
490 500 m 1,0,-1
 490 450 l 1,1,-1
 265 450 l 1,2,-1
 265 330 l 1,3,4
 347 292 347 292 396 240.5 c 128,-1,5
 445 189 445 189 445 140 c 0,6,7
 445 82 445 82 385 41 c 128,-1,8
 325 0 325 0 240 0 c 256,9,10
 155 0 155 0 95 41 c 128,-1,11
 35 82 35 82 35 140 c 0,12,13
 35 189 35 189 84 240.5 c 128,-1,14
 133 292 133 292 215 330 c 1,15,-1
 215 450 l 1,16,-1
 -10 450 l 1,17,-1
 -10 500 l 1,18,-1
 490 500 l 1,0,-1
130.5 76.5 m 128,-1,20
 176 50 176 50 240 50 c 256,21,22
 304 50 304 50 349.5 76.5 c 128,-1,23
 395 103 395 103 395 140 c 0,24,25
 395 175 395 175 336.5 227.5 c 128,-1,26
 278 280 278 280 240 280 c 256,27,28
 202 280 202 280 143.5 227.5 c 128,-1,29
 85 175 85 175 85 140 c 0,30,19
 85 103 85 103 130.5 76.5 c 128,-1,20
EndSplineSet
Validated: 1
EndChar

StartChar: ddaguru
Encoding: 2593 2593 74
Width: 477
GlyphClass: 2
Flags: W
LayerCount: 2
Fore
SplineSet
487 500 m 1,0,-1
 487 450 l 1,1,-1
 396 450 l 1,2,3
 401 441 401 441 403.5 431 c 128,-1,4
 406 421 406 421 406 410 c 0,5,6
 406 375 406 375 390 345.5 c 128,-1,7
 374 316 374 316 346 300 c 1,8,9
 378 281 378 281 397 246.5 c 128,-1,10
 416 212 416 212 416 170 c 0,11,12
 416 100 416 100 345.5 50 c 128,-1,13
 275 0 275 0 176 0 c 0,14,15
 118 0 118 0 77 32 c 128,-1,16
 36 64 36 64 36 110 c 0,17,18
 36 147 36 147 71 173.5 c 128,-1,19
 106 200 106 200 156 200 c 0,20,21
 197 200 197 200 243 172.5 c 128,-1,22
 289 145 289 145 331 95 c 1,23,24
 348 112 348 112 357 131.5 c 128,-1,25
 366 151 366 151 366 170 c 0,26,27
 366 198 366 198 347 224.5 c 128,-1,28
 328 251 328 251 296 270 c 1,29,30
 277 265 277 265 249.5 262.5 c 128,-1,31
 222 260 222 260 186 260 c 0,32,33
 136 260 136 260 101 274.5 c 128,-1,34
 66 289 66 289 66 310 c 0,35,36
 66 327 66 327 92.5 338.5 c 128,-1,37
 119 350 119 350 156 350 c 0,38,39
 184 350 184 350 215.5 343.5 c 128,-1,40
 247 337 247 337 281 325 c 1,41,42
 315 341 315 341 335.5 364 c 128,-1,43
 356 387 356 387 356 410 c 0,44,45
 356 421 356 421 352 431 c 128,-1,46
 348 441 348 441 341 450 c 1,47,-1
 -10 450 l 1,48,-1
 -10 500 l 1,49,-1
 487 500 l 1,0,-1
112.5 66 m 128,-1,51
 139 50 139 50 176 50 c 0,52,53
 206 50 206 50 237.5 57.5 c 128,-1,54
 269 65 269 65 301 80 c 1,55,56
 261 114 261 114 223.5 132 c 128,-1,57
 186 150 186 150 156 150 c 0,58,59
 127 150 127 150 106.5 137 c 128,-1,60
 86 124 86 124 86 105 c 0,61,50
 86 82 86 82 112.5 66 c 128,-1,51
EndSplineSet
Validated: 1
EndChar

StartChar: ddhaguru
Encoding: 2594 2594 75
Width: 510
GlyphClass: 2
Flags: W
LayerCount: 2
Fore
SplineSet
520 500 m 1,0,-1
 520 450 l 1,1,-1
 441 450 l 1,2,-1
 441 260 l 1,3,-1
 141 260 l 1,4,5
 141 214 141 214 160.5 170 c 128,-1,6
 180 126 180 126 216 90 c 1,7,8
 248 128 248 128 290 149 c 128,-1,9
 332 170 332 170 376 170 c 0,10,11
 407 170 407 170 429 149.5 c 128,-1,12
 451 129 451 129 451 100 c 0,13,14
 451 59 451 59 416 29.5 c 128,-1,15
 381 0 381 0 331 0 c 0,16,17
 232 0 232 0 161.5 76 c 128,-1,18
 91 152 91 152 91 260 c 1,19,-1
 51 260 l 2,20,21
 39 260 39 260 30 269 c 128,-1,22
 21 278 21 278 21 290 c 0,23,24
 21 312 21 312 55 346 c 128,-1,25
 89 380 89 380 111 380 c 0,26,27
 123 380 123 380 132 369.5 c 128,-1,28
 141 359 141 359 141 345 c 2,29,-1
 141 310 l 1,30,-1
 391 310 l 1,31,-1
 391 450 l 1,32,-1
 -10 450 l 1,33,-1
 -10 500 l 1,34,-1
 520 500 l 1,0,-1
295 47.5 m 128,-1,36
 318 40 318 40 341 40 c 0,37,38
 370 40 370 40 390.5 56 c 128,-1,39
 411 72 411 72 411 95 c 0,40,41
 411 109 411 109 396.5 119.5 c 128,-1,42
 382 130 382 130 361 130 c 0,43,44
 330 130 330 130 301 114 c 128,-1,45
 272 98 272 98 251 70 c 1,46,35
 272 55 272 55 295 47.5 c 128,-1,36
EndSplineSet
Validated: 1
EndChar

StartChar: nnaguru
Encoding: 2595 2595 76
Width: 508
GlyphClass: 2
Flags: W
LayerCount: 2
Fore
SplineSet
518 500 m 1,0,-1
 518 450 l 1,1,-1
 265 450 l 1,2,3
 304 411 304 411 356 379.5 c 128,-1,4
 408 348 408 348 470 325 c 1,5,-1
 470 270 l 1,6,7
 443 280 443 280 414.5 293.5 c 128,-1,8
 386 307 386 307 355 325 c 1,9,10
 343 304 343 304 336.5 272 c 128,-1,11
 330 240 330 240 330 200 c 1,12,13
 301 229 301 229 272.5 244.5 c 128,-1,14
 244 260 244 260 220 260 c 0,15,16
 190 260 190 260 154.5 237.5 c 128,-1,17
 119 215 119 215 85 175 c 1,18,19
 135 116 135 116 191.5 83 c 128,-1,20
 248 50 248 50 300 50 c 0,21,22
 342 50 342 50 386 68 c 128,-1,23
 430 86 430 86 470 120 c 1,24,-1
 485 105 l 1,25,26
 435 55 435 55 381.5 27.5 c 128,-1,27
 328 0 328 0 280 0 c 0,28,29
 226 0 226 0 158 46 c 128,-1,30
 90 92 90 92 20 175 c 1,31,32
 74 239 74 239 124 274.5 c 128,-1,33
 174 310 174 310 210 310 c 0,34,35
 235 310 235 310 257 303.5 c 128,-1,36
 279 297 279 297 295 285 c 1,37,38
 295 304 295 304 299 320.5 c 128,-1,39
 303 337 303 337 310 350 c 1,40,41
 296 358 296 358 258.5 391 c 128,-1,42
 221 424 221 424 190 450 c 1,43,-1
 -10 450 l 1,44,-1
 -10 500 l 1,45,-1
 518 500 l 1,0,-1
EndSplineSet
Validated: 1
EndChar

StartChar: taguru
Encoding: 2596 2596 77
Width: 475
GlyphClass: 2
Flags: W
LayerCount: 2
Fore
SplineSet
485 500 m 1,0,-1
 485 450 l 1,1,-1
 396 450 l 1,2,3
 407 386 407 386 390.5 331.5 c 128,-1,4
 374 277 374 277 334 250 c 1,5,6
 369 234 369 234 390 200 c 128,-1,7
 411 166 411 166 411 125 c 0,8,9
 411 73 411 73 364 36.5 c 128,-1,10
 317 0 317 0 251 0 c 0,11,12
 189 0 189 0 127.5 33 c 128,-1,13
 66 66 66 66 16 125 c 1,14,-1
 31 140 l 1,15,16
 78 97 78 97 132 73.5 c 128,-1,17
 186 50 186 50 241 50 c 0,18,19
 291 50 291 50 326 72 c 128,-1,20
 361 94 361 94 361 125 c 0,21,22
 361 155 361 155 339 181 c 128,-1,23
 317 207 317 207 281 220 c 1,24,25
 254 210 254 210 226 205 c 128,-1,26
 198 200 198 200 171 200 c 0,27,28
 130 200 130 200 100.5 214.5 c 128,-1,29
 71 229 71 229 71 250 c 256,30,31
 71 271 71 271 100.5 285.5 c 128,-1,32
 130 300 130 300 171 300 c 0,33,34
 185 300 185 300 212.5 292.5 c 128,-1,35
 240 285 240 285 281 270 c 1,36,37
 328 303 328 303 345 354 c 128,-1,38
 362 405 362 405 341 450 c 1,39,-1
 -10 450 l 1,40,-1
 -10 500 l 1,41,-1
 485 500 l 1,0,-1
EndSplineSet
Validated: 33
EndChar

StartChar: thaguru
Encoding: 2597 2597 78
Width: 464
GlyphClass: 2
Flags: W
LayerCount: 2
Fore
SplineSet
474 500 m 1,0,-1
 474 450 l 1,1,-1
 374 450 l 1,2,-1
 374 0 l 1,3,-1
 324 0 l 1,4,-1
 324 110 l 1,5,6
 303 95 303 95 280 87.5 c 128,-1,7
 257 80 257 80 234 80 c 0,8,9
 186 80 186 80 133 117 c 128,-1,10
 80 154 80 154 34 220 c 1,11,12
 63 252 63 252 78.5 288.5 c 128,-1,13
 94 325 94 325 94 360 c 0,14,15
 94 381 94 381 83.5 404 c 128,-1,16
 73 427 73 427 54 450 c 1,17,-1
 -10 450 l 1,18,-1
 -10 500 l 1,19,-1
 474 500 l 1,0,-1
138.5 387.5 m 128,-1,21
 145 354 145 354 139 320 c 1,22,-1
 324 320 l 1,23,-1
 324 450 l 1,24,-1
 114 450 l 1,25,20
 132 421 132 421 138.5 387.5 c 128,-1,21
118.5 243 m 128,-1,27
 111 228 111 228 99 210 c 1,28,29
 131 172 131 172 166.5 151 c 128,-1,30
 202 130 202 130 234 130 c 0,31,32
 255 130 255 130 278 140.5 c 128,-1,33
 301 151 301 151 324 170 c 1,34,-1
 324 270 l 1,35,-1
 129 270 l 1,36,26
 126 258 126 258 118.5 243 c 128,-1,27
EndSplineSet
Validated: 33
EndChar

StartChar: daguru
Encoding: 2598 2598 79
Width: 509
GlyphClass: 2
Flags: W
LayerCount: 2
Fore
SplineSet
519 500 m 1,0,-1
 519 450 l 1,1,-1
 440 450 l 1,2,-1
 440 220 l 1,3,-1
 140 220 l 1,4,5
 140 150 140 150 187 100 c 128,-1,6
 234 50 234 50 300 50 c 0,7,8
 341 50 341 50 378.5 63 c 128,-1,9
 416 76 416 76 445 100 c 1,10,-1
 465 85 l 1,11,12
 431 45 431 45 388 22.5 c 128,-1,13
 345 0 345 0 300 0 c 0,14,15
 213 0 213 0 151.5 64.5 c 128,-1,16
 90 129 90 129 90 220 c 1,17,-1
 55 220 l 2,18,19
 41 220 41 220 30.5 226 c 128,-1,20
 20 232 20 232 20 240 c 0,21,22
 20 265 20 265 55.5 302.5 c 128,-1,23
 91 340 91 340 115 340 c 0,24,25
 125 340 125 340 132.5 331 c 128,-1,26
 140 322 140 322 140 310 c 2,27,-1
 140 270 l 1,28,-1
 390 270 l 1,29,-1
 390 450 l 1,30,-1
 -10 450 l 1,31,-1
 -10 500 l 1,32,-1
 519 500 l 1,0,-1
EndSplineSet
Validated: 1
EndChar

StartChar: dhaguru
Encoding: 2599 2599 80
Width: 464
GlyphClass: 2
Flags: W
LayerCount: 2
Fore
SplineSet
-10 500 m 1,0,-1
 474 500 l 1,1,-1
 474 450 l 1,2,-1
 374 450 l 1,3,-1
 374 0 l 1,4,-1
 324 0 l 1,5,-1
 324 110 l 1,6,7
 303 95 303 95 280 87.5 c 128,-1,8
 257 80 257 80 234 80 c 0,9,10
 186 80 186 80 133 117 c 128,-1,11
 80 154 80 154 34 220 c 1,12,13
 63 252 63 252 78.5 288.5 c 128,-1,14
 94 325 94 325 94 360 c 0,15,16
 94 381 94 381 83.5 404 c 128,-1,17
 73 427 73 427 54 450 c 1,18,-1
 -10 450 l 1,19,-1
 -10 500 l 1,0,-1
135 400 m 128,-1,21
 144 377 144 377 144 360 c 0,22,23
 144 320 144 320 132.5 282 c 128,-1,24
 121 244 121 244 99 210 c 1,25,26
 131 172 131 172 166.5 151 c 128,-1,27
 202 130 202 130 234 130 c 0,28,29
 255 130 255 130 278 140.5 c 128,-1,30
 301 151 301 151 324 170 c 1,31,-1
 324 450 l 1,32,-1
 109 450 l 1,33,20
 126 423 126 423 135 400 c 128,-1,21
EndSplineSet
Validated: 1
EndChar

StartChar: naguru
Encoding: 2600 2600 81
Width: 470
GlyphClass: 2
Flags: W
AnchorPoint: "GRAnchor2" 247 -1 basechar 0
AnchorPoint: "GRAnchor1" 232 474 basechar 0
LayerCount: 2
Fore
SplineSet
480 500 m 1,0,-1
 480 450 l 1,1,-1
 260 450 l 1,2,-1
 260 340 l 1,3,4
 338 304 338 304 384 249.5 c 128,-1,5
 430 195 430 195 430 140 c 0,6,7
 430 82 430 82 389 41 c 128,-1,8
 348 0 348 0 290 0 c 1,9,-1
 290 50 l 1,10,11
 327 50 327 50 353.5 76.5 c 128,-1,12
 380 103 380 103 380 140 c 256,13,14
 380 177 380 177 325.5 233.5 c 128,-1,15
 271 290 271 290 235 290 c 256,16,17
 199 290 199 290 144.5 233.5 c 128,-1,18
 90 177 90 177 90 140 c 256,19,20
 90 103 90 103 116.5 76.5 c 128,-1,21
 143 50 143 50 180 50 c 1,22,-1
 180 0 l 1,23,24
 122 0 122 0 81 41 c 128,-1,25
 40 82 40 82 40 140 c 0,26,27
 40 195 40 195 86 249.5 c 128,-1,28
 132 304 132 304 210 340 c 1,29,-1
 210 450 l 1,30,-1
 -10 450 l 1,31,-1
 -10 500 l 1,32,-1
 480 500 l 1,0,-1
EndSplineSet
Validated: 1
EndChar

StartChar: paguru
Encoding: 2602 2602 82
Width: 464
GlyphClass: 2
Flags: W
LayerCount: 2
Fore
SplineSet
-10 500 m 1,0,-1
 79 500 l 1,1,2
 113 466 113 466 131 428.5 c 128,-1,3
 149 391 149 391 149 355 c 0,4,5
 149 322 149 322 136 285 c 128,-1,6
 123 248 123 248 99 210 c 1,7,8
 131 172 131 172 166.5 151 c 128,-1,9
 202 130 202 130 234 130 c 0,10,11
 255 130 255 130 278 140.5 c 128,-1,12
 301 151 301 151 324 170 c 1,13,-1
 324 500 l 1,14,-1
 474 500 l 1,15,-1
 474 450 l 1,16,-1
 374 450 l 1,17,-1
 374 0 l 1,18,-1
 324 0 l 1,19,-1
 324 110 l 1,20,21
 303 95 303 95 280 87.5 c 128,-1,22
 257 80 257 80 234 80 c 0,23,24
 186 80 186 80 133 117 c 128,-1,25
 80 154 80 154 34 220 c 1,26,27
 63 252 63 252 78.5 288.5 c 128,-1,28
 94 325 94 325 94 360 c 0,29,30
 94 381 94 381 83.5 404 c 128,-1,31
 73 427 73 427 54 450 c 1,32,-1
 -10 450 l 1,33,-1
 -10 500 l 1,0,-1
EndSplineSet
Validated: 1
EndChar

StartChar: phaguru
Encoding: 2603 2603 83
Width: 448
GlyphClass: 2
Flags: W
LayerCount: 2
Fore
SplineSet
458 500 m 1,0,-1
 458 450 l 1,1,-1
 380 450 l 1,2,-1
 380 300 l 1,3,-1
 170 300 l 2,4,5
 137 300 137 300 113.5 278 c 128,-1,6
 90 256 90 256 90 225 c 0,7,8
 90 206 90 206 96.5 186.5 c 128,-1,9
 103 167 103 167 115 150 c 1,10,11
 143 183 143 183 183.5 201.5 c 128,-1,12
 224 220 224 220 270 220 c 0,13,14
 320 220 320 220 355 186.5 c 128,-1,15
 390 153 390 153 390 105 c 0,16,17
 390 62 390 62 355 31 c 128,-1,18
 320 0 320 0 270 0 c 0,19,20
 194 0 194 0 117 75.5 c 128,-1,21
 40 151 40 151 40 225 c 0,22,23
 40 277 40 277 78 313.5 c 128,-1,24
 116 350 116 350 170 350 c 2,25,-1
 330 350 l 1,26,-1
 330 450 l 1,27,-1
 -10 450 l 1,28,-1
 -10 500 l 1,29,-1
 458 500 l 1,0,-1
204 67 m 128,-1,31
 237 50 237 50 270 50 c 0,32,33
 299 50 299 50 319.5 66 c 128,-1,34
 340 82 340 82 340 105 c 0,35,36
 340 132 340 132 318 151 c 128,-1,37
 296 170 296 170 265 170 c 0,38,39
 231 170 231 170 200 155.5 c 128,-1,40
 169 141 169 141 145 115 c 1,41,30
 171 84 171 84 204 67 c 128,-1,31
EndSplineSet
Validated: 1
EndChar

StartChar: baguru
Encoding: 2604 2604 84
Width: 485
GlyphClass: 2
Flags: W
LayerCount: 2
Fore
SplineSet
495 500 m 1,0,-1
 495 450 l 1,1,-1
 395 450 l 1,2,-1
 395 0 l 1,3,-1
 345 0 l 1,4,-1
 345 105 l 1,5,6
 315 88 315 88 286 79 c 128,-1,7
 257 70 257 70 230 70 c 0,8,9
 186 70 186 70 137.5 99 c 128,-1,10
 89 128 89 128 45 180 c 1,11,12
 70 215 70 215 95.5 239.5 c 128,-1,13
 121 264 121 264 145 275 c 1,14,15
 103 299 103 299 74 345 c 128,-1,16
 45 391 45 391 35 450 c 1,17,-1
 -10 450 l 1,18,-1
 -10 500 l 1,19,-1
 495 500 l 1,0,-1
144.5 342.5 m 128,-1,21
 193 300 193 300 255 300 c 2,22,-1
 345 300 l 1,23,-1
 345 450 l 1,24,-1
 85 450 l 1,25,20
 96 385 96 385 144.5 342.5 c 128,-1,21
172 135.5 m 128,-1,27
 203 120 203 120 230 120 c 0,28,29
 255 120 255 120 284.5 131.5 c 128,-1,30
 314 143 314 143 345 165 c 1,31,-1
 345 250 l 1,32,-1
 255 250 l 2,33,34
 244 250 244 250 231.5 252.5 c 128,-1,35
 219 255 219 255 205 260 c 1,36,37
 178 245 178 245 154 224.5 c 128,-1,38
 130 204 130 204 110 180 c 1,39,26
 141 151 141 151 172 135.5 c 128,-1,27
EndSplineSet
Validated: 1
EndChar

StartChar: bhaguru
Encoding: 2605 2605 85
Width: 452
GlyphClass: 2
Flags: W
LayerCount: 2
Fore
SplineSet
462 500 m 1,0,-1
 462 450 l 1,1,-1
 376 450 l 1,2,3
 387 386 387 386 377.5 334.5 c 128,-1,4
 368 283 368 283 340 255 c 1,5,6
 359 232 359 232 369.5 207.5 c 128,-1,7
 380 183 380 183 380 160 c 0,8,9
 380 94 380 94 330 47 c 128,-1,10
 280 0 280 0 210 0 c 0,11,12
 163 0 163 0 117 23.5 c 128,-1,13
 71 47 71 47 35 90 c 1,14,-1
 50 110 l 1,15,16
 79 81 79 81 120.5 65.5 c 128,-1,17
 162 50 162 50 210 50 c 0,18,19
 260 50 260 50 295 82 c 128,-1,20
 330 114 330 114 330 160 c 0,21,22
 330 178 330 178 325 194.5 c 128,-1,23
 320 211 320 211 310 225 c 1,24,25
 272 194 272 194 236 177 c 128,-1,26
 200 160 200 160 170 160 c 0,27,28
 120 160 120 160 85 189.5 c 128,-1,29
 50 219 50 219 50 260 c 256,30,31
 50 301 50 301 85 330.5 c 128,-1,32
 120 360 120 360 170 360 c 0,33,34
 200 360 200 360 236 343 c 128,-1,35
 272 326 272 326 310 295 c 1,36,37
 327 315 327 315 330.5 355.5 c 128,-1,38
 334 396 334 396 325 450 c 1,39,-1
 -10 450 l 1,40,-1
 -10 500 l 1,41,-1
 462 500 l 1,0,-1
120.5 224.5 m 128,-1,43
 141 210 141 210 170 210 c 256,44,45
 199 210 199 210 227.5 223 c 128,-1,46
 256 236 256 236 280 260 c 1,47,48
 256 284 256 284 227.5 297 c 128,-1,49
 199 310 199 310 170 310 c 256,50,51
 141 310 141 310 120.5 295.5 c 128,-1,52
 100 281 100 281 100 260 c 256,53,42
 100 239 100 239 120.5 224.5 c 128,-1,43
EndSplineSet
Validated: 33
EndChar

StartChar: maguru
Encoding: 2606 2606 86
Width: 508
GlyphClass: 2
Flags: W
LayerCount: 2
Fore
SplineSet
118 500 m 1,0,1
 138 466 138 466 148 428 c 128,-1,2
 158 390 158 390 158 350 c 2,3,-1
 158 270 l 1,4,-1
 368 270 l 1,5,-1
 368 500 l 1,6,-1
 518 500 l 1,7,-1
 518 450 l 1,8,-1
 418 450 l 1,9,-1
 418 0 l 1,10,-1
 368 0 l 1,11,-1
 368 220 l 1,12,-1
 158 220 l 1,13,-1
 158 150 l 2,14,15
 158 100 158 100 142 65 c 128,-1,16
 126 30 126 30 103 30 c 0,17,18
 82 30 82 30 67.5 50.5 c 128,-1,19
 53 71 53 71 53 100 c 0,20,21
 53 127 53 127 67 165 c 128,-1,22
 81 203 81 203 108 250 c 1,23,-1
 108 350 l 2,24,25
 108 376 108 376 101.5 401.5 c 128,-1,26
 95 427 95 427 83 450 c 1,27,-1
 -10 450 l 1,28,-1
 -10 500 l 1,29,-1
 118 500 l 1,0,1
EndSplineSet
Validated: 1
EndChar

StartChar: yaguru
Encoding: 2607 2607 87
Width: 550
GlyphClass: 2
Flags: W
LayerCount: 2
Fore
SplineSet
560 500 m 1,0,-1
 560 450 l 1,1,-1
 460 450 l 1,2,-1
 460 0 l 1,3,-1
 410 0 l 1,4,-1
 410 240 l 1,5,-1
 300 240 l 1,6,-1
 300 80 l 1,7,-1
 250 80 l 2,8,9
 191 80 191 80 136 116.5 c 128,-1,10
 81 153 81 153 44 217 c 1,11,12
 62 242 62 242 71 276 c 128,-1,13
 80 310 80 310 80 350 c 0,14,15
 80 378 80 378 72.5 403.5 c 128,-1,16
 65 429 65 429 50 450 c 1,17,-1
 -10 450 l 1,18,-1
 -10 500 l 1,19,-1
 560 500 l 1,0,-1
125 401.5 m 128,-1,21
 130 376 130 376 130 350 c 0,22,23
 130 307 130 307 123 272.5 c 128,-1,24
 116 238 116 238 103 215 c 1,25,26
 126 176 126 176 165.5 153 c 128,-1,27
 205 130 205 130 250 130 c 1,28,-1
 250 290 l 1,29,-1
 410 290 l 1,30,-1
 410 450 l 1,31,-1
 110 450 l 1,32,20
 120 427 120 427 125 401.5 c 128,-1,21
EndSplineSet
Validated: 1
EndChar

StartChar: raguru
Encoding: 2608 2608 88
Width: 441
GlyphClass: 2
Flags: W
LayerCount: 2
Fore
SplineSet
451 500 m 1,0,-1
 451 450 l 1,1,-1
 356 450 l 1,2,-1
 356 100 l 2,3,4
 356 59 356 59 326.5 29.5 c 128,-1,5
 297 0 297 0 256 0 c 0,6,7
 192 0 192 0 114 82 c 128,-1,8
 36 164 36 164 36 230 c 0,9,10
 36 271 36 271 68 300.5 c 128,-1,11
 100 330 100 330 146 330 c 2,12,-1
 306 330 l 1,13,-1
 306 450 l 1,14,-1
 -10 450 l 1,15,-1
 -10 500 l 1,16,-1
 451 500 l 1,0,-1
146.5 114 m 128,-1,18
 207 50 207 50 256 50 c 0,19,20
 277 50 277 50 291.5 64.5 c 128,-1,21
 306 79 306 79 306 100 c 2,22,-1
 306 280 l 1,23,-1
 146 280 l 2,24,25
 121 280 121 280 103.5 265.5 c 128,-1,26
 86 251 86 251 86 230 c 0,27,17
 86 178 86 178 146.5 114 c 128,-1,18
EndSplineSet
Validated: 1
EndChar

StartChar: laguru
Encoding: 2610 2610 89
Width: 542
GlyphClass: 2
Flags: W
LayerCount: 2
Fore
SplineSet
552 500 m 1,0,-1
 552 450 l 1,1,-1
 431 450 l 1,2,3
 425 418 425 418 411.5 383 c 128,-1,4
 398 348 398 348 376 310 c 1,5,6
 430 300 430 300 465.5 260.5 c 128,-1,7
 501 221 501 221 501 170 c 0,8,9
 501 100 501 100 445.5 50 c 128,-1,10
 390 0 390 0 311 0 c 1,11,-1
 311 50 l 1,12,13
 369 50 369 50 410 85 c 128,-1,14
 451 120 451 120 451 170 c 0,15,16
 451 207 451 207 419 233.5 c 128,-1,17
 387 260 387 260 341 260 c 1,18,19
 331 246 331 246 313.5 228.5 c 128,-1,20
 296 211 296 211 271 190 c 1,21,22
 244 213 244 213 225 231.5 c 128,-1,23
 206 250 206 250 196 265 c 1,24,25
 153 265 153 265 122 237 c 128,-1,26
 91 209 91 209 91 170 c 0,27,28
 91 120 91 120 132 85 c 128,-1,29
 173 50 173 50 231 50 c 1,30,-1
 231 0 l 1,31,32
 152 0 152 0 96.5 50 c 128,-1,33
 41 100 41 100 41 170 c 0,34,35
 41 221 41 221 76.5 260.5 c 128,-1,36
 112 300 112 300 166 310 c 1,37,38
 144 348 144 348 130.5 383 c 128,-1,39
 117 418 117 418 111 450 c 1,40,-1
 -10 450 l 1,41,-1
 -10 500 l 1,42,-1
 552 500 l 1,0,-1
193.5 352 m 128,-1,44
 221 300 221 300 271 250 c 1,45,46
 322 304 322 304 349 356 c 128,-1,47
 376 408 376 408 376 450 c 1,48,-1
 166 450 l 1,49,43
 166 404 166 404 193.5 352 c 128,-1,44
EndSplineSet
Validated: 1
EndChar

StartChar: llaguru
Encoding: 2611 2611 90
Width: 542
GlyphClass: 2
Flags: W
LayerCount: 2
Fore
SplineSet
442.5 -11.5 m 0,0,1
 454 0 454 0 471 0 c 256,2,3
 488 0 488 0 499.5 -11.5 c 0,4,5
 511 -23 511 -23 511 -40 c 256,6,7
 511 -57 511 -57 499.5 -68.5 c 0,8,9
 488 -80 488 -80 471 -80 c 256,10,11
 454 -80 454 -80 442.5 -68.5 c 0,12,13
 431 -57 431 -57 431 -40 c 256,14,15
 431 -23 431 -23 442.5 -11.5 c 0,0,1
EndSplineSet
Refer: 89 2610 S 1 0 0 1 0 0 2
Ligature2: "'nukt' Nukta Forms lookup 0-1" laguru nuktaguru
EndChar

StartChar: vaguru
Encoding: 2613 2613 91
Width: 471
GlyphClass: 2
Flags: W
LayerCount: 2
Fore
SplineSet
481 500 m 1,0,-1
 481 450 l 1,1,-1
 421 450 l 1,2,-1
 421 300 l 1,3,-1
 131 300 l 2,4,5
 108 300 108 300 92 285.5 c 128,-1,6
 76 271 76 271 76 250 c 256,7,8
 76 229 76 229 92 214.5 c 128,-1,9
 108 200 108 200 131 200 c 2,10,-1
 421 200 l 1,11,-1
 421 150 l 1,12,-1
 211 150 l 1,13,14
 211 109 211 109 240.5 79.5 c 128,-1,15
 270 50 270 50 311 50 c 2,16,-1
 421 50 l 1,17,-1
 421 0 l 1,18,-1
 311 0 l 2,19,20
 249 0 249 0 205 44 c 128,-1,21
 161 88 161 88 161 150 c 1,22,-1
 131 150 l 2,23,24
 90 150 90 150 60.5 179.5 c 128,-1,25
 31 209 31 209 31 250 c 256,26,27
 31 291 31 291 60.5 320.5 c 128,-1,28
 90 350 90 350 131 350 c 2,29,-1
 371 350 l 1,30,-1
 371 450 l 1,31,-1
 -10 450 l 1,32,-1
 -10 500 l 1,33,-1
 481 500 l 1,0,-1
EndSplineSet
Validated: 1
EndChar

StartChar: shaguru
Encoding: 2614 2614 92
Width: 507
GlyphClass: 2
Flags: W
LayerCount: 2
Fore
SplineSet
228.5 88.5 m 0,0,1
 240 100 240 100 257 100 c 256,2,3
 274 100 274 100 285.5 88.5 c 0,4,5
 297 77 297 77 297 60 c 256,6,7
 297 43 297 43 285.5 31.5 c 0,8,9
 274 20 274 20 257 20 c 256,10,11
 240 20 240 20 228.5 31.5 c 0,12,13
 217 43 217 43 217 60 c 256,14,15
 217 77 217 77 228.5 88.5 c 0,0,1
EndSplineSet
Refer: 93 2616 N 1 0 0 1 0 0 2
Ligature2: "'nukt' Nukta Forms lookup 0-1" saguru nuktaguru
EndChar

StartChar: saguru
Encoding: 2616 2616 93
Width: 507
GlyphClass: 2
Flags: W
LayerCount: 2
Fore
SplineSet
517 500 m 1,0,-1
 517 450 l 1,1,-1
 417 450 l 1,2,-1
 417 0 l 1,3,-1
 367 0 l 1,4,-1
 367 210 l 1,5,-1
 167 210 l 1,6,-1
 167 170 l 2,7,8
 167 112 167 112 149.5 71 c 128,-1,9
 132 30 132 30 107 30 c 0,10,11
 86 30 86 30 71.5 47.5 c 128,-1,12
 57 65 57 65 57 90 c 0,13,14
 57 130 57 130 72.5 169 c 128,-1,15
 88 208 88 208 117 240 c 1,16,17
 117 292 117 292 101.5 345.5 c 128,-1,18
 86 399 86 399 57 450 c 1,19,-1
 -10 450 l 1,20,-1
 -10 500 l 1,21,-1
 517 500 l 1,0,-1
144 368 m 128,-1,23
 157 320 157 320 162 260 c 1,24,-1
 367 260 l 1,25,-1
 367 450 l 1,26,-1
 112 450 l 1,27,22
 131 416 131 416 144 368 c 128,-1,23
EndSplineSet
Validated: 1
EndChar

StartChar: haguru
Encoding: 2617 2617 94
Width: 464
GlyphClass: 2
Flags: W
LayerCount: 2
Fore
SplineSet
474 500 m 1,0,-1
 474 450 l 1,1,-1
 379 450 l 1,2,-1
 379 100 l 2,3,4
 379 59 379 59 351 29.5 c 128,-1,5
 323 0 323 0 284 0 c 0,6,7
 216 0 216 0 122.5 77 c 128,-1,8
 29 154 29 154 29 210 c 0,9,10
 29 243 29 243 58.5 266.5 c 128,-1,11
 88 290 88 290 129 290 c 2,12,-1
 169 290 l 1,13,-1
 169 240 l 1,14,-1
 129 240 l 2,15,16
 108 240 108 240 93.5 231 c 128,-1,17
 79 222 79 222 79 210 c 0,18,19
 79 170 79 170 156 110 c 128,-1,20
 233 50 233 50 284 50 c 0,21,22
 303 50 303 50 316 64.5 c 128,-1,23
 329 79 329 79 329 100 c 2,24,-1
 329 450 l 1,25,-1
 -10 450 l 1,26,-1
 -10 500 l 1,27,-1
 474 500 l 1,0,-1
EndSplineSet
Validated: 1
EndChar

StartChar: nuktaguru
Encoding: 2620 2620 95
Width: 0
GlyphClass: 2
Flags: W
LayerCount: 2
Fore
SplineSet
-258.5 -51.5 m 128,-1,1
 -247 -40 -247 -40 -230 -40 c 256,2,3
 -213 -40 -213 -40 -201.5 -51.5 c 128,-1,4
 -190 -63 -190 -63 -190 -80 c 256,5,6
 -190 -97 -190 -97 -201.5 -108.5 c 128,-1,7
 -213 -120 -213 -120 -230 -120 c 256,8,9
 -247 -120 -247 -120 -258.5 -108.5 c 128,-1,10
 -270 -97 -270 -97 -270 -80 c 256,11,0
 -270 -63 -270 -63 -258.5 -51.5 c 128,-1,1
EndSplineSet
Validated: 1
EndChar

StartChar: aavowelguru
Encoding: 2622 2622 96
Width: 230
GlyphClass: 2
Flags: W
LayerCount: 2
Fore
SplineSet
-10 500 m 1,0,-1
 240 500 l 1,1,-1
 240 450 l 1,2,-1
 140 450 l 1,3,-1
 140 220 l 1,4,-1
 90 220 l 1,5,-1
 90 450 l 1,6,-1
 -10 450 l 1,7,-1
 -10 500 l 1,0,-1
EndSplineSet
Validated: 1
EndChar

StartChar: ivowelguru
Encoding: 2623 2623 97
Width: 230
GlyphClass: 2
Flags: W
LayerCount: 2
Fore
SplineSet
308 570 m 2,0,1
 308 607 308 607 282.5 633.5 c 128,-1,2
 257 660 257 660 220 660 c 0,3,4
 187 660 187 660 163.5 633.5 c 128,-1,5
 140 607 140 607 140 570 c 2,6,-1
 140 500 l 1,7,-1
 240 500 l 1,8,-1
 240 450 l 1,9,-1
 140 450 l 1,10,-1
 140 0 l 1,11,-1
 90 0 l 1,12,-1
 90 450 l 1,13,-1
 -10 450 l 1,14,-1
 -10 500 l 1,15,-1
 90 500 l 1,16,-1
 90 570 l 2,17,18
 90 628 90 628 128 669 c 128,-1,19
 166 710 166 710 220 710 c 0,20,21
 276 710 276 710 315.5 669 c 0,22,23
 354.159 628.872 354.159 628.872 355 570 c 2,24,-1
 356 500 l 9,25,-1
 308 500 l 17,26,-1
 308 570 l 2,0,1
EndSplineSet
Validated: 1
EndChar

StartChar: iivowelguru
Encoding: 2624 2624 98
Width: 230
GlyphClass: 2
Flags: W
LayerCount: 2
Fore
SplineSet
-99 669 m 128,-1,1
 -58 710 -58 710 0 710 c 256,2,3
 58 710 58 710 99 669 c 128,-1,4
 140 628 140 628 140 570 c 2,5,-1
 140 500 l 1,6,-1
 240 500 l 1,7,-1
 240 450 l 1,8,-1
 140 450 l 1,9,-1
 140 0 l 1,10,-1
 90 0 l 1,11,-1
 90 450 l 1,12,-1
 -10 450 l 1,13,-1
 -10 500 l 1,14,-1
 90 500 l 1,15,-1
 90 570 l 2,16,17
 90 607 90 607 63.5 633.5 c 128,-1,18
 37 660 37 660 0 660 c 256,19,20
 -37 660 -37 660 -63.5 633.5 c 128,-1,21
 -90 607 -90 607 -90 570 c 2,22,-1
 -90 500 l 1,23,-1
 -140 500 l 1,24,-1
 -140 570 l 2,25,0
 -140 628 -140 628 -99 669 c 128,-1,1
EndSplineSet
Validated: 1
EndChar

StartChar: uvowelguru
Encoding: 2625 2625 99
Width: 0
GlyphClass: 4
Flags: W
AnchorPoint: "GRAnchor2" -261.5 0.5 mark 0
LayerCount: 2
Fore
SplineSet
-415 -95 m 1,0,1
 -383 -110 -383 -110 -345 -117.5 c 128,-1,2
 -307 -125 -307 -125 -265 -125 c 256,3,4
 -223 -125 -223 -125 -185 -117.5 c 128,-1,5
 -147 -110 -147 -110 -115 -95 c 1,6,-1
 -115 -145 l 1,7,8
 -147 -160 -147 -160 -185 -167.5 c 128,-1,9
 -223 -175 -223 -175 -265 -175 c 256,10,11
 -307 -175 -307 -175 -345 -167.5 c 128,-1,12
 -383 -160 -383 -160 -415 -145 c 1,13,-1
 -415 -95 l 1,0,1
EndSplineSet
Validated: 1
EndChar

StartChar: uuvowelguru
Encoding: 2626 2626 100
Width: 0
GlyphClass: 4
Flags: W
AnchorPoint: "GRAnchor2" -261.5 0.5 mark 0
LayerCount: 2
Fore
SplineSet
-420 -140 m 1,0,1
 -349 -173 -349 -173 -270 -173 c 128,-1,2
 -191 -173 -191 -173 -120 -140 c 1,3,-1
 -120 -190 l 1,4,5
 -191 -223 -191 -223 -270 -223 c 128,-1,6
 -349 -223 -349 -223 -420 -190 c 1,7,-1
 -420 -140 l 1,0,1
-420 -40 m 1,8,9
 -349 -73 -349 -73 -270 -73 c 128,-1,10
 -191 -73 -191 -73 -120 -40 c 1,11,-1
 -120 -90 l 1,12,13
 -191 -123 -191 -123 -270 -123 c 128,-1,14
 -349 -123 -349 -123 -420 -90 c 1,15,-1
 -420 -40 l 1,8,9
EndSplineSet
Validated: 1
EndChar

StartChar: eevowelguru
Encoding: 2631 2631 101
Width: 0
GlyphClass: 4
Flags: W
AnchorPoint: "GRAnchor1" -114 508 mark 0
LayerCount: 2
Fore
SplineSet
-384.5 709 m 128,-1,1
 -364 722 -364 722 -335 722 c 0,2,3
 -261 722 -261 722 -198 667 c 0,4,5
 -136.085 612 -136.085 612 -102 520 c 1,6,-1
 -128 520 l 1,7,8
 -151.351 582.686 -151.351 582.686 -198.5 616.5 c 0,9,10
 -247.949 652 -247.949 652 -305 652 c 0,11,12
 -314 652 -314 652 -330 647 c 128,-1,13
 -346 642 -346 642 -355 642 c 0,14,15
 -376 642 -376 642 -390.5 652.5 c 128,-1,16
 -405 663 -405 663 -405 677 c 0,17,0
 -405 696 -405 696 -384.5 709 c 128,-1,1
EndSplineSet
EndChar

StartChar: aivowelguru
Encoding: 2632 2632 102
Width: 0
GlyphClass: 4
Flags: W
AnchorPoint: "GRAnchor1" -104 508 mark 0
LayerCount: 2
Fore
SplineSet
-89.2021 520 m 5,0,1
 -117.218 642.382 -117.218 642.382 -181.021 746.479 c 4,2,3
 -236.725 835.479 -236.725 835.479 -306.941 844.091 c 4,4,5
 -374.562 851.725 -374.562 851.725 -377.67 815.314 c 4,6,7
 -378.701 803.227 -378.701 803.227 -369.522 793.553 c 4,8,9
 -361.375 784.965 -361.375 784.965 -346.812 784.965 c 4,10,11
 -344.039 784.965 -344.039 784.965 -337.105 785.658 c 132,-1,12
 -330.171 786.352 -330.171 786.352 -322.37 787.045 c 132,-1,13
 -314.569 787.738 -314.569 787.738 -307.288 787.932 c 132,-1,14
 -300.007 788.125 -300.007 788.125 -296.54 788.125 c 4,15,16
 -244.106 788.125 -244.106 788.125 -194.874 705.608 c 4,17,18
 -175.459 673.364 -175.459 673.364 -160.479 646.682 c 132,-1,19
 -145.5 620 -145.5 620 -127 570 c 5,20,21
 -202.665 681.972 -202.665 681.972 -305.024 699.98 c 4,22,23
 -371 711 -371 711 -371.939 666.043 c 4,24,25
 -371.939 654.948 -371.939 654.948 -365.525 648.188 c 132,-1,26
 -359.111 641.427 -359.111 641.427 -351.83 641.427 c 4,27,28
 -349.403 641.427 -349.403 641.427 -341.949 642.641 c 132,-1,29
 -334.495 643.854 -334.495 643.854 -325.134 645.414 c 132,-1,30
 -315.772 646.975 -315.772 646.975 -306.238 648.361 c 132,-1,31
 -296.704 649.748 -296.704 649.748 -290.116 649.748 c 4,32,33
 -244.004 649.748 -244.004 649.748 -212.8 628.599 c 4,34,35
 -196.015 617.604 -196.015 617.604 -176.65 594.906 c 4,36,37
 -137 546 -137 546 -130.071 520 c 5,38,-1
 -89.2021 520 l 5,0,1
EndSplineSet
EndChar

StartChar: oovowelguru
Encoding: 2635 2635 103
Width: 0
GlyphClass: 4
Flags: W
AnchorPoint: "GRAnchor1" -116 568 mark 0
LayerCount: 2
Fore
SplineSet
-375 755 m 5,0,1
 -370 729 -370 729 -352 712 c 132,-1,2
 -334 695 -334 695 -310 695 c 4,3,4
 -288 695 -288 695 -245 707.5 c 132,-1,5
 -202 720 -202 720 -180 720 c 4,6,7
 -149 720 -149 720 -127 680.5 c 132,-1,8
 -105 641 -105 641 -105 585 c 5,9,-1
 -125 585 l 5,10,11
 -125 614 -125 614 -139.5 634.5 c 132,-1,12
 -154 655 -154 655 -175 655 c 4,13,14
 -199 655 -199 655 -245 645 c 132,-1,15
 -291 635 -291 635 -315 635 c 4,16,17
 -348 635 -348 635 -371.5 670 c 132,-1,18
 -395 705 -395 705 -395 755 c 5,19,-1
 -375 755 l 5,0,1
EndSplineSet
EndChar

StartChar: auvowelguru
Encoding: 2636 2636 104
Width: 0
GlyphClass: 4
Flags: W
AnchorPoint: "GRAnchor1" -112 508 mark 0
LayerCount: 2
Fore
SplineSet
-202.5 636 m 128,-1,1
 -200 646 -200 646 -195 655 c 1,2,-1
 -245 655 l 2,3,4
 -273 655 -273 655 -295.5 680.5 c 128,-1,5
 -318 706 -318 706 -325 745 c 1,6,-1
 -311 750 l 1,7,8
 -302 730 -302 730 -284 717.5 c 128,-1,9
 -266 705 -266 705 -245 705 c 2,10,-1
 -115 705 l 2,11,12
 -82 705 -82 705 -58.5 678.5 c 128,-1,13
 -35 652 -35 652 -35 615 c 0,14,15
 -35 583 -35 583 -52 559 c 128,-1,16
 -69 535 -69 535 -95 530 c 1,17,-1
 -95 550 l 1,18,19
 -81 555 -81 555 -73 568.5 c 128,-1,20
 -65 582 -65 582 -65 600 c 0,21,22
 -65 623 -65 623 -79.5 639 c 128,-1,23
 -94 655 -94 655 -115 655 c 256,24,25
 -136 655 -136 655 -150.5 639 c 128,-1,26
 -165 623 -165 623 -165 600 c 0,27,28
 -165 582 -165 582 -157 568.5 c 128,-1,29
 -149 555 -149 555 -135 550 c 1,30,-1
 -135 530 l 1,31,32
 -165 535 -165 535 -185 559 c 128,-1,33
 -205 583 -205 583 -205 615 c 0,34,0
 -205 626 -205 626 -202.5 636 c 128,-1,1
EndSplineSet
Validated: 1
EndChar

StartChar: viramaguru
Encoding: 2637 2637 105
Width: 0
GlyphClass: 4
Flags: W
AnchorPoint: "GRAnchor2" 59 0 mark 0
LayerCount: 2
Fore
SplineSet
-138.5 -2 m 1,0,1
 -140 -66 l 1,2,3
 -38.0146 -67.1375 -38.0146 -67.1375 94.5 -177.5 c 1,4,-1
 143 -177 l 1,5,6
 0 2 0 2 -138.5 -2 c 1,0,1
EndSplineSet
Validated: 41
EndChar

StartChar: khhaguru
Encoding: 2649 2649 106
Width: 501
GlyphClass: 2
Flags: W
LayerCount: 2
Fore
SplineSet
42.5 78.5 m 0,0,1
 54 90 54 90 71 90 c 256,2,3
 88 90 88 90 99.5 78.5 c 0,4,5
 111 67 111 67 111 50 c 256,6,7
 111 33 111 33 99.5 21.5 c 0,8,9
 88 10 88 10 71 10 c 256,10,11
 54 10 54 10 42.5 21.5 c 0,12,13
 31 33 31 33 31 50 c 256,14,15
 31 67 31 67 42.5 78.5 c 0,0,1
EndSplineSet
Refer: 63 2582 S 1 0 0 1 0 0 2
Ligature2: "'nukt' Nukta Forms lookup 0-1" khaguru nuktaguru
EndChar

StartChar: ghhaguru
Encoding: 2650 2650 107
Width: 579
GlyphClass: 2
Flags: W
LayerCount: 2
Fore
SplineSet
45.5 68.5 m 0,0,1
 57 80 57 80 74 80 c 256,2,3
 91 80 91 80 102.5 68.5 c 0,4,5
 114 57 114 57 114 40 c 256,6,7
 114 23 114 23 102.5 11.5 c 0,8,9
 91 0 91 0 74 0 c 256,10,11
 57 0 57 0 45.5 11.5 c 0,12,13
 34 23 34 23 34 40 c 256,14,15
 34 57 34 57 45.5 68.5 c 0,0,1
EndSplineSet
Refer: 64 2583 S 1 0 0 1 0 0 2
Ligature2: "'nukt' Nukta Forms lookup 0-1" gaguru nuktaguru
EndChar

StartChar: zaguru
Encoding: 2651 2651 108
Width: 483
GlyphClass: 2
Flags: W
LayerCount: 2
Fore
SplineSet
219.5 88.5 m 0,0,1
 231 100 231 100 248 100 c 256,2,3
 265 100 265 100 276.5 88.5 c 0,4,5
 288 77 288 77 288 60 c 256,6,7
 288 43 288 43 276.5 31.5 c 0,8,9
 265 20 265 20 248 20 c 256,10,11
 231 20 231 20 219.5 31.5 c 0,12,13
 208 43 208 43 208 60 c 256,14,15
 208 77 208 77 219.5 88.5 c 0,0,1
EndSplineSet
Refer: 69 2588 S 1 0 0 1 0 0 2
Ligature2: "'nukt' Nukta Forms lookup 0-1" jaguru nuktaguru
EndChar

StartChar: rraguru
Encoding: 2652 2652 109
Width: 513
GlyphClass: 2
Flags: W
LayerCount: 2
Fore
SplineSet
523 500 m 1,0,-1
 523 450 l 1,1,-1
 432 450 l 1,2,3
 437 441 437 441 439.5 432.5 c 128,-1,4
 442 424 442 424 442 415 c 0,5,6
 442 377 442 377 423 346 c 128,-1,7
 404 315 404 315 372 300 c 1,8,9
 409 283 409 283 430.5 253 c 128,-1,10
 452 223 452 223 452 190 c 0,11,12
 452 151 452 151 430 119.5 c 128,-1,13
 408 88 408 88 372 75 c 1,14,-1
 425 0 l 1,15,-1
 364 0 l 1,16,-1
 315 63 l 1,17,-1
 282 60 l 2,18,19
 239 60 239 60 196 67.5 c 128,-1,20
 153 75 153 75 112 90 c 1,21,-1
 162 0 l 1,22,-1
 104 0 l 1,23,-1
 32 130 l 2,24,25
 23 145 23 145 38.5 156.5 c 128,-1,26
 54 168 54 168 72 160 c 0,27,28
 125 135 125 135 178 122.5 c 128,-1,29
 231 110 231 110 282 110 c 0,30,31
 332 110 332 110 367 133.5 c 128,-1,32
 402 157 402 157 402 190 c 0,33,34
 402 219 402 219 373.5 243 c 128,-1,35
 345 267 345 267 302 275 c 1,36,37
 268 263 268 263 239 256.5 c 128,-1,38
 210 250 210 250 187 250 c 0,39,40
 135 250 135 250 98.5 264.5 c 128,-1,41
 62 279 62 279 62 300 c 256,42,43
 62 321 62 321 98.5 335.5 c 128,-1,44
 135 350 135 350 187 350 c 0,45,46
 210 350 210 350 239 343.5 c 128,-1,47
 268 337 268 337 302 325 c 1,48,49
 343 340 343 340 367.5 362 c 128,-1,50
 392 384 392 384 392 405 c 0,51,52
 392 417 392 417 387 428.5 c 128,-1,53
 382 440 382 440 372 450 c 1,54,-1
 -10 450 l 1,55,-1
 -10 500 l 1,56,-1
 523 500 l 1,0,-1
EndSplineSet
Validated: 33
Ligature2: "'nukt' Nukta Forms lookup 0-1" ddaguru nuktaguru
EndChar

StartChar: faguru
Encoding: 2654 2654 110
Width: 480
GlyphClass: 2
Flags: W
LayerCount: 2
Fore
SplineSet
43.5 68.5 m 0,0,1
 55 80 55 80 72 80 c 256,2,3
 89 80 89 80 100.5 68.5 c 0,4,5
 112 57 112 57 112 40 c 256,6,7
 112 23 112 23 100.5 11.5 c 0,8,9
 89 0 89 0 72 0 c 256,10,11
 55 0 55 0 43.5 11.5 c 0,12,13
 32 23 32 23 32 40 c 256,14,15
 32 57 32 57 43.5 68.5 c 0,0,1
EndSplineSet
Refer: 83 2603 S 1 0 0 1 0 0 2
Ligature2: "'nukt' Nukta Forms lookup 0-1" phaguru nuktaguru
EndChar

StartChar: zeroguru
Encoding: 2662 2662 111
Width: 480
GlyphClass: 2
Flags: W
LayerCount: 2
Fore
SplineSet
98.5 391.5 m 128,-1,1
 157 450 157 450 240 450 c 256,2,3
 323 450 323 450 381.5 391.5 c 128,-1,4
 440 333 440 333 440 250 c 256,5,6
 440 167 440 167 381.5 108.5 c 128,-1,7
 323 50 323 50 240 50 c 256,8,9
 157 50 157 50 98.5 108.5 c 128,-1,10
 40 167 40 167 40 250 c 256,11,0
 40 333 40 333 98.5 391.5 c 128,-1,1
134 144 m 128,-1,13
 178 100 178 100 240 100 c 256,14,15
 302 100 302 100 346 144 c 128,-1,16
 390 188 390 188 390 250 c 256,17,18
 390 312 390 312 346 356 c 128,-1,19
 302 400 302 400 240 400 c 256,20,21
 178 400 178 400 134 356 c 128,-1,22
 90 312 90 312 90 250 c 256,23,12
 90 188 90 188 134 144 c 128,-1,13
EndSplineSet
Validated: 1
EndChar

StartChar: oneguru
Encoding: 2663 2663 112
Width: 480
GlyphClass: 2
Flags: W
LayerCount: 2
Fore
SplineSet
90.5 463.5 m 128,-1,1
 136 500 136 500 200 500 c 0,2,3
 272 500 272 500 323.5 463.5 c 128,-1,4
 375 427 375 427 375 375 c 2,5,-1
 375 100 l 2,6,7
 375 79 375 79 392.5 64.5 c 128,-1,8
 410 50 410 50 435 50 c 1,9,-1
 435 0 l 1,10,11
 389 0 389 0 357 29.5 c 128,-1,12
 325 59 325 59 325 100 c 2,13,-1
 325 290 l 1,14,15
 294 270 294 270 260.5 260 c 128,-1,16
 227 250 227 250 195 250 c 0,17,18
 133 250 133 250 89 286.5 c 128,-1,19
 45 323 45 323 45 375 c 256,20,0
 45 427 45 427 90.5 463.5 c 128,-1,1
124.5 322 m 128,-1,22
 154 300 154 300 195 300 c 0,23,24
 233 300 233 300 279 326.5 c 128,-1,25
 325 353 325 353 325 375 c 0,26,27
 325 406 325 406 287 428 c 128,-1,28
 249 450 249 450 195 450 c 0,29,30
 154 450 154 450 124.5 428 c 128,-1,31
 95 406 95 406 95 375 c 256,32,21
 95 344 95 344 124.5 322 c 128,-1,22
EndSplineSet
Validated: 1
EndChar

StartChar: twoguru
Encoding: 2664 2664 113
Width: 479
GlyphClass: 2
Flags: W
LayerCount: 2
Fore
SplineSet
138 487.5 m 128,-1,1
 189 500 189 500 235 500 c 0,2,3
 322 500 322 500 383.5 450 c 128,-1,4
 445 400 445 400 445 330 c 0,5,6
 445 275 445 275 405 227 c 128,-1,7
 365 179 365 179 300 155 c 1,8,9
 349 120 349 120 385 81 c 128,-1,10
 421 42 421 42 440 0 c 1,11,-1
 380 0 l 1,12,13
 352 48 352 48 315 84 c 128,-1,14
 278 120 278 120 235 140 c 1,15,16
 207 133 207 133 182 129 c 128,-1,17
 157 125 157 125 135 125 c 0,18,19
 98 125 98 125 71.5 139.5 c 128,-1,20
 45 154 45 154 45 175 c 0,21,22
 45 198 45 198 71.5 214 c 128,-1,23
 98 230 98 230 135 230 c 0,24,25
 155 230 155 230 183 220 c 128,-1,26
 211 210 211 210 245 190 c 1,27,28
 313 215 313 215 354 253.5 c 128,-1,29
 395 292 395 292 395 330 c 0,30,31
 395 380 395 380 348 415 c 128,-1,32
 301 450 301 450 235 450 c 0,33,34
 189 450 189 450 143.5 437.5 c 128,-1,35
 98 425 98 425 55 400 c 1,36,-1
 34 450 l 1,37,0
 87 475 87 475 138 487.5 c 128,-1,1
EndSplineSet
Validated: 1
EndChar

StartChar: threeguru
Encoding: 2665 2665 114
Width: 480
GlyphClass: 2
Flags: W
LayerCount: 2
Fore
SplineSet
125.5 490.5 m 128,-1,1
 176 500 176 500 230 500 c 0,2,3
 317 500 317 500 378.5 466.5 c 128,-1,4
 440 433 440 433 440 385 c 0,5,6
 440 352 440 352 425 325 c 128,-1,7
 410 298 410 298 385 285 c 1,8,9
 415 271 415 271 432.5 248 c 128,-1,10
 450 225 450 225 450 200 c 0,11,12
 450 149 450 149 408.5 110.5 c 128,-1,13
 367 72 367 72 305 67 c 1,14,15
 358 48 358 48 394.5 37.5 c 128,-1,16
 431 27 431 27 450 25 c 1,17,-1
 420 -15 l 1,18,19
 363 -5 363 -5 312.5 14 c 128,-1,20
 262 33 262 33 220 60 c 1,21,-1
 130 60 l 2,22,23
 93 60 93 60 66.5 74.5 c 128,-1,24
 40 89 40 89 40 110 c 256,25,26
 40 131 40 131 54.5 145.5 c 128,-1,27
 69 160 69 160 90 160 c 0,28,29
 114 160 114 160 142.5 147 c 128,-1,30
 171 134 171 134 200 110 c 1,31,32
 307 110 307 110 353.5 131 c 128,-1,33
 400 152 400 152 400 200 c 0,34,35
 400 216 400 216 378 234 c 128,-1,36
 356 252 356 252 320 265 c 1,37,38
 292 258 292 258 249.5 254 c 128,-1,39
 207 250 207 250 150 250 c 0,40,41
 113 250 113 250 86.5 261.5 c 128,-1,42
 60 273 60 273 60 290 c 256,43,44
 60 307 60 307 86.5 318.5 c 128,-1,45
 113 330 113 330 150 330 c 0,46,47
 197 330 197 330 240 325 c 128,-1,48
 283 320 283 320 320 310 c 1,49,50
 352 321 352 321 371 342 c 128,-1,51
 390 363 390 363 390 385 c 0,52,53
 390 412 390 412 343 431 c 128,-1,54
 296 450 296 450 230 450 c 0,55,56
 183 450 183 450 136.5 441.5 c 128,-1,57
 90 433 90 433 45 417 c 1,58,-1
 30 463 l 1,59,0
 75 481 75 481 125.5 490.5 c 128,-1,1
EndSplineSet
Validated: 1
EndChar

StartChar: fourguru
Encoding: 2666 2666 115
Width: 480
GlyphClass: 2
Flags: W
LayerCount: 2
Fore
SplineSet
81 462 m 128,-1,1
 122 500 122 500 180 500 c 1,2,-1
 190 450 l 1,3,4
 149 450 149 450 119.5 426.5 c 128,-1,5
 90 403 90 403 90 370 c 0,6,7
 90 324 90 324 134 292 c 128,-1,8
 178 260 178 260 240 260 c 256,9,10
 302 260 302 260 346 292 c 128,-1,11
 390 324 390 324 390 370 c 0,12,13
 390 403 390 403 365 426.5 c 128,-1,14
 340 450 340 450 305 450 c 1,15,-1
 315 500 l 1,16,17
 367 500 367 500 403.5 462 c 128,-1,18
 440 424 440 424 440 370 c 0,19,20
 440 328 440 328 412.5 292 c 128,-1,21
 385 256 385 256 340 240 c 1,22,23
 377 223 377 223 398.5 193 c 128,-1,24
 420 163 420 163 420 130 c 0,25,26
 420 76 420 76 367.5 38 c 128,-1,27
 315 0 315 0 240 0 c 256,28,29
 165 0 165 0 112.5 38 c 128,-1,30
 60 76 60 76 60 130 c 0,31,32
 60 166 60 166 82 196.5 c 128,-1,33
 104 227 104 227 140 240 c 1,34,35
 94 261 94 261 67 296.5 c 128,-1,36
 40 332 40 332 40 370 c 0,37,0
 40 424 40 424 81 462 c 128,-1,1
148 73.5 m 128,-1,39
 186 50 186 50 240 50 c 256,40,41
 294 50 294 50 332 73.5 c 128,-1,42
 370 97 370 97 370 130 c 256,43,44
 370 163 370 163 332 186.5 c 128,-1,45
 294 210 294 210 240 210 c 256,46,47
 186 210 186 210 148 186.5 c 128,-1,48
 110 163 110 163 110 130 c 256,49,38
 110 97 110 97 148 73.5 c 128,-1,39
EndSplineSet
Validated: 1
EndChar

StartChar: fiveguru
Encoding: 2667 2667 116
Width: 480
GlyphClass: 2
Flags: W
LayerCount: 2
Fore
SplineSet
93 500 m 1,0,1
 123 470 123 470 139 431 c 128,-1,2
 155 392 155 392 155 350 c 0,3,4
 155 325 155 325 146 298 c 128,-1,5
 137 271 137 271 120 245 c 1,6,7
 151 214 151 214 185 197 c 128,-1,8
 219 180 219 180 250 180 c 0,9,10
 282 180 282 180 314 193 c 128,-1,11
 346 206 346 206 375 230 c 1,12,-1
 375 500 l 1,13,-1
 424 500 l 1,14,-1
 425 0 l 1,15,-1
 375 0 l 1,16,-1
 375 170 l 1,17,18
 347 150 347 150 315 140 c 128,-1,19
 283 130 283 130 250 130 c 0,20,21
 199 130 199 130 147.5 160.5 c 128,-1,22
 96 191 96 191 55 245 c 1,23,24
 79 274 79 274 92 301 c 128,-1,25
 105 328 105 328 105 350 c 0,26,27
 105 379 105 379 93.5 406 c 128,-1,28
 82 433 82 433 60 455 c 1,29,-1
 93 500 l 1,0,1
EndSplineSet
Validated: 1
EndChar

StartChar: sixguru
Encoding: 2668 2668 117
Width: 479
GlyphClass: 2
Flags: W
LayerCount: 2
Fore
SplineSet
106.5 417.5 m 128,-1,1
 171 460 171 460 262 460 c 1,2,3
 229 530 229 530 258.5 595 c 128,-1,4
 288 660 288 660 352 660 c 2,5,-1
 402 660 l 1,6,-1
 402 590 l 1,7,-1
 352 590 l 2,8,9
 320 590 320 590 310.5 547.5 c 128,-1,10
 301 505 301 505 322 460 c 1,11,12
 370 460 370 460 403.5 442.5 c 128,-1,13
 437 425 437 425 437 400 c 0,14,15
 437 381 437 381 424 368 c 128,-1,16
 411 355 411 355 392 355 c 0,17,18
 363 355 363 355 336.5 369.5 c 128,-1,19
 310 384 310 384 292 410 c 1,20,-1
 242 410 l 2,21,22
 180 410 180 410 136 382 c 128,-1,23
 92 354 92 354 92 315 c 0,24,25
 92 296 92 296 111 275.5 c 128,-1,26
 130 255 130 255 162 240 c 1,27,28
 193 252 193 252 228 258.5 c 128,-1,29
 263 265 263 265 302 265 c 0,30,31
 352 265 352 265 387 249 c 128,-1,32
 422 233 422 233 422 210 c 0,33,34
 422 189 422 189 387 174.5 c 128,-1,35
 352 160 352 160 302 160 c 0,36,37
 269 160 269 160 235 166.5 c 128,-1,38
 201 173 201 173 167 185 c 1,39,40
 134 176 134 176 113 156.5 c 128,-1,41
 92 137 92 137 92 115 c 0,42,43
 92 88 92 88 121.5 69 c 128,-1,44
 151 50 151 50 192 50 c 2,45,-1
 432 50 l 1,46,-1
 432 0 l 1,47,-1
 192 0 l 2,48,49
 130 0 130 0 86 33.5 c 128,-1,50
 42 67 42 67 42 115 c 0,51,52
 42 146 42 146 59.5 173 c 128,-1,53
 77 200 77 200 107 215 c 1,54,55
 77 230 77 230 59.5 257 c 128,-1,56
 42 284 42 284 42 315 c 0,57,0
 42 375 42 375 106.5 417.5 c 128,-1,1
EndSplineSet
Validated: 33
EndChar

StartChar: sevenguru
Encoding: 2669 2669 118
Width: 480
GlyphClass: 2
Flags: W
LayerCount: 2
Fore
SplineSet
163.5 456 m 128,-1,1
 212 500 212 500 280 500 c 256,2,3
 348 500 348 500 396.5 441.5 c 128,-1,4
 445 383 445 383 445 300 c 0,5,6
 445 176 445 176 325 88 c 128,-1,7
 205 0 205 0 35 0 c 1,8,-1
 35 50 l 1,9,10
 184 50 184 50 289.5 123 c 128,-1,11
 395 196 395 196 395 300 c 0,12,13
 395 362 395 362 361.5 406 c 128,-1,14
 328 450 328 450 280 450 c 256,15,16
 232 450 232 450 198.5 420.5 c 128,-1,17
 165 391 165 391 165 350 c 0,18,19
 165 337 165 337 170 319 c 128,-1,20
 175 301 175 301 185 280 c 1,21,-1
 132 280 l 1,22,23
 124 301 124 301 119.5 318.5 c 128,-1,24
 115 336 115 336 115 350 c 0,25,0
 115 412 115 412 163.5 456 c 128,-1,1
EndSplineSet
Validated: 1
EndChar

StartChar: eightguru
Encoding: 2670 2670 119
Width: 480
GlyphClass: 2
Flags: W
LayerCount: 2
Fore
SplineSet
75.5 456.5 m 128,-1,1
 111 500 111 500 135 500 c 0,2,3
 145 500 145 500 152.5 491 c 128,-1,4
 160 482 160 482 160 470 c 2,5,-1
 160 410 l 1,6,-1
 440 410 l 1,7,-1
 440 360 l 1,8,-1
 160 360 l 1,9,-1
 160 230 l 2,10,11
 160 155 160 155 212.5 102.5 c 128,-1,12
 265 50 265 50 340 50 c 2,13,-1
 440 50 l 1,14,-1
 440 0 l 1,15,-1
 340 0 l 2,16,17
 241 0 241 0 170.5 67.5 c 128,-1,18
 100 135 100 135 100 230 c 2,19,-1
 100 360 l 1,20,-1
 70 360 l 2,21,22
 58 360 58 360 49 367.5 c 128,-1,23
 40 375 40 375 40 385 c 0,24,0
 40 413 40 413 75.5 456.5 c 128,-1,1
EndSplineSet
Validated: 1
EndChar

StartChar: nineguru
Encoding: 2671 2671 120
Width: 480
GlyphClass: 2
Flags: W
LayerCount: 2
Fore
SplineSet
75.5 456.5 m 128,-1,1
 111 500 111 500 135 500 c 0,2,3
 145 500 145 500 152.5 491 c 128,-1,4
 160 482 160 482 160 470 c 2,5,-1
 160 410 l 1,6,-1
 350 410 l 1,7,8
 274 474 274 474 285 567 c 128,-1,9
 296 660 296 660 380 660 c 2,10,-1
 430 660 l 1,11,-1
 430 590 l 1,12,-1
 380 590 l 2,13,14
 363 590 363 590 351.5 572.5 c 128,-1,15
 340 555 340 555 340 530 c 0,16,17
 340 490 340 490 367.5 457 c 128,-1,18
 395 424 395 424 440 410 c 1,19,-1
 440 360 l 1,20,-1
 160 360 l 1,21,-1
 160 230 l 2,22,23
 160 155 160 155 212.5 102.5 c 128,-1,24
 265 50 265 50 340 50 c 2,25,-1
 440 50 l 1,26,-1
 440 0 l 1,27,-1
 340 0 l 2,28,29
 241 0 241 0 170.5 67.5 c 128,-1,30
 100 135 100 135 100 230 c 2,31,-1
 100 360 l 1,32,-1
 70 360 l 2,33,34
 58 360 58 360 49 367.5 c 128,-1,35
 40 375 40 375 40 385 c 0,36,0
 40 413 40 413 75.5 456.5 c 128,-1,1
EndSplineSet
Validated: 33
EndChar

StartChar: tippiguru
Encoding: 2672 2672 121
Width: 0
GlyphClass: 4
Flags: W
AnchorPoint: "GRAnchor1" -114 490 mark 0
LayerCount: 2
Fore
SplineSet
-185.5 720.5 m 132,-1,1
 -156 750 -156 750 -115 750 c 260,2,3
 -74 750 -74 750 -44.5 720.5 c 132,-1,4
 -15 691 -15 691 -15 650 c 4,5,6
 -15 619 -15 619 -34 592.5 c 132,-1,7
 -53 566 -53 566 -85 555 c 5,8,-1
 -85 575 l 5,9,10
 -67 584 -67 584 -56 600 c 132,-1,11
 -45 616 -45 616 -45 635 c 4,12,13
 -45 662 -45 662 -65.5 681 c 132,-1,14
 -86 700 -86 700 -115 700 c 260,15,16
 -144 700 -144 700 -164.5 681 c 132,-1,17
 -185 662 -185 662 -185 635 c 4,18,19
 -185 616 -185 616 -174 600 c 132,-1,20
 -163 584 -163 584 -145 575 c 5,21,-1
 -145 555 l 5,22,23
 -176 563 -176 563 -195.5 589.5 c 132,-1,24
 -215 616 -215 616 -215 650 c 4,25,0
 -215 691 -215 691 -185.5 720.5 c 132,-1,1
EndSplineSet
Validated: 1
EndChar

StartChar: addakguru
Encoding: 2673 2673 122
Width: 0
GlyphClass: 4
Flags: W
AnchorPoint: "GRAnchor0" -146 432 mark 0
LayerCount: 2
Fore
SplineSet
-235 740 m 1,0,1
 -235 694 -235 694 -200 662 c 128,-1,2
 -165 630 -165 630 -115 630 c 128,-1,3
 -65 630 -65 630 -30 662 c 128,-1,4
 5 694 5 694 5 740 c 1,5,-1
 25 740 l 1,6,7
 25 674 25 674 -16 627 c 128,-1,8
 -57 580 -57 580 -115 580 c 128,-1,9
 -173 580 -173 580 -214 627 c 128,-1,10
 -255 674 -255 674 -255 740 c 1,11,-1
 -235 740 l 1,0,1
EndSplineSet
Substitution2: "Single Substitution lookup 8-1" addakguru.alt
EndChar

StartChar: iriguru
Encoding: 2674 2674 123
Width: 458
GlyphClass: 2
Flags: W
LayerCount: 2
Fore
SplineSet
468 500 m 1,0,-1
 468 450 l 1,1,-1
 393 450 l 1,2,-1
 393 240 l 1,3,-1
 233 240 l 2,4,5
 203 240 203 240 168.5 217.5 c 128,-1,6
 134 195 134 195 103 155 c 1,7,8
 138 106 138 106 180 78 c 128,-1,9
 222 50 222 50 263 50 c 0,10,11
 299 50 299 50 336 63 c 128,-1,12
 373 76 373 76 408 100 c 1,13,-1
 418 90 l 1,14,15
 382 47 382 47 339 23.5 c 128,-1,16
 296 0 296 0 253 0 c 0,17,18
 205 0 205 0 149.5 41 c 128,-1,19
 94 82 94 82 43 155 c 1,20,21
 73 198 73 198 101 226 c 128,-1,22
 129 254 129 254 153 265 c 1,23,24
 107 286 107 286 80 336.5 c 128,-1,25
 53 387 53 387 53 450 c 1,26,-1
 -10 450 l 1,27,-1
 -10 500 l 1,28,-1
 468 500 l 1,0,-1
141 337 m 128,-1,30
 179 290 179 290 233 290 c 2,31,-1
 343 290 l 1,32,-1
 343 450 l 1,33,-1
 103 450 l 1,34,29
 103 384 103 384 141 337 c 128,-1,30
EndSplineSet
Validated: 1
EndChar

StartChar: uraguru
Encoding: 2675 2675 124
Width: 531
GlyphClass: 2
Flags: W
LayerCount: 2
Fore
SplineSet
47 500 m 5,0,1
 47 595 47 595 111.5 662.5 c 132,-1,2
 176 730 176 730 267 730 c 4,3,4
 362 730 362 730 429.5 662.5 c 132,-1,5
 497 595 497 595 497 500 c 5,6,-1
 541 500 l 5,7,-1
 541 450 l 5,8,-1
 500 450 l 5,9,-1
 497 430 l 5,10,11
 497 368 497 368 461.5 317 c 132,-1,12
 426 266 426 266 367 245 c 5,13,14
 399 226 399 226 418 196.5 c 132,-1,15
 437 167 437 167 437 135 c 4,16,17
 437 79 437 79 396 39.5 c 132,-1,18
 355 0 355 0 297 0 c 4,19,20
 193 0 193 0 120 132 c 132,-1,21
 47 264 47 264 47 450 c 5,22,-1
 -10 450 l 5,23,-1
 -10 500 l 5,24,-1
 47 500 l 5,0,1
447 500 m 5,25,26
 447 575 447 575 394.5 627.5 c 132,-1,27
 342 680 342 680 267 680 c 4,28,29
 197 680 197 680 147 627.5 c 132,-1,30
 97 575 97 575 97 500 c 5,31,-1
 447 500 l 5,25,26
101 365 m 132,-1,33
 105 322 105 322 112 280 c 5,34,-1
 297 280 l 6,35,36
 359 280 359 280 403 324 c 132,-1,37
 447 368 447 368 447 430 c 6,38,-1
 447 450 l 5,39,-1
 97 450 l 5,40,32
 97 408 97 408 101 365 c 132,-1,33
193.5 100 m 132,-1,42
 242 50 242 50 297 50 c 4,43,44
 334 50 334 50 360.5 75 c 132,-1,45
 387 100 387 100 387 135 c 4,46,47
 387 174 387 174 355 202 c 132,-1,48
 323 230 323 230 277 230 c 6,49,-1
 124 230 l 5,50,41
 145 150 145 150 193.5 100 c 132,-1,42
EndSplineSet
EndChar

StartChar: ekonkarguru
Encoding: 2676 2676 125
Width: 895
GlyphClass: 2
Flags: W
LayerCount: 2
Fore
SplineSet
409 500 m 1,0,1
 409 595 409 595 476.5 662.5 c 128,-1,2
 544 730 544 730 639 730 c 0,3,4
 711 730 711 730 768 694 c 128,-1,5
 825 658 825 658 845 599 c 1,6,7
 912 671 912 671 991.5 710.5 c 128,-1,8
 1071 750 1071 750 1149 750 c 0,9,10
 1224 750 1224 750 1276.5 682.5 c 128,-1,11
 1329 615 1329 615 1329 520 c 1,12,-1
 1279 520 l 1,13,14
 1279 595 1279 595 1241 647.5 c 128,-1,15
 1203 700 1203 700 1149 700 c 0,16,17
 1073 700 1073 700 997 659.5 c 128,-1,18
 921 619 921 619 859 545 c 1,19,-1
 809 545 l 1,20,21
 804 602 804 602 755 641 c 128,-1,22
 706 680 706 680 639 680 c 0,23,24
 564 680 564 680 511.5 627.5 c 128,-1,25
 459 575 459 575 459 500 c 1,26,-1
 905 500 l 1,27,-1
 905 450 l 1,28,-1
 859 450 l 1,29,-1
 859 430 l 2,30,31
 859 363 859 363 827.5 311 c 128,-1,32
 796 259 796 259 744 240 c 1,33,34
 770 222 770 222 784.5 194 c 128,-1,35
 799 166 799 166 799 135 c 0,36,37
 799 79 799 79 758 39.5 c 128,-1,38
 717 0 717 0 659 0 c 0,39,40
 555 0 555 0 482 132 c 128,-1,41
 409 264 409 264 409 450 c 1,42,-1
 352 450 l 1,43,-1
 352 500 l 1,44,-1
 409 500 l 1,0,1
463 365 m 128,-1,46
 467 322 467 322 474 280 c 1,47,-1
 659 280 l 2,48,49
 721 280 721 280 765 324 c 128,-1,50
 809 368 809 368 809 430 c 2,51,-1
 809 450 l 1,52,-1
 459 450 l 1,53,45
 459 408 459 408 463 365 c 128,-1,46
555.5 100 m 128,-1,55
 604 50 604 50 659 50 c 0,56,57
 696 50 696 50 722.5 75 c 128,-1,58
 749 100 749 100 749 135 c 0,59,60
 749 174 749 174 717 202 c 128,-1,61
 685 230 685 230 639 230 c 2,62,-1
 486 230 l 1,63,54
 507 150 507 150 555.5 100 c 128,-1,55
74.5 463.5 m 128,-1,65
 120 500 120 500 184 500 c 0,66,67
 256 500 256 500 307.5 463.5 c 128,-1,68
 359 427 359 427 359 375 c 2,69,-1
 359 100 l 2,70,71
 359 79 359 79 376.5 64.5 c 128,-1,72
 394 50 394 50 419 50 c 1,73,-1
 419 0 l 1,74,75
 373 0 373 0 341 29.5 c 128,-1,76
 309 59 309 59 309 100 c 2,77,-1
 309 290 l 1,78,79
 278 270 278 270 244.5 260 c 128,-1,80
 211 250 211 250 179 250 c 0,81,82
 117 250 117 250 73 286.5 c 128,-1,83
 29 323 29 323 29 375 c 256,84,64
 29 427 29 427 74.5 463.5 c 128,-1,65
108.5 322 m 128,-1,86
 138 300 138 300 179 300 c 0,87,88
 217 300 217 300 263 326.5 c 128,-1,89
 309 353 309 353 309 375 c 0,90,91
 309 406 309 406 271 428 c 128,-1,92
 233 450 233 450 179 450 c 0,93,94
 138 450 138 450 108.5 428 c 128,-1,95
 79 406 79 406 79 375 c 256,96,85
 79 344 79 344 108.5 322 c 128,-1,86
EndSplineSet
Validated: 1
EndChar

StartChar: zerowidthnonjoiner
Encoding: 8204 8204 126
Width: 0
GlyphClass: 2
Flags: W
LayerCount: 2
Fore
SplineSet
-20 750 m 1,0,-1
 20 750 l 1,1,-1
 20 -245 l 1,2,-1
 -20 -245 l 1,3,-1
 -20 750 l 1,0,-1
EndSplineSet
EndChar

StartChar: zerowidthjoiner
Encoding: 8205 8205 127
Width: 0
GlyphClass: 2
Flags: W
LayerCount: 2
Fore
SplineSet
124.8 520.2 m 1,0,-1
 87.5996 486.2 l 1,1,-1
 26.4004 546.2 l 1,2,-1
 26.4004 -317.4 l 1,3,-1
 -19.5996 -317.4 l 1,4,-1
 -19.5996 552.6 l 1,5,-1
 -87.5996 486.2 l 1,6,-1
 -124.8 520.2 l 1,7,-1
 -36.4004 607.8 l 1,8,-1
 -124.8 696.2 l 1,9,-1
 -89.2002 731.4 l 1,10,-1
 0 643.4 l 1,11,-1
 89.5996 731.4 l 1,12,-1
 124.8 696.2 l 1,13,-1
 36.7998 607.8 l 1,14,-1
 124.8 520.2 l 1,0,-1
EndSplineSet
EndChar

StartChar: endash
Encoding: 8211 8211 128
Width: 480
GlyphClass: 2
Flags: W
LayerCount: 2
Fore
SplineSet
0 300 m 1,0,-1
 501 300 l 1,1,-1
 501 250 l 1,2,-1
 0 250 l 1,3,-1
 0 300 l 1,0,-1
EndSplineSet
Validated: 1
EndChar

StartChar: emdash
Encoding: 8212 8212 129
Width: 1000
GlyphClass: 2
Flags: W
LayerCount: 2
Fore
SplineSet
0 300 m 1,0,-1
 1000 300 l 1,1,-1
 1000 250 l 1,2,-1
 0 250 l 1,3,-1
 0 300 l 1,0,-1
EndSplineSet
Validated: 1
EndChar

StartChar: quoteleft
Encoding: 8216 8216 130
Width: 290
GlyphClass: 2
Flags: W
LayerCount: 2
Fore
SplineSet
200 510 m 1,0,-1
 90 510 l 1,1,-1
 90 600 l 2,2,3
 90 629 90 629 97.5 656.5 c 128,-1,4
 105 684 105 684 120 710 c 1,5,-1
 180 700 l 1,6,7
 166 688 166 688 158 662 c 128,-1,8
 150 636 150 636 150 600 c 1,9,-1
 200 600 l 1,10,-1
 200 510 l 1,0,-1
EndSplineSet
Validated: 1
EndChar

StartChar: quoteright
Encoding: 8217 8217 131
Width: 292
GlyphClass: 2
Flags: W
LayerCount: 2
Fore
SplineSet
90 590 m 1,0,-1
 200 590 l 1,1,-1
 202 500 l 2,2,3
 202 473 202 473 194 445 c 128,-1,4
 186 417 186 417 170 390 c 1,5,-1
 110 400 l 1,6,7
 124 412 124 412 132 438 c 128,-1,8
 140 464 140 464 140 500 c 1,9,-1
 90 500 l 1,10,-1
 90 590 l 1,0,-1
EndSplineSet
Validated: 1
EndChar

StartChar: quotedblleft
Encoding: 8220 8220 132
Width: 450
GlyphClass: 2
Flags: W
LayerCount: 2
Fore
SplineSet
200 510 m 1,0,-1
 90 510 l 1,1,-1
 90 600 l 2,2,3
 90 629 90 629 97.5 656.5 c 128,-1,4
 105 684 105 684 120 710 c 1,5,-1
 180 700 l 1,6,7
 166 688 166 688 158 662 c 128,-1,8
 150 636 150 636 150 600 c 1,9,-1
 200 600 l 1,10,-1
 200 510 l 1,0,-1
360 510 m 1,11,-1
 250 510 l 1,12,-1
 250 600 l 2,13,14
 250 629 250 629 257.5 656.5 c 128,-1,15
 265 684 265 684 280 710 c 1,16,-1
 340 700 l 1,17,18
 326 688 326 688 318 662 c 128,-1,19
 310 636 310 636 310 600 c 1,20,-1
 360 600 l 1,21,-1
 360 510 l 1,11,-1
EndSplineSet
Validated: 1
EndChar

StartChar: quotedblright
Encoding: 8221 8221 133
Width: 472
GlyphClass: 2
Flags: W
LayerCount: 2
Fore
SplineSet
90 590 m 1,0,-1
 200 590 l 1,1,-1
 202 500 l 2,2,3
 202 473 202 473 194 445 c 128,-1,4
 186 417 186 417 170 390 c 1,5,-1
 110 400 l 1,6,7
 124 412 124 412 132 438 c 128,-1,8
 140 464 140 464 140 500 c 1,9,-1
 90 500 l 1,10,-1
 90 590 l 1,0,-1
270 590 m 1,11,-1
 380 590 l 1,12,-1
 382 500 l 2,13,14
 382 473 382 473 374 445 c 128,-1,15
 366 417 366 417 350 390 c 1,16,-1
 290 400 l 1,17,18
 304 412 304 412 312 438 c 128,-1,19
 320 464 320 464 320 500 c 1,20,-1
 270 500 l 1,21,-1
 270 590 l 1,11,-1
EndSplineSet
Validated: 1
EndChar

StartChar: ellipsis
Encoding: 8230 8230 134
Width: 648
GlyphClass: 2
Flags: W
LayerCount: 2
Fore
SplineSet
9 45 m 1,0,-1
 119 45 l 1,1,-1
 119 0 l 1,2,-1
 9 0 l 1,3,-1
 9 45 l 1,0,-1
269 45 m 1,4,-1
 379 45 l 1,5,-1
 379 0 l 1,6,-1
 269 0 l 1,7,-1
 269 45 l 1,4,-1
529 45 m 1,8,-1
 639 45 l 1,9,-1
 639 0 l 1,10,-1
 529 0 l 1,11,-1
 529 45 l 1,8,-1
EndSplineSet
Validated: 1
EndChar

StartChar: minus
Encoding: 8722 8722 135
Width: 530
GlyphClass: 2
Flags: W
LayerCount: 2
Fore
SplineSet
90 300 m 1,0,-1
 440 300 l 1,1,-1
 440 250 l 1,2,-1
 90 250 l 1,3,-1
 90 300 l 1,0,-1
EndSplineSet
Validated: 1
EndChar

StartChar: dottedcircle
Encoding: 9676 9676 136
Width: 720
GlyphClass: 2
Flags: W
AnchorPoint: "GRAnchor2" 361 -2 basechar 0
LayerCount: 2
Fore
SplineSet
334.5 514.5 m 128,-1,1
 345 525 345 525 360 525 c 256,2,3
 375 525 375 525 385.5 514.5 c 128,-1,4
 396 504 396 504 396 489 c 256,5,6
 396 474 396 474 385.5 463.5 c 128,-1,7
 375 453 375 453 360 453 c 256,8,9
 345 453 345 453 334.5 463.5 c 128,-1,10
 324 474 324 474 324 489 c 256,11,0
 324 504 324 504 334.5 514.5 c 128,-1,1
334.5 46.5 m 128,-1,13
 345 57 345 57 360 57 c 256,14,15
 375 57 375 57 385.5 46.5 c 128,-1,16
 396 36 396 36 396 21 c 256,17,18
 396 6 396 6 385.5 -4.5 c 128,-1,19
 375 -15 375 -15 360 -15 c 256,20,21
 345 -15 345 -15 334.5 -4.5 c 128,-1,22
 324 6 324 6 324 21 c 256,23,12
 324 36 324 36 334.5 46.5 c 128,-1,13
100.5 280.5 m 128,-1,25
 111 291 111 291 126 291 c 256,26,27
 141 291 141 291 151.5 280.5 c 128,-1,28
 162 270 162 270 162 255 c 256,29,30
 162 240 162 240 151.5 229.5 c 128,-1,31
 141 219 141 219 126 219 c 256,32,33
 111 219 111 219 100.5 229.5 c 128,-1,34
 90 240 90 240 90 255 c 256,35,24
 90 270 90 270 100.5 280.5 c 128,-1,25
568.5 280.5 m 128,-1,37
 579 291 579 291 594 291 c 256,38,39
 609 291 609 291 619.5 280.5 c 128,-1,40
 630 270 630 270 630 255 c 256,41,42
 630 240 630 240 619.5 229.5 c 128,-1,43
 609 219 609 219 594 219 c 256,44,45
 579 219 579 219 568.5 229.5 c 128,-1,46
 558 240 558 240 558 255 c 256,47,36
 558 270 558 270 568.5 280.5 c 128,-1,37
132.5 163.5 m 128,-1,49
 143 174 143 174 158 174 c 256,50,51
 173 174 173 174 183.5 163.5 c 128,-1,52
 194 153 194 153 194 138 c 256,53,54
 194 123 194 123 183.5 112.5 c 128,-1,55
 173 102 173 102 158 102 c 256,56,57
 143 102 143 102 132.5 112.5 c 128,-1,58
 122 123 122 123 122 138 c 256,59,48
 122 153 122 153 132.5 163.5 c 128,-1,49
537.5 397.5 m 128,-1,61
 548 408 548 408 563 408 c 256,62,63
 578 408 578 408 588.5 397.5 c 128,-1,64
 599 387 599 387 599 372 c 256,65,66
 599 357 599 357 588.5 346.5 c 128,-1,67
 578 336 578 336 563 336 c 256,68,69
 548 336 548 336 537.5 346.5 c 128,-1,70
 527 357 527 357 527 372 c 256,71,60
 527 387 527 387 537.5 397.5 c 128,-1,61
451.5 483.5 m 128,-1,73
 462 494 462 494 477 494 c 256,74,75
 492 494 492 494 502.5 483.5 c 128,-1,76
 513 473 513 473 513 458 c 256,77,78
 513 443 513 443 502.5 432.5 c 128,-1,79
 492 422 492 422 477 422 c 256,80,81
 462 422 462 422 451.5 432.5 c 128,-1,82
 441 443 441 443 441 458 c 256,83,72
 441 473 441 473 451.5 483.5 c 128,-1,73
217.5 78.5 m 128,-1,85
 228 89 228 89 243 89 c 256,86,87
 258 89 258 89 268.5 78.5 c 128,-1,88
 279 68 279 68 279 53 c 256,89,90
 279 38 279 38 268.5 27 c 128,-1,91
 258 16 258 16 243 16 c 256,92,93
 228 16 228 16 217.5 27 c 128,-1,94
 207 38 207 38 207 53 c 256,95,84
 207 68 207 68 217.5 78.5 c 128,-1,85
132.5 397.5 m 128,-1,97
 143 408 143 408 158 408 c 256,98,99
 173 408 173 408 183.5 397.5 c 128,-1,100
 194 387 194 387 194 372 c 256,101,102
 194 357 194 357 183.5 346.5 c 128,-1,103
 173 336 173 336 158 336 c 256,104,105
 143 336 143 336 132.5 346.5 c 128,-1,106
 122 357 122 357 122 372 c 256,107,96
 122 387 122 387 132.5 397.5 c 128,-1,97
537.5 163.5 m 128,-1,109
 548 174 548 174 563 174 c 256,110,111
 578 174 578 174 588.5 163.5 c 128,-1,112
 599 153 599 153 599 138 c 256,113,114
 599 123 599 123 588.5 112.5 c 128,-1,115
 578 102 578 102 563 102 c 256,116,117
 548 102 548 102 537.5 112.5 c 128,-1,118
 527 123 527 123 527 138 c 256,119,108
 527 153 527 153 537.5 163.5 c 128,-1,109
217.5 483.5 m 128,-1,121
 228 494 228 494 243 494 c 256,122,123
 258 494 258 494 268.5 483.5 c 128,-1,124
 279 473 279 473 279 458 c 256,125,126
 279 443 279 443 268.5 432.5 c 128,-1,127
 258 422 258 422 243 422 c 256,128,129
 228 422 228 422 217.5 432.5 c 128,-1,130
 207 443 207 443 207 458 c 256,131,120
 207 473 207 473 217.5 483.5 c 128,-1,121
451.5 78.5 m 128,-1,133
 462 89 462 89 477 89 c 256,134,135
 492 89 492 89 502.5 78.5 c 128,-1,136
 513 68 513 68 513 53 c 256,137,138
 513 38 513 38 502.5 27 c 128,-1,139
 492 16 492 16 477 16 c 256,140,141
 462 16 462 16 451.5 27 c 128,-1,142
 441 38 441 38 441 53 c 256,143,132
 441 68 441 68 451.5 78.5 c 128,-1,133
EndSplineSet
Validated: 1
EndChar

StartChar: kaguru_raguru_viramaguru
Encoding: 65539 -1 137
Width: 487
GlyphClass: 2
Flags: W
AnchorPoint: "GRAnchor2" 238 -235 basechar 0
LayerCount: 2
Fore
SplineSet
497 500 m 1,0,-1
 497 450 l 1,1,-1
 416 450 l 1,2,3
 416 378 416 378 400.5 314.5 c 128,-1,4
 385 251 385 251 356 200 c 1,5,6
 385 158 385 158 400.5 107 c 128,-1,7
 416 56 416 56 416 0 c 1,8,-1
 366 0 l 1,9,10
 366 42 366 42 356 81.5 c 128,-1,11
 346 121 346 121 326 155 c 1,12,13
 299 123 299 123 267 102 c 128,-1,14
 235 81 235 81 201 73 c 1,15,-1
 201 -65 l 1,16,-1
 401 -230 l 1,17,-1
 381 -250 l 1,18,19
 373 -244 373 -244 305.5 -187 c 128,-1,20
 238 -130 238 -130 206 -130 c 1,21,22
 206 -153 206 -153 187 -169 c 128,-1,23
 168 -185 168 -185 141 -185 c 0,24,25
 116 -185 116 -185 98.5 -167.5 c 128,-1,26
 81 -150 81 -150 81 -125 c 0,27,28
 81 -98 81 -98 101.5 -79 c 128,-1,29
 122 -60 122 -60 151 -60 c 1,30,-1
 151 72 l 1,31,32
 101 81 101 81 68.5 117 c 128,-1,33
 36 153 36 153 36 200 c 0,34,35
 36 254 36 254 77 292 c 128,-1,36
 118 330 118 330 176 330 c 0,37,38
 215 330 215 330 254.5 309 c 128,-1,39
 294 288 294 288 326 250 c 1,40,41
 346 284 346 284 356 335 c 128,-1,42
 366 386 366 386 366 450 c 1,43,-1
 -10 450 l 1,44,-1
 -10 500 l 1,45,-1
 497 500 l 1,0,-1
112.5 143.5 m 128,-1,47
 139 120 139 120 176 120 c 0,48,49
 214 120 214 120 248.5 143 c 128,-1,50
 283 166 283 166 306 205 c 1,51,52
 286 240 286 240 251 260 c 128,-1,53
 216 280 216 280 176 280 c 0,54,55
 139 280 139 280 112.5 256.5 c 128,-1,56
 86 233 86 233 86 200 c 256,57,46
 86 167 86 167 112.5 143.5 c 128,-1,47
EndSplineSet
Validated: 513
Ligature2: "'blws' Below Base Substitutions lookup 5-1" kaguru viramaguru raguru
Ligature2: "'vatu' Vattu Variants lookup 6-1" kaguru viramaguru raguru
EndChar

StartChar: ddaguru_raguru_viramaguru
Encoding: 65540 -1 138
Width: 479
GlyphClass: 2
Flags: W
AnchorPoint: "GRAnchor2" 237 -192 basechar 0
LayerCount: 2
Fore
SplineSet
489 500 m 1,0,-1
 489 450 l 1,1,-1
 396 450 l 1,2,3
 401 441 401 441 403.5 431 c 128,-1,4
 406 421 406 421 406 410 c 0,5,6
 406 375 406 375 390 345.5 c 128,-1,7
 374 316 374 316 346 300 c 1,8,9
 378 281 378 281 397 246.5 c 128,-1,10
 416 212 416 212 416 170 c 0,11,12
 416 138 416 138 399 107.5 c 128,-1,13
 382 77 382 77 351 54 c 1,14,-1
 351 -65 l 1,15,-1
 551 -230 l 1,16,-1
 531 -250 l 1,17,18
 523 -244 523 -244 455.5 -187 c 128,-1,19
 388 -130 388 -130 356 -130 c 1,20,21
 356 -153 356 -153 337 -169 c 128,-1,22
 318 -185 318 -185 291 -185 c 0,23,24
 266 -185 266 -185 248.5 -167.5 c 128,-1,25
 231 -150 231 -150 231 -125 c 0,26,27
 231 -98 231 -98 251.5 -79 c 128,-1,28
 272 -60 272 -60 301 -60 c 1,29,-1
 301 25 l 1,30,31
 272 13 272 13 240.5 6.5 c 128,-1,32
 209 0 209 0 176 0 c 0,33,34
 118 0 118 0 77 32 c 128,-1,35
 36 64 36 64 36 110 c 0,36,37
 36 147 36 147 71 173.5 c 128,-1,38
 106 200 106 200 156 200 c 0,39,40
 197 200 197 200 243 172.5 c 128,-1,41
 289 145 289 145 331 95 c 1,42,43
 348 112 348 112 357 131.5 c 128,-1,44
 366 151 366 151 366 170 c 0,45,46
 366 198 366 198 347 224.5 c 128,-1,47
 328 251 328 251 296 270 c 1,48,49
 277 265 277 265 249.5 262.5 c 128,-1,50
 222 260 222 260 186 260 c 0,51,52
 136 260 136 260 101 274.5 c 128,-1,53
 66 289 66 289 66 310 c 0,54,55
 66 327 66 327 92.5 338.5 c 128,-1,56
 119 350 119 350 156 350 c 0,57,58
 184 350 184 350 215.5 343.5 c 128,-1,59
 247 337 247 337 281 325 c 1,60,61
 315 341 315 341 335.5 364 c 128,-1,62
 356 387 356 387 356 410 c 0,63,64
 356 421 356 421 352 431 c 128,-1,65
 348 441 348 441 341 450 c 1,66,-1
 -10 450 l 1,67,-1
 -10 500 l 1,68,-1
 489 500 l 1,0,-1
112.5 66 m 128,-1,70
 139 50 139 50 176 50 c 0,71,72
 206 50 206 50 237.5 57.5 c 128,-1,73
 269 65 269 65 301 80 c 1,74,75
 261 114 261 114 223.5 132 c 128,-1,76
 186 150 186 150 156 150 c 0,77,78
 127 150 127 150 106.5 137 c 128,-1,79
 86 124 86 124 86 105 c 0,80,69
 86 82 86 82 112.5 66 c 128,-1,70
EndSplineSet
Validated: 513
Ligature2: "'vatu' Vattu Variants lookup 6-1" ddaguru viramaguru raguru
Ligature2: "'blws' Below Base Substitutions lookup 5-1" ddaguru viramaguru raguru
EndChar

StartChar: taguru_raguru_viramaguru
Encoding: 65541 -1 139
Width: 477
GlyphClass: 2
Flags: W
AnchorPoint: "GRAnchor2" 233 -234 basechar 0
LayerCount: 2
Fore
SplineSet
487 500 m 1,0,-1
 487 450 l 1,1,-1
 396 450 l 1,2,3
 407 386 407 386 390.5 331.5 c 128,-1,4
 374 277 374 277 334 250 c 1,5,6
 369 234 369 234 390 200 c 128,-1,7
 411 166 411 166 411 125 c 0,8,9
 411 100 411 100 398 76.5 c 128,-1,10
 385 53 385 53 361 35 c 1,11,-1
 361 -65 l 1,12,-1
 561 -230 l 1,13,-1
 541 -250 l 1,14,15
 533 -244 533 -244 465.5 -187 c 128,-1,16
 398 -130 398 -130 366 -130 c 1,17,18
 366 -153 366 -153 347 -169 c 128,-1,19
 328 -185 328 -185 301 -185 c 0,20,21
 276 -185 276 -185 258.5 -167.5 c 128,-1,22
 241 -150 241 -150 241 -125 c 0,23,24
 241 -98 241 -98 261.5 -79 c 128,-1,25
 282 -60 282 -60 311 -60 c 1,26,-1
 311 9 l 1,27,28
 297 5 297 5 282 2.5 c 128,-1,29
 267 0 267 0 251 0 c 0,30,31
 189 0 189 0 127.5 33 c 128,-1,32
 66 66 66 66 16 125 c 1,33,-1
 31 140 l 1,34,35
 78 97 78 97 132 73.5 c 128,-1,36
 186 50 186 50 241 50 c 0,37,38
 291 50 291 50 326 72 c 128,-1,39
 361 94 361 94 361 125 c 0,40,41
 361 155 361 155 339 181 c 128,-1,42
 317 207 317 207 281 220 c 1,43,44
 254 210 254 210 226 205 c 128,-1,45
 198 200 198 200 171 200 c 0,46,47
 130 200 130 200 100.5 214.5 c 128,-1,48
 71 229 71 229 71 250 c 256,49,50
 71 271 71 271 100.5 285.5 c 128,-1,51
 130 300 130 300 171 300 c 0,52,53
 185 300 185 300 212.5 292.5 c 128,-1,54
 240 285 240 285 281 270 c 1,55,56
 328 303 328 303 345 354 c 128,-1,57
 362 405 362 405 341 450 c 1,58,-1
 -10 450 l 1,59,-1
 -10 500 l 1,60,-1
 487 500 l 1,0,-1
EndSplineSet
Validated: 545
Ligature2: "'blws' Below Base Substitutions lookup 5-1" taguru viramaguru raguru
Ligature2: "'vatu' Vattu Variants lookup 6-1" taguru viramaguru raguru
EndChar

StartChar: daguru_raguru_viramaguru
Encoding: 65542 -1 140
Width: 510
GlyphClass: 2
Flags: W
AnchorPoint: "GRAnchor2" 254 -234 basechar 0
LayerCount: 2
Fore
SplineSet
520 500 m 1,0,-1
 520 450 l 1,1,-1
 440 450 l 1,2,-1
 440 220 l 1,3,-1
 140 220 l 1,4,5
 140 150 140 150 187 100 c 128,-1,6
 234 50 234 50 300 50 c 0,7,8
 341 50 341 50 378.5 63 c 128,-1,9
 416 76 416 76 445 100 c 1,10,-1
 465 85 l 1,11,12
 451 68 451 68 434.5 54 c 128,-1,13
 418 40 418 40 400 29 c 1,14,-1
 400 -65 l 1,15,-1
 600 -230 l 1,16,-1
 580 -250 l 1,17,18
 572 -244 572 -244 504.5 -187 c 128,-1,19
 437 -130 437 -130 405 -130 c 1,20,21
 405 -153 405 -153 386 -169 c 128,-1,22
 367 -185 367 -185 340 -185 c 0,23,24
 315 -185 315 -185 297.5 -167.5 c 128,-1,25
 280 -150 280 -150 280 -125 c 0,26,27
 280 -98 280 -98 300.5 -79 c 128,-1,28
 321 -60 321 -60 350 -60 c 1,29,-1
 350 7 l 1,30,31
 338 4 338 4 325.5 2 c 128,-1,32
 313 0 313 0 300 0 c 0,33,34
 213 0 213 0 151.5 64.5 c 128,-1,35
 90 129 90 129 90 220 c 1,36,-1
 55 220 l 2,37,38
 41 220 41 220 30.5 226 c 128,-1,39
 20 232 20 232 20 240 c 0,40,41
 20 265 20 265 55.5 302.5 c 128,-1,42
 91 340 91 340 115 340 c 0,43,44
 125 340 125 340 132.5 331 c 128,-1,45
 140 322 140 322 140 310 c 2,46,-1
 140 270 l 1,47,-1
 390 270 l 1,48,-1
 390 450 l 1,49,-1
 -10 450 l 1,50,-1
 -10 500 l 1,51,-1
 520 500 l 1,0,-1
EndSplineSet
Validated: 513
Ligature2: "'vatu' Vattu Variants lookup 6-1" daguru viramaguru raguru
Ligature2: "'blws' Below Base Substitutions lookup 5-1" daguru viramaguru raguru
EndChar

StartChar: bhaguru_raguru_viramaguru
Encoding: 65543 -1 141
Width: 456
GlyphClass: 2
Flags: W
AnchorPoint: "GRAnchor2" 233 -234 basechar 0
LayerCount: 2
Fore
SplineSet
466 500 m 1,0,-1
 466 450 l 1,1,-1
 376 450 l 1,2,3
 387 386 387 386 377.5 334.5 c 128,-1,4
 368 283 368 283 340 255 c 1,5,6
 359 232 359 232 369.5 207.5 c 128,-1,7
 380 183 380 183 380 160 c 0,8,9
 380 132 380 132 369.5 105 c 128,-1,10
 359 78 359 78 340 57 c 1,11,-1
 340 -65 l 1,12,-1
 540 -230 l 1,13,-1
 520 -250 l 1,14,15
 512 -244 512 -244 444.5 -187 c 128,-1,16
 377 -130 377 -130 345 -130 c 1,17,18
 345 -153 345 -153 326 -169 c 128,-1,19
 307 -185 307 -185 280 -185 c 0,20,21
 255 -185 255 -185 237.5 -167.5 c 128,-1,22
 220 -150 220 -150 220 -125 c 0,23,24
 220 -98 220 -98 240.5 -79 c 128,-1,25
 261 -60 261 -60 290 -60 c 1,26,-1
 290 19 l 1,27,28
 272 10 272 10 251.5 5 c 128,-1,29
 231 0 231 0 210 0 c 0,30,31
 163 0 163 0 117 23.5 c 128,-1,32
 71 47 71 47 35 90 c 1,33,-1
 50 110 l 1,34,35
 79 81 79 81 120.5 65.5 c 128,-1,36
 162 50 162 50 210 50 c 0,37,38
 260 50 260 50 295 82 c 128,-1,39
 330 114 330 114 330 160 c 0,40,41
 330 178 330 178 325 194.5 c 128,-1,42
 320 211 320 211 310 225 c 1,43,44
 272 194 272 194 236 177 c 128,-1,45
 200 160 200 160 170 160 c 0,46,47
 120 160 120 160 85 189.5 c 128,-1,48
 50 219 50 219 50 260 c 256,49,50
 50 301 50 301 85 330.5 c 128,-1,51
 120 360 120 360 170 360 c 0,52,53
 200 360 200 360 236 343 c 128,-1,54
 272 326 272 326 310 295 c 1,55,56
 327 315 327 315 330.5 355.5 c 128,-1,57
 334 396 334 396 325 450 c 1,58,-1
 -10 450 l 1,59,-1
 -10 500 l 1,60,-1
 466 500 l 1,0,-1
120.5 224.5 m 128,-1,62
 141 210 141 210 170 210 c 256,63,64
 199 210 199 210 227.5 223 c 128,-1,65
 256 236 256 236 280 260 c 1,66,67
 256 284 256 284 227.5 297 c 128,-1,68
 199 310 199 310 170 310 c 256,69,70
 141 310 141 310 120.5 295.5 c 128,-1,71
 100 281 100 281 100 260 c 256,72,61
 100 239 100 239 120.5 224.5 c 128,-1,62
EndSplineSet
Validated: 545
Ligature2: "'vatu' Vattu Variants lookup 6-1" bhaguru viramaguru raguru
Ligature2: "'blws' Below Base Substitutions lookup 5-1" bhaguru viramaguru raguru
EndChar

StartChar: haguru_viramaguru
Encoding: 65544 -1 142
Width: 0
GlyphClass: 4
Flags: W
LayerCount: 2
Fore
SplineSet
-280.5 -84.5 m 128,-1,1
 -266 -70 -266 -70 -245 -70 c 2,2,-1
 -195 -70 l 1,3,-1
 -195 -110 l 1,4,-1
 -245 -110 l 2,5,6
 -249 -110 -249 -110 -252 -113 c 128,-1,7
 -255 -116 -255 -116 -255 -120 c 0,8,9
 -255 -142 -255 -142 -213.5 -176 c 128,-1,10
 -172 -210 -172 -210 -145 -210 c 0,11,12
 -141 -210 -141 -210 -138 -207 c 128,-1,13
 -135 -204 -135 -204 -135 -200 c 2,14,-1
 -135 -10 l 1,15,-1
 -95 -10 l 1,16,-1
 -95 -200 l 2,17,18
 -95 -221 -95 -221 -109.5 -235.5 c 128,-1,19
 -124 -250 -124 -250 -145 -250 c 0,20,21
 -182 -250 -182 -250 -238.5 -201 c 128,-1,22
 -295 -152 -295 -152 -295 -120 c 0,23,0
 -295 -99 -295 -99 -280.5 -84.5 c 128,-1,1
EndSplineSet
Validated: 1
Ligature2: "'blwf' Below Base Forms lookup 1-1" viramaguru haguru
EndChar

StartChar: vaguru_viramaguru
Encoding: 65545 -1 143
Width: 0
GlyphClass: 2
Flags: W
LayerCount: 2
Fore
SplineSet
-294.5 -47.5 m 128,-1,1
 -274 -30 -274 -30 -245 -30 c 2,2,-1
 -135 -30 l 1,3,-1
 -135 -10 l 1,4,-1
 -95 -10 l 1,5,-1
 -95 -70 l 1,6,-1
 -245 -70 l 2,7,8
 -257 -70 -257 -70 -266 -76 c 128,-1,9
 -275 -82 -275 -82 -275 -90 c 0,10,11
 -275 -102 -275 -102 -263.5 -111 c 128,-1,12
 -252 -120 -252 -120 -235 -120 c 2,13,-1
 -115 -120 l 1,14,-1
 -115 -160 l 1,15,-1
 -220 -160 l 2,16,17
 -230 -160 -230 -160 -237.5 -167.5 c 128,-1,18
 -245 -175 -245 -175 -245 -185 c 256,19,20
 -245 -195 -245 -195 -236 -202.5 c 128,-1,21
 -227 -210 -227 -210 -215 -210 c 2,22,-1
 -115 -210 l 1,23,-1
 -115 -250 l 1,24,-1
 -215 -250 l 2,25,26
 -244 -250 -244 -250 -264.5 -232.5 c 128,-1,27
 -285 -215 -285 -215 -285 -190 c 0,28,29
 -285 -179 -285 -179 -280 -168.5 c 128,-1,30
 -275 -158 -275 -158 -265 -150 c 1,31,32
 -288 -137 -288 -137 -301.5 -120.5 c 128,-1,33
 -315 -104 -315 -104 -315 -90 c 0,34,0
 -315 -65 -315 -65 -294.5 -47.5 c 128,-1,1
EndSplineSet
Validated: 1
Ligature2: "'blwf' Below Base Forms lookup 1-1" viramaguru vaguru
EndChar

StartChar: raguru_viramaguru
Encoding: 65546 -1 144
Width: 0
GlyphClass: 4
Flags: W
AnchorPoint: "GRAnchor1" -186 478 mark 0
LayerCount: 2
Fore
SplineSet
-189.5 -79 m 128,-1,1
 -169 -60 -169 -60 -140 -60 c 1,2,-1
 -140 0 l 1,3,-1
 -90 0 l 1,4,-1
 -90 -65 l 1,5,-1
 110 -230 l 1,6,-1
 90 -250 l 1,7,8
 82 -244 82 -244 14.5 -187 c 128,-1,9
 -53 -130 -53 -130 -85 -130 c 1,10,11
 -85 -153 -85 -153 -104 -169 c 128,-1,12
 -123 -185 -123 -185 -150 -185 c 0,13,14
 -175 -185 -175 -185 -192.5 -167.5 c 128,-1,15
 -210 -150 -210 -150 -210 -125 c 0,16,0
 -210 -98 -210 -98 -189.5 -79 c 128,-1,1
EndSplineSet
Validated: 1
Ligature2: "'blwf' Below Base Forms lookup 1-1" viramaguru raguru
EndChar

StartChar: eevowelguru_bindiguru
Encoding: 65547 -1 145
Width: 0
GlyphClass: 4
Flags: W
AnchorPoint: "GRAnchor1" -112 508 mark 0
LayerCount: 2
Fore
SplineSet
-384.5 709 m 128,-1,1
 -364 722 -364 722 -335 722 c 0,2,3
 -264 722 -264 722 -201 667 c 128,-1,4
 -138 612 -138 612 -105 522 c 1,5,-1
 -125 522 l 1,6,7
 -146 581 -146 581 -195.5 616.5 c 128,-1,8
 -245 652 -245 652 -305 652 c 0,9,10
 -314 652 -314 652 -330 647 c 128,-1,11
 -346 642 -346 642 -355 642 c 0,12,13
 -376 642 -376 642 -390.5 652.5 c 128,-1,14
 -405 663 -405 663 -405 677 c 0,15,0
 -405 696 -405 696 -384.5 709 c 128,-1,1
-97 719 m 128,-1,17
 -84 732 -84 732 -65 732 c 256,18,19
 -46 732 -46 732 -33 719 c 128,-1,20
 -20 706 -20 706 -20 687 c 256,21,22
 -20 668 -20 668 -33 655 c 128,-1,23
 -46 642 -46 642 -65 642 c 256,24,25
 -84 642 -84 642 -97 655 c 128,-1,26
 -110 668 -110 668 -110 687 c 256,27,16
 -110 706 -110 706 -97 719 c 128,-1,17
EndSplineSet
Ligature2: "'abvs' Above Base Substitutions lookup 2-1" eevowelguru bindiguru
EndChar

StartChar: oovowelguru_bindiguru
Encoding: 65549 -1 146
Width: 0
GlyphClass: 4
Flags: W
AnchorPoint: "GRAnchor1" -114 576 mark 0
LayerCount: 2
Fore
SplineSet
-375 765 m 1,0,1
 -370 739 -370 739 -352 722 c 128,-1,2
 -334 705 -334 705 -310 705 c 0,3,4
 -288 705 -288 705 -245 717.5 c 128,-1,5
 -202 730 -202 730 -180 730 c 0,6,7
 -149 730 -149 730 -127 690.5 c 128,-1,8
 -105 651 -105 651 -105 595 c 1,9,-1
 -125 595 l 1,10,11
 -125 624 -125 624 -139.5 644.5 c 128,-1,12
 -154 665 -154 665 -175 665 c 0,13,14
 -199 665 -199 665 -245 655 c 128,-1,15
 -291 645 -291 645 -315 645 c 0,16,17
 -348 645 -348 645 -371.5 680 c 128,-1,18
 -395 715 -395 715 -395 765 c 1,19,-1
 -375 765 l 1,0,1
-72 762 m 128,-1,21
 -59 775 -59 775 -40 775 c 256,22,23
 -21 775 -21 775 -8 762 c 128,-1,24
 5 749 5 749 5 730 c 256,25,26
 5 711 5 711 -8 698 c 128,-1,27
 -21 685 -21 685 -40 685 c 256,28,29
 -59 685 -59 685 -72 698 c 128,-1,30
 -85 711 -85 711 -85 730 c 256,31,20
 -85 749 -85 749 -72 762 c 128,-1,21
EndSplineSet
Ligature2: "'abvs' Above Base Substitutions lookup 2-1" oovowelguru bindiguru
EndChar

StartChar: auvowelguru_bindiguru
Encoding: 65550 -1 147
Width: 0
GlyphClass: 4
Flags: W
LayerCount: 2
Fore
SplineSet
-202.5 636 m 128,-1,1
 -200 646 -200 646 -195 655 c 1,2,-1
 -245 655 l 2,3,4
 -273 655 -273 655 -295.5 680.5 c 128,-1,5
 -318 706 -318 706 -325 745 c 1,6,-1
 -311 750 l 1,7,8
 -302 730 -302 730 -284 717.5 c 128,-1,9
 -266 705 -266 705 -245 705 c 2,10,-1
 -115 705 l 2,11,12
 -82 705 -82 705 -58.5 678.5 c 128,-1,13
 -35 652 -35 652 -35 615 c 0,14,15
 -35 583 -35 583 -52 559 c 128,-1,16
 -69 535 -69 535 -95 530 c 1,17,-1
 -95 550 l 1,18,19
 -81 555 -81 555 -73 568.5 c 128,-1,20
 -65 582 -65 582 -65 600 c 0,21,22
 -65 623 -65 623 -79.5 639 c 128,-1,23
 -94 655 -94 655 -115 655 c 256,24,25
 -136 655 -136 655 -150.5 639 c 128,-1,26
 -165 623 -165 623 -165 600 c 0,27,28
 -165 582 -165 582 -157 568.5 c 128,-1,29
 -149 555 -149 555 -135 550 c 1,30,-1
 -135 530 l 1,31,32
 -165 535 -165 535 -185 559 c 128,-1,33
 -205 583 -205 583 -205 615 c 0,34,0
 -205 626 -205 626 -202.5 636 c 128,-1,1
-2 727 m 128,-1,36
 11 740 11 740 30 740 c 256,37,38
 49 740 49 740 62 727 c 128,-1,39
 75 714 75 714 75 695 c 256,40,41
 75 676 75 676 62 663 c 128,-1,42
 49 650 49 650 30 650 c 256,43,44
 11 650 11 650 -2 663 c 128,-1,45
 -15 676 -15 676 -15 695 c 256,46,35
 -15 714 -15 714 -2 727 c 128,-1,36
EndSplineSet
Validated: 1
Ligature2: "'abvs' Above Base Substitutions lookup 2-1" auvowelguru bindiguru
EndChar

StartChar: iivowelguru_bindiguru
Encoding: 65551 -1 148
Width: 230
GlyphClass: 4
Flags: W
LayerCount: 2
Fore
SplineSet
178 717 m 128,-1,1
 191 730 191 730 210 730 c 256,2,3
 229 730 229 730 242 717 c 128,-1,4
 255 704 255 704 255 685 c 256,5,6
 255 666 255 666 242 653 c 128,-1,7
 229 640 229 640 210 640 c 256,8,9
 191 640 191 640 178 653 c 128,-1,10
 165 666 165 666 165 685 c 256,11,0
 165 704 165 704 178 717 c 128,-1,1
-99 669 m 128,-1,13
 -58 710 -58 710 0 710 c 256,14,15
 58 710 58 710 99 669 c 128,-1,16
 140 628 140 628 140 570 c 2,17,-1
 140 500 l 1,18,-1
 240 500 l 1,19,-1
 240 450 l 1,20,-1
 140 450 l 1,21,-1
 140 0 l 1,22,-1
 90 0 l 1,23,-1
 90 450 l 1,24,-1
 -10 450 l 1,25,-1
 -10 500 l 1,26,-1
 90 500 l 1,27,-1
 90 570 l 2,28,29
 90 607 90 607 63.5 633.5 c 128,-1,30
 37 660 37 660 0 660 c 256,31,32
 -37 660 -37 660 -63.5 633.5 c 128,-1,33
 -90 607 -90 607 -90 570 c 2,34,-1
 -90 500 l 1,35,-1
 -140 500 l 1,36,-1
 -140 570 l 2,37,12
 -140 628 -140 628 -99 669 c 128,-1,13
EndSplineSet
Validated: 1
Ligature2: "'abvs' Above Base Substitutions lookup 2-1" iivowelguru bindiguru
EndChar

StartChar: bindiguru.alt
Encoding: 65552 -1 149
Width: 198
GlyphClass: 2
Flags: W
LayerCount: 2
Fore
SplineSet
198 500 m 1,0,-1
 198 450 l 1,1,-1
 2 450 l 1,2,-1
 2 500 l 1,3,-1
 198 500 l 1,0,-1
61 692 m 128,-1,5
 74 705 74 705 93 705 c 256,6,7
 112 705 112 705 125 692 c 128,-1,8
 138 679 138 679 138 660 c 256,9,10
 138 641 138 641 125 628 c 128,-1,11
 112 615 112 615 93 615 c 256,12,13
 74 615 74 615 61 628 c 128,-1,14
 48 641 48 641 48 660 c 256,15,4
 48 679 48 679 61 692 c 128,-1,5
EndSplineSet
Validated: 1
EndChar

StartChar: addakguru.alt
Encoding: 65553 -1 150
Width: 298
GlyphClass: 2
Flags: W
LayerCount: 2
Fore
SplineSet
33 740 m 1,0,1
 33 694 33 694 68 662 c 128,-1,2
 103 630 103 630 153 630 c 128,-1,3
 203 630 203 630 238 662 c 128,-1,4
 273 694 273 694 273 740 c 1,5,-1
 293 740 l 1,6,7
 293 674 293 674 252 627 c 128,-1,8
 211 580 211 580 153 580 c 128,-1,9
 95 580 95 580 54 627 c 128,-1,10
 13 674 13 674 13 740 c 1,11,-1
 33 740 l 1,0,1
298 500 m 1,12,-1
 298 450 l 1,13,-1
 2 450 l 1,14,-1
 2 500 l 1,15,-1
 298 500 l 1,12,-1
EndSplineSet
EndChar

StartChar: viramaguru_yaguru
Encoding: 65554 -1 151
Width: 542
GlyphClass: 2
Flags: W
LayerCount: 2
Fore
SplineSet
552 500 m 1,0,-1
 552 450 l 1,1,-1
 452 450 l 1,2,-1
 452 0 l 1,3,-1
 402 0 l 1,4,-1
 402 240 l 1,5,-1
 252 240 l 1,6,-1
 252 80 l 1,7,-1
 19 250 l 1,8,-1
 19 310 l 1,9,-1
 207 180 l 1,10,-1
 207 290 l 1,11,-1
 402 290 l 1,12,-1
 402 450 l 1,13,-1
 -10 450 l 1,14,-1
 -10 500 l 1,15,-1
 552 500 l 1,0,-1
EndSplineSet
Validated: 1
Ligature2: "'pstf' Post Base Forms lookup 7-1" viramaguru yaguru
EndChar

StartChar: udaatguru
Encoding: 2641 2641 152
Width: 0
GlyphClass: 4
Flags: W
AnchorPoint: "GRAnchor2" -47 0 mark 0
LayerCount: 2
Fore
SplineSet
-16.75 -251.25 m 24,0,-1
 -24.0254 -276.954 l 1,1,2
 -109.5 -278.5 -109.5 -278.5 -243.845 -26.9502 c 1,3,-1
 -218.21 -14.9971 l 1,4,5
 -101 -193 -101 -193 -23.9209 -216.277 c 9,6,7
 -16.7043 -224.74 -16.7043 -224.74 -16.75 -251.25 c 24,0,-1
EndSplineSet
Validated: 33
EndChar

StartChar: yakashguru
Encoding: 2677 2677 153
Width: 0
Flags: W
AnchorPoint: "GRAnchor2" -150 4 mark 0
LayerCount: 2
Fore
SplineSet
-242.302 -42.1855 m 1,0,1
 -252.73 -166.933 -252.73 -166.933 -201.16 -190.594 c 256,2,3
 -162.214 -208.01 -162.214 -208.01 -128.775 -131.27 c 1,4,-1
 -109.981 -138.11 l 1,5,6
 -142.668 -266.493 -142.668 -266.493 -214.261 -238.578 c 256,7,8
 -305.506 -203 -305.506 -203 -264.096 -35.3447 c 1,9,-1
 -242.302 -42.1855 l 1,0,1
EndSplineSet
Validated: 33
EndChar

StartChar: iivowelguru_tippiguru
Encoding: 65538 -1 154
Width: 230
Flags: W
LayerCount: 2
Fore
SplineSet
179.5 784.5 m 128,-1,1
 209 814 209 814 250 814 c 256,2,3
 291 814 291 814 320.5 784.5 c 128,-1,4
 350 755 350 755 350 714 c 0,5,6
 350 683 350 683 331 656.5 c 128,-1,7
 312 630 312 630 280 619 c 1,8,-1
 280 639 l 1,9,10
 298 648 298 648 309 664 c 128,-1,11
 320 680 320 680 320 699 c 0,12,13
 320 726 320 726 299.5 745 c 128,-1,14
 279 764 279 764 250 764 c 256,15,16
 221 764 221 764 200.5 745 c 128,-1,17
 180 726 180 726 180 699 c 0,18,19
 180 680 180 680 191 664 c 128,-1,20
 202 648 202 648 220 639 c 1,21,-1
 220 619 l 1,22,23
 189 627 189 627 169.5 653.5 c 128,-1,24
 150 680 150 680 150 714 c 0,25,0
 150 755 150 755 179.5 784.5 c 128,-1,1
-99 669 m 128,-1,27
 -58 710 -58 710 0 710 c 256,28,29
 58 710 58 710 99 669 c 128,-1,30
 140 628 140 628 140 570 c 2,31,-1
 140 500 l 1,32,-1
 240 500 l 1,33,-1
 240 450 l 1,34,-1
 140 450 l 1,35,-1
 140 0 l 1,36,-1
 90 0 l 1,37,-1
 90 450 l 1,38,-1
 -10 450 l 1,39,-1
 -10 500 l 1,40,-1
 90 500 l 1,41,-1
 90 570 l 2,42,43
 90 607 90 607 63.5 633.5 c 128,-1,44
 37 660 37 660 0 660 c 256,45,46
 -37 660 -37 660 -63.5 633.5 c 128,-1,47
 -90 607 -90 607 -90 570 c 2,48,-1
 -90 500 l 1,49,-1
 -140 500 l 1,50,-1
 -140 570 l 2,51,26
 -140 628 -140 628 -99 669 c 128,-1,27
EndSplineSet
Validated: 1
Ligature2: "'abvs' Above Base Substitutions lookup 2-1" iivowelguru tippiguru
EndChar

StartChar: iivowelguru_addakguru
Encoding: 65537 -1 155
Width: 230
Flags: W
LayerCount: 2
Fore
SplineSet
119 796 m 1,0,1
 119 750 119 750 154 718 c 128,-1,2
 189 686 189 686 239 686 c 256,3,4
 289 686 289 686 324 718 c 128,-1,5
 359 750 359 750 359 796 c 1,6,-1
 379 796 l 1,7,8
 379 730 379 730 338 683 c 128,-1,9
 297 636 297 636 239 636 c 256,10,11
 181 636 181 636 140 683 c 128,-1,12
 99 730 99 730 99 796 c 1,13,-1
 119 796 l 1,0,1
-99 669 m 128,-1,15
 -58 710 -58 710 0 710 c 256,16,17
 58 710 58 710 99 669 c 128,-1,18
 140 628 140 628 140 570 c 2,19,-1
 140 500 l 1,20,-1
 240 500 l 1,21,-1
 240 450 l 1,22,-1
 140 450 l 1,23,-1
 140 0 l 1,24,-1
 90 0 l 1,25,-1
 90 450 l 1,26,-1
 -10 450 l 1,27,-1
 -10 500 l 1,28,-1
 90 500 l 1,29,-1
 90 570 l 2,30,31
 90 607 90 607 63.5 633.5 c 128,-1,32
 37 660 37 660 0 660 c 256,33,34
 -37 660 -37 660 -63.5 633.5 c 128,-1,35
 -90 607 -90 607 -90 570 c 2,36,-1
 -90 500 l 1,37,-1
 -140 500 l 1,38,-1
 -140 570 l 2,39,14
 -140 628 -140 628 -99 669 c 128,-1,15
EndSplineSet
Validated: 1
Ligature2: "'abvs' Above Base Substitutions lookup 2-1" iivowelguru addakguru
EndChar

StartChar: eevowelguru_addakguru
Encoding: 65528 -1 156
Width: 0
Flags: W
AnchorPoint: "GRAnchor1" -112 508 mark 0
LayerCount: 2
Fore
SplineSet
-172 816 m 1,0,1
 -172 770 -172 770 -137 738 c 128,-1,2
 -102 706 -102 706 -52 706 c 256,3,4
 -2 706 -2 706 33 738 c 128,-1,5
 68 770 68 770 68 816 c 1,6,-1
 88 816 l 1,7,8
 88 750 88 750 47 703 c 128,-1,9
 6 656 6 656 -52 656 c 256,10,11
 -110 656 -110 656 -151 703 c 128,-1,12
 -192 750 -192 750 -192 816 c 1,13,-1
 -172 816 l 1,0,1
-384.5 707 m 128,-1,15
 -364 720 -364 720 -335 720 c 0,16,17
 -264 720 -264 720 -201 665 c 128,-1,18
 -138 610 -138 610 -105 520 c 1,19,-1
 -125 520 l 1,20,21
 -146 579 -146 579 -195.5 614.5 c 128,-1,22
 -245 650 -245 650 -305 650 c 0,23,24
 -314 650 -314 650 -330 645 c 128,-1,25
 -346 640 -346 640 -355 640 c 0,26,27
 -376 640 -376 640 -390.5 650.5 c 128,-1,28
 -405 661 -405 661 -405 675 c 0,29,14
 -405 694 -405 694 -384.5 707 c 128,-1,15
EndSplineSet
Validated: 1
Ligature2: "'abvs' Above Base Substitutions lookup 2-1" eevowelguru addakguru
EndChar

StartChar: aivowelguru_addakguru
Encoding: 65529 -1 157
Width: 0
Flags: W
AnchorPoint: "GRAnchor1" -150 496 mark 0
LayerCount: 2
Fore
SplineSet
-129.202 520 m 1,0,1
 -157.218 642.382 -157.218 642.382 -221.021 746.479 c 0,2,3
 -276.725 835.479 -276.725 835.479 -346.941 844.091 c 0,4,5
 -414.562 851.725 -414.562 851.725 -417.67 815.314 c 0,6,7
 -418.701 803.227 -418.701 803.227 -409.522 793.553 c 0,8,9
 -401.375 784.965 -401.375 784.965 -386.812 784.965 c 0,10,11
 -384.039 784.965 -384.039 784.965 -377.105 785.658 c 128,-1,12
 -370.171 786.352 -370.171 786.352 -362.37 787.045 c 128,-1,13
 -354.569 787.738 -354.569 787.738 -347.288 787.932 c 128,-1,14
 -340.007 788.125 -340.007 788.125 -336.54 788.125 c 0,15,16
 -284.106 788.125 -284.106 788.125 -234.874 705.608 c 0,17,18
 -215.459 673.364 -215.459 673.364 -200.479 646.682 c 128,-1,19
 -185.5 620 -185.5 620 -167 570 c 1,20,21
 -242.665 681.972 -242.665 681.972 -345.024 699.98 c 0,22,23
 -411 711 -411 711 -411.939 666.043 c 0,24,25
 -411.939 654.948 -411.939 654.948 -405.525 648.188 c 128,-1,26
 -399.111 641.427 -399.111 641.427 -391.83 641.427 c 0,27,28
 -389.403 641.427 -389.403 641.427 -381.949 642.641 c 128,-1,29
 -374.495 643.854 -374.495 643.854 -365.134 645.414 c 128,-1,30
 -355.772 646.975 -355.772 646.975 -346.238 648.361 c 128,-1,31
 -336.704 649.748 -336.704 649.748 -330.116 649.748 c 0,32,33
 -284.004 649.748 -284.004 649.748 -252.8 628.599 c 0,34,35
 -236.015 617.604 -236.015 617.604 -216.65 594.906 c 0,36,37
 -177 546 -177 546 -170.071 520 c 1,38,-1
 -129.202 520 l 1,0,1
-171 820 m 1,39,40
 -171 774 -171 774 -136 742 c 128,-1,41
 -101 710 -101 710 -51 710 c 256,42,43
 -1 710 -1 710 34 742 c 128,-1,44
 69 774 69 774 69 820 c 1,45,-1
 89 820 l 1,46,47
 89 754 89 754 48 707 c 128,-1,48
 7 660 7 660 -51 660 c 256,49,50
 -109 660 -109 660 -150 707 c 128,-1,51
 -191 754 -191 754 -191 820 c 1,52,-1
 -171 820 l 1,39,40
EndSplineSet
Ligature2: "'abvs' Above Base Substitutions lookup 2-1" aivowelguru addakguru
EndChar

StartChar: oovowelguru_addakguru
Encoding: 65530 -1 158
Width: 0
Flags: W
AnchorPoint: "GRAnchor1" -114 586 mark 0
LayerCount: 2
Fore
SplineSet
-168 906 m 5,0,1
 -168 860 -168 860 -133 828 c 132,-1,2
 -98 796 -98 796 -48 796 c 260,3,4
 2 796 2 796 37 828 c 132,-1,5
 72 860 72 860 72 906 c 5,6,-1
 92 906 l 5,7,8
 92 840 92 840 51 793 c 132,-1,9
 10 746 10 746 -48 746 c 260,10,11
 -106 746 -106 746 -147 793 c 132,-1,12
 -188 840 -188 840 -188 906 c 5,13,-1
 -168 906 l 5,0,1
-375 775 m 5,14,15
 -370 749 -370 749 -352 732 c 132,-1,16
 -334 715 -334 715 -310 715 c 4,17,18
 -288 715 -288 715 -245 727.5 c 132,-1,19
 -202 740 -202 740 -180 740 c 4,20,21
 -149 740 -149 740 -127 700.5 c 132,-1,22
 -105 661 -105 661 -105 605 c 5,23,-1
 -125 605 l 5,24,25
 -125 634 -125 634 -139.5 654.5 c 132,-1,26
 -154 675 -154 675 -175 675 c 4,27,28
 -199 675 -199 675 -245 665 c 132,-1,29
 -291 655 -291 655 -315 655 c 4,30,31
 -348 655 -348 655 -371.5 690 c 132,-1,32
 -395 725 -395 725 -395 775 c 5,33,-1
 -375 775 l 5,14,15
EndSplineSet
Ligature2: "'abvs' Above Base Substitutions lookup 2-1" oovowelguru addakguru
EndChar

StartChar: auvowelguru_addakguru
Encoding: 65531 -1 159
Width: 0
Flags: W
LayerCount: 2
Fore
SplineSet
-82 858 m 1,0,1
 -82 812 -82 812 -47 780 c 128,-1,2
 -12 748 -12 748 38 748 c 256,3,4
 88 748 88 748 123 780 c 128,-1,5
 158 812 158 812 158 858 c 1,6,-1
 178 858 l 1,7,8
 178 792 178 792 137 745 c 128,-1,9
 96 698 96 698 38 698 c 256,10,11
 -20 698 -20 698 -61 745 c 128,-1,12
 -102 792 -102 792 -102 858 c 1,13,-1
 -82 858 l 1,0,1
-202.5 636 m 128,-1,15
 -200 646 -200 646 -195 655 c 1,16,-1
 -245 655 l 2,17,18
 -273 655 -273 655 -295.5 680.5 c 128,-1,19
 -318 706 -318 706 -325 745 c 1,20,-1
 -311 750 l 1,21,22
 -302 730 -302 730 -284 717.5 c 128,-1,23
 -266 705 -266 705 -245 705 c 2,24,-1
 -115 705 l 2,25,26
 -82 705 -82 705 -58.5 678.5 c 128,-1,27
 -35 652 -35 652 -35 615 c 0,28,29
 -35 583 -35 583 -52 559 c 128,-1,30
 -69 535 -69 535 -95 530 c 1,31,-1
 -95 550 l 1,32,33
 -81 555 -81 555 -73 568.5 c 128,-1,34
 -65 582 -65 582 -65 600 c 0,35,36
 -65 623 -65 623 -79.5 639 c 128,-1,37
 -94 655 -94 655 -115 655 c 256,38,39
 -136 655 -136 655 -150.5 639 c 128,-1,40
 -165 623 -165 623 -165 600 c 0,41,42
 -165 582 -165 582 -157 568.5 c 128,-1,43
 -149 555 -149 555 -135 550 c 1,44,-1
 -135 530 l 1,45,46
 -165 535 -165 535 -185 559 c 128,-1,47
 -205 583 -205 583 -205 615 c 0,48,14
 -205 626 -205 626 -202.5 636 c 128,-1,15
EndSplineSet
Validated: 1
Ligature2: "'abvs' Above Base Substitutions lookup 2-1" auvowelguru addakguru
EndChar

StartChar: eevowelguru_tippiguru
Encoding: 65524 -1 160
Width: 0
Flags: W
AnchorPoint: "GRAnchor1" -112 508 mark 0
LayerCount: 2
Fore
SplineSet
-132.5 805.5 m 128,-1,1
 -103 835 -103 835 -62 835 c 256,2,3
 -21 835 -21 835 8.5 805.5 c 128,-1,4
 38 776 38 776 38 735 c 0,5,6
 38 704 38 704 19 677.5 c 128,-1,7
 0 651 0 651 -32 640 c 1,8,-1
 -32 660 l 1,9,10
 -14 669 -14 669 -3 685 c 128,-1,11
 8 701 8 701 8 720 c 0,12,13
 8 747 8 747 -12.5 766 c 128,-1,14
 -33 785 -33 785 -62 785 c 256,15,16
 -91 785 -91 785 -111.5 766 c 128,-1,17
 -132 747 -132 747 -132 720 c 0,18,19
 -132 701 -132 701 -121 685 c 128,-1,20
 -110 669 -110 669 -92 660 c 1,21,-1
 -92 640 l 1,22,23
 -123 648 -123 648 -142.5 674.5 c 128,-1,24
 -162 701 -162 701 -162 735 c 0,25,0
 -162 776 -162 776 -132.5 805.5 c 128,-1,1
-384.5 707 m 128,-1,27
 -364 720 -364 720 -335 720 c 0,28,29
 -264 720 -264 720 -201 665 c 128,-1,30
 -138 610 -138 610 -105 520 c 1,31,-1
 -125 520 l 1,32,33
 -146 579 -146 579 -195.5 614.5 c 128,-1,34
 -245 650 -245 650 -305 650 c 0,35,36
 -314 650 -314 650 -330 645 c 128,-1,37
 -346 640 -346 640 -355 640 c 0,38,39
 -376 640 -376 640 -390.5 650.5 c 128,-1,40
 -405 661 -405 661 -405 675 c 0,41,26
 -405 694 -405 694 -384.5 707 c 128,-1,27
EndSplineSet
Validated: 1
Ligature2: "'abvs' Above Base Substitutions lookup 2-1" eevowelguru tippiguru
EndChar

StartChar: aivowelguru_tippiguru
Encoding: 65525 -1 161
Width: 0
Flags: W
AnchorPoint: "GRAnchor1" -150 496 mark 0
LayerCount: 2
Fore
SplineSet
-129.202 520 m 1,0,1
 -157.218 642.382 -157.218 642.382 -221.021 746.479 c 0,2,3
 -276.725 835.479 -276.725 835.479 -346.941 844.091 c 0,4,5
 -414.562 851.725 -414.562 851.725 -417.67 815.314 c 0,6,7
 -418.701 803.227 -418.701 803.227 -409.522 793.553 c 0,8,9
 -401.375 784.965 -401.375 784.965 -386.812 784.965 c 0,10,11
 -384.039 784.965 -384.039 784.965 -377.105 785.658 c 128,-1,12
 -370.171 786.352 -370.171 786.352 -362.37 787.045 c 128,-1,13
 -354.569 787.738 -354.569 787.738 -347.288 787.932 c 128,-1,14
 -340.007 788.125 -340.007 788.125 -336.54 788.125 c 0,15,16
 -284.106 788.125 -284.106 788.125 -234.874 705.608 c 0,17,18
 -215.459 673.364 -215.459 673.364 -200.479 646.682 c 128,-1,19
 -185.5 620 -185.5 620 -167 570 c 1,20,21
 -242.665 681.972 -242.665 681.972 -345.024 699.98 c 0,22,23
 -411 711 -411 711 -411.939 666.043 c 0,24,25
 -411.939 654.948 -411.939 654.948 -405.525 648.188 c 128,-1,26
 -399.111 641.427 -399.111 641.427 -391.83 641.427 c 0,27,28
 -389.403 641.427 -389.403 641.427 -381.949 642.641 c 128,-1,29
 -374.495 643.854 -374.495 643.854 -365.134 645.414 c 128,-1,30
 -355.772 646.975 -355.772 646.975 -346.238 648.361 c 128,-1,31
 -336.704 649.748 -336.704 649.748 -330.116 649.748 c 0,32,33
 -284.004 649.748 -284.004 649.748 -252.8 628.599 c 0,34,35
 -236.015 617.604 -236.015 617.604 -216.65 594.906 c 0,36,37
 -177 546 -177 546 -170.071 520 c 1,38,-1
 -129.202 520 l 1,0,1
-131.5 794.5 m 128,-1,40
 -102 824 -102 824 -61 824 c 256,41,42
 -20 824 -20 824 9.5 794.5 c 128,-1,43
 39 765 39 765 39 724 c 0,44,45
 39 693 39 693 20 666.5 c 128,-1,46
 1 640 1 640 -31 629 c 1,47,-1
 -31 649 l 1,48,49
 -13 658 -13 658 -2 674 c 128,-1,50
 9 690 9 690 9 709 c 0,51,52
 9 736 9 736 -11.5 755 c 128,-1,53
 -32 774 -32 774 -61 774 c 256,54,55
 -90 774 -90 774 -110.5 755 c 128,-1,56
 -131 736 -131 736 -131 709 c 0,57,58
 -131 690 -131 690 -120 674 c 128,-1,59
 -109 658 -109 658 -91 649 c 1,60,-1
 -91 629 l 1,61,62
 -122 637 -122 637 -141.5 663.5 c 128,-1,63
 -161 690 -161 690 -161 724 c 0,64,39
 -161 765 -161 765 -131.5 794.5 c 128,-1,40
EndSplineSet
Ligature2: "'abvs' Above Base Substitutions lookup 2-1" aivowelguru tippiguru
EndChar

StartChar: oovowelguru_tippiguru
Encoding: 65526 -1 162
Width: 0
Flags: W
AnchorPoint: "GRAnchor1" -114 566 mark 0
LayerCount: 2
Fore
SplineSet
-108.5 859.5 m 128,-1,1
 -79 889 -79 889 -38 889 c 256,2,3
 3 889 3 889 32.5 859.5 c 128,-1,4
 62 830 62 830 62 789 c 0,5,6
 62 758 62 758 43 731.5 c 128,-1,7
 24 705 24 705 -8 694 c 1,8,-1
 -8 714 l 1,9,10
 10 723 10 723 21 739 c 128,-1,11
 32 755 32 755 32 774 c 0,12,13
 32 801 32 801 11.5 820 c 128,-1,14
 -9 839 -9 839 -38 839 c 256,15,16
 -67 839 -67 839 -87.5 820 c 128,-1,17
 -108 801 -108 801 -108 774 c 0,18,19
 -108 755 -108 755 -97 739 c 128,-1,20
 -86 723 -86 723 -68 714 c 1,21,-1
 -68 694 l 1,22,23
 -99 702 -99 702 -118.5 728.5 c 128,-1,24
 -138 755 -138 755 -138 789 c 0,25,0
 -138 830 -138 830 -108.5 859.5 c 128,-1,1
-375 755 m 1,26,27
 -370 729 -370 729 -352 712 c 128,-1,28
 -334 695 -334 695 -310 695 c 0,29,30
 -288 695 -288 695 -245 707.5 c 128,-1,31
 -202 720 -202 720 -180 720 c 0,32,33
 -149 720 -149 720 -127 680.5 c 128,-1,34
 -105 641 -105 641 -105 585 c 1,35,-1
 -125 585 l 1,36,37
 -125 614 -125 614 -139.5 634.5 c 128,-1,38
 -154 655 -154 655 -175 655 c 0,39,40
 -199 655 -199 655 -245 645 c 128,-1,41
 -291 635 -291 635 -315 635 c 0,42,43
 -348 635 -348 635 -371.5 670 c 128,-1,44
 -395 705 -395 705 -395 755 c 1,45,-1
 -375 755 l 1,26,27
EndSplineSet
Ligature2: "'abvs' Above Base Substitutions lookup 2-1" oovowelguru tippiguru
EndChar

StartChar: auvowelguru_tippiguru
Encoding: 65527 -1 163
Width: 0
Flags: W
LayerCount: 2
Fore
SplineSet
-5.5 823.5 m 128,-1,1
 24 853 24 853 65 853 c 256,2,3
 106 853 106 853 135.5 823.5 c 128,-1,4
 165 794 165 794 165 753 c 0,5,6
 165 722 165 722 146 695.5 c 128,-1,7
 127 669 127 669 95 658 c 1,8,-1
 95 678 l 1,9,10
 113 687 113 687 124 703 c 128,-1,11
 135 719 135 719 135 738 c 0,12,13
 135 765 135 765 114.5 784 c 128,-1,14
 94 803 94 803 65 803 c 256,15,16
 36 803 36 803 15.5 784 c 128,-1,17
 -5 765 -5 765 -5 738 c 0,18,19
 -5 719 -5 719 6 703 c 128,-1,20
 17 687 17 687 35 678 c 1,21,-1
 35 658 l 1,22,23
 4 666 4 666 -15.5 692.5 c 128,-1,24
 -35 719 -35 719 -35 753 c 0,25,0
 -35 794 -35 794 -5.5 823.5 c 128,-1,1
-202.5 636 m 128,-1,27
 -200 646 -200 646 -195 655 c 1,28,-1
 -245 655 l 2,29,30
 -273 655 -273 655 -295.5 680.5 c 128,-1,31
 -318 706 -318 706 -325 745 c 1,32,-1
 -311 750 l 1,33,34
 -302 730 -302 730 -284 717.5 c 128,-1,35
 -266 705 -266 705 -245 705 c 2,36,-1
 -115 705 l 2,37,38
 -82 705 -82 705 -58.5 678.5 c 128,-1,39
 -35 652 -35 652 -35 615 c 0,40,41
 -35 583 -35 583 -52 559 c 128,-1,42
 -69 535 -69 535 -95 530 c 1,43,-1
 -95 550 l 1,44,45
 -81 555 -81 555 -73 568.5 c 128,-1,46
 -65 582 -65 582 -65 600 c 0,47,48
 -65 623 -65 623 -79.5 639 c 128,-1,49
 -94 655 -94 655 -115 655 c 256,50,51
 -136 655 -136 655 -150.5 639 c 128,-1,52
 -165 623 -165 623 -165 600 c 0,53,54
 -165 582 -165 582 -157 568.5 c 128,-1,55
 -149 555 -149 555 -135 550 c 1,56,-1
 -135 530 l 1,57,58
 -165 535 -165 535 -185 559 c 128,-1,59
 -205 583 -205 583 -205 615 c 0,60,26
 -205 626 -205 626 -202.5 636 c 128,-1,27
EndSplineSet
Validated: 1
Ligature2: "'abvs' Above Base Substitutions lookup 2-1" auvowelguru tippiguru
EndChar

StartChar: inr_currency
Encoding: 8377 8377 164
Width: 475
Flags: W
LayerCount: 2
Fore
SplineSet
268.85 375.438 m 0,0,1
 269.601 382.197 269.601 382.197 269.601 385.952 c 1,2,-1
 44.308 385.952 l 1,3,-1
 63.8334 433.264 l 1,4,-1
 259.838 433.264 l 1,5,6
 255.332 442.275 255.332 442.275 248.573 449.785 c 0,7,8
 210.273 491.089 210.273 491.089 123.911 491.089 c 2,9,-1
 44.3084 491.089 l 1,10,-1
 63.8338 538.4 l 1,11,-1
 437.82 538.4 l 1,12,-1
 418.295 491.089 l 1,13,-1
 275.609 491.089 l 1,14,15
 304.897 473.816 304.897 473.816 315.411 433.264 c 1,16,-1
 437.82 433.264 l 1,17,-1
 418.295 385.952 l 1,18,-1
 322.17 385.952 l 1,19,20
 322.17 269.26 322.17 269.26 128.418 255.282 c 1,21,-1
 380.746 -0.0500634 l 1,22,-1
 305.648 -0.0500634 l 1,23,-1
 52.5688 253.029 l 1,24,-1
 52.5688 297.337 l 1,25,26
 259.757 295.835 259.757 295.835 268.85 375.438 c 0,0,1
EndSplineSet
Validated: 33
EndChar
